<mxfile host="Electron" modified="2024-08-31T16:12:05.136Z" agent="Mozilla/5.0 (Windows NT 10.0; Win64; x64) AppleWebKit/537.36 (KHTML, like Gecko) draw.io/22.1.16 Chrome/120.0.6099.109 Electron/28.1.0 Safari/537.36" etag="Qn2oE41lquQPu6JnA1L8" version="22.1.16" type="device">
  <diagram name="Page-1" id="R7hPUZe2uzAkxy_cejb3">
    <mxGraphModel dx="989" dy="659" grid="1" gridSize="10" guides="1" tooltips="1" connect="1" arrows="1" fold="1" page="1" pageScale="1" pageWidth="800" pageHeight="250" math="0" shadow="0">
      <root>
        <mxCell id="0" />
        <mxCell id="1" parent="0" />
        <mxCell id="uO-M7k10kkAM9L_WxSzS-3" value="" style="shape=image;imageAspect=0;aspect=fixed;verticalLabelPosition=bottom;verticalAlign=top;image=data:image/svg+xml,PHN2ZyB4bWxucz0iaHR0cDovL3d3dy53My5vcmcvMjAwMC9zdmciIHZpZXdCb3g9IjAgMCA4NDAuNDggMTMxLjA3IiBkYXRhLW5hbWU9IkxheWVyIDIiIGlkPSJMYXllcl8yIj4mI3hhOyAgPGRlZnM+JiN4YTsgICAgPHN0eWxlPiYjeGE7ICAgICAgLmNscy0xIHsmI3hhOyAgICAgICAgZmlsbDogbm9uZTsmI3hhOyAgICAgICAgc3Ryb2tlOiAjMDAwOyYjeGE7ICAgICAgICBzdHJva2UtbGluZWNhcDogcm91bmQ7JiN4YTsgICAgICAgIHN0cm9rZS1saW5lam9pbjogcm91bmQ7JiN4YTsgICAgICAgIHN0cm9rZS13aWR0aDogMnB4OyYjeGE7ICAgICAgfSYjeGE7ICAgIDwvc3R5bGU+JiN4YTsgIDwvZGVmcz4mI3hhOyAgPGcgZGF0YS1uYW1lPSJMYXllciAxIiBpZD0iTGF5ZXJfMS0yIj4mI3hhOyAgICA8cGF0aCBkPSJtNjEwLjIxLDIzLjQ1YzEuMTQsNi4zMS40NCwxMi42Ni40OSwxOSwuMDIsMi4yMy0uMDYsNC40NSwxLjAxLDYuNSIgY2xhc3M9ImNscy0xIi8+JiN4YTsgICAgPHBhdGggZD0ibTE1MC43MSw1OS45NWMtMS42LDMuMDMtMS41Miw2LjUxLS44Myw5LjQ2LDEuMjksNS40OS40NSwxMS4xMiwxLjgsMTYuNTUuMTUuNjIuMzYsMS40OS0uNDcsMS45OSIgY2xhc3M9ImNscy0xIi8+JiN4YTsgICAgPHBhdGggZD0ibTMyMS4yMSw0LjQ1Yy4wOCw1LjE1LS44NSwxMC4xLTIuNDIsMTUuMDMtLjk2LDMuMDItMS4wOCw2LjMxLTEuNTgsOS40NyIgY2xhc3M9ImNscy0xIi8+JiN4YTsgICAgPHBhdGggZD0ibTQxNi43MSw4Mi45NWMuMTcsNy4zMy4zMywxNC42Ny41LDIyIiBjbGFzcz0iY2xzLTEiLz4mI3hhOyAgICA8cGF0aCBkPSJtMzg5LjIxLDkxLjk1bDEuNSwxMi43NSIgY2xhc3M9ImNscy0xIi8+JiN4YTsgICAgPHBhdGggZD0ibTMuMjEsMzUuOTVjLTIuMzYtLjI4LTEuNjYsMS42NC0xLjQzLDIuNDgsMS44LDYuNzksMS4zLDEzLjcxLjc2LDIwLjUtLjMxLDMuOTEtLjI1LDcuNzIuMjUsMTEuNS40MywzLjMsMS45Miw2LjE4LDUuOTIsNi41MSIgY2xhc3M9ImNscy0xIi8+JiN4YTsgICAgPHBhdGggZD0ibTY1Mi4yMSwxOS45NWMuMiw5LjE3LDEuMTQsMTguMzIuMDgsMjcuNTEtLjIsMS43Ny41OSwzLjY2LjkyLDUuNDkiIGNsYXNzPSJjbHMtMSIvPiYjeGE7ICAgIDxwYXRoIGQ9Im00MTQuMjEsNS40NWMwLDguMDEuNTcsMTYuMDEuODEsMjQuMDEuMjMsNy42LTIuNDYsMTUtMy43OSwyMi41LS43Nyw0LjMyLTEuMzUsOC42Ni0yLjAyLDEzIiBjbGFzcz0iY2xzLTEiLz4mI3hhOyAgICA8cGF0aCBkPSJtNzk3LjIxLDE5Ljk1Yy45NSw2Ljk3LDIuMDksMTMuOTIsMS41LDIxIiBjbGFzcz0iY2xzLTEiLz4mI3hhOyAgICA8cGF0aCBkPSJtMzQwLjcxLDkxLjk1Yy4xNCwzLjE3LS4zOCw2LjM3LjUsOS41IiBjbGFzcz0iY2xzLTEiLz4mI3hhOyAgICA8cGF0aCBkPSJtNjMzLjcxLDE5Ljk1Yy0uNzcsOS42Ni0uNDgsMTkuMzMtLjUsMjkiIGNsYXNzPSJjbHMtMSIvPiYjeGE7ICAgIDxwYXRoIGQ9Im00OTAuMjEsODguOTVjMi44MSw2LjM3LDMuNDIsMTMuMjQsNC41LDIwIiBjbGFzcz0iY2xzLTEiLz4mI3hhOyAgICA8cGF0aCBkPSJtMzU0LjIxLDg5Ljk1Yy4zMyw0LjMzLjY3LDguNjcsMSwxMyIgY2xhc3M9ImNscy0xIi8+JiN4YTsgICAgPHBhdGggZD0ibTc0MC43MSw0Ny45NWMtMS02LjEzLS4zMi0xMi40Mi0xLjk1LTE4LjUxLTEuMzUtNS4wNC0yLjA3LTEwLjI4LTUuNTUtMTQuNDkiIGNsYXNzPSJjbHMtMSIvPiYjeGE7ICAgIDxwYXRoIGQ9Im0zMTYuNzEsODguOTVjLjE3LDQsLjMzLDgsLjUsMTIiIGNsYXNzPSJjbHMtMSIvPiYjeGE7ICAgIDxwYXRoIGQ9Im02ODUuNzEsMTkuN2MyLjI5LDMuMDQsMi40OCw2LjgzLDIuODUsMTAuMjcuODIsNy42MS44MiwxNS4zMiwxLjE1LDIyLjk4IiBjbGFzcz0iY2xzLTEiLz4mI3hhOyAgICA8cGF0aCBkPSJtMzQ4LjIxLDkyLjk1bDEuNSw5Ljc1IiBjbGFzcz0iY2xzLTEiLz4mI3hhOyAgICA8cGF0aCBkPSJtNzI4LjcxLDcwLjk1Yy0uODksNS4xMy0uNjgsMTAuMzQtMS4wOCwxNS40OS0uNzcsOS45Ni0xLjE1LDIwLjAzLTQuOTIsMjkuNTEiIGNsYXNzPSJjbHMtMSIvPiYjeGE7ICAgIDxwYXRoIGQ9Im0zNTguMjEsNC45NWMxLjYsOS4zNi0zLjEyLDE3Ljg5LTMuNTYsMjctLjA2LDEuMjItMS40OC45OC0yLjQ0LDEiIGNsYXNzPSJjbHMtMSIvPiYjeGE7ICAgIDxwYXRoIGQ9Im0yOTQuMjEsNC40NWMtMS4zMyw0LjY3LTIuMjQsOS41Mi00LjE4LDEzLjkyLTEsMi4yNi4wMyw0LjYxLTEuMzIsNi41OCIgY2xhc3M9ImNscy0xIi8+JiN4YTsgICAgPHBhdGggZD0ibTM3MS43MSwzLjk1Yy0uMDIsNi4zNy4xOSwxMi43Ni0xLjQ2LDE5LjAxLS4xNS41OC4yOSwxLjMyLjQ2LDEuOTkiIGNsYXNzPSJjbHMtMSIvPiYjeGE7ICAgIDxwYXRoIGQ9Im04MDcuMjEsMTUuOTVjLjMzLDYuMzMuNjcsMTIuNjcsMSwxOSIgY2xhc3M9ImNscy0xIi8+JiN4YTsgICAgPHBhdGggZD0ibTM3OS4yMSw5MS45NWwxLjUsMTIiIGNsYXNzPSJjbHMtMSIvPiYjeGE7ICAgIDxwYXRoIGQ9Im00NzguMjEsODcuOTVjMS41LDYuNTgsMywxMy4xNyw0LjUsMTkuNzUiIGNsYXNzPSJjbHMtMSIvPiYjeGE7ICAgIDxwYXRoIGQ9Im0xNDAuMjEsNjUuOTVjMS4xNCw4LjY3LS4wNiwxNy4zMywwLDI2IiBjbGFzcz0iY2xzLTEiLz4mI3hhOyAgICA8cGF0aCBkPSJtMjkyLjIxLDg4Ljk1Yy0uMzUsMy42Ni41Niw3LjM3LS41LDExIiBjbGFzcz0iY2xzLTEiLz4mI3hhOyAgICA8cGF0aCBkPSJtMzI0LjcxLDg3Ljk1Yy4zMywzLjgzLjQzLDcuNzEsMS4wNywxMS40OS41MywzLjEzLDIuMjksNC42NSw1Ljk1LDMuNiwzLjc1LTEuMDgsNy42Mi0uOTYsMTEuNTEuMjksMS43Ny41NywzLjk4LS4xMyw1Ljk3LS4yNCw0LjQ5LS4yNiw4Ljg3LDEuMDksMTMuNDksMS4wNSwxMC40OS0uMDksMjEsLjg0LDMxLjUsMS4zLDMuODUuMTcsNy42My0uNjYsMTEuNTYuODUsMi45OCwxLjE0LDQuNzUtMS4wMyw0LjQzLTQuMzMtLjMyLTMuMzMtLjY2LTYuNjctMS0xMCIgY2xhc3M9ImNscy0xIi8+JiN4YTsgICAgPHBhdGggZD0ibTY3Ny4yMSwxOS45NWMxLDQuNSwyLjEyLDguOTgsMi45NywxMy41MSwxLjI0LDYuNTUtMSwxMi45OC0uOTcsMTkuNDkiIGNsYXNzPSJjbHMtMSIvPiYjeGE7ICAgIDxwYXRoIGQ9Im00OTAuNzEsNC45NWMtMSw3LjgzLTEuNTksMTUuNzUtMy4yLDIzLjQ2LS42NywzLjItLjczLDYuMzktMS4zLDkuNTQiIGNsYXNzPSJjbHMtMSIvPiYjeGE7ICAgIDxwYXRoIGQ9Im01MDEuMjEsODUuOTVjMi43NywxLjM1LDIuNDYsNC40NCwyLjgsNi41My45Myw1Ljc0Ljg3LDExLjYzLDEuMiwxNy40NyIgY2xhc3M9ImNscy0xIi8+JiN4YTsgICAgPHBhdGggZD0ibTU0Mi43MSw3LjQ1Yy0xLjkzLDkuNC4yOCwxOS4xNy0yLjUsMjguNSIgY2xhc3M9ImNscy0xIi8+JiN4YTsgICAgPHBhdGggZD0ibTI4Mi43MSw4Ny45NWMtLjc5LDQuMDQsMi4zLDcuOTIuNSwxMiIgY2xhc3M9ImNscy0xIi8+JiN4YTsgICAgPHBhdGggZD0ibTI1MS4yMSw4My45NWwxLjUsMTUiIGNsYXNzPSJjbHMtMSIvPiYjeGE7ICAgIDxwYXRoIGQ9Im0zODcuMjEsNC40NWMtLjIsNy4xOS0yLjc3LDEzLjgtNSwyMC41IiBjbGFzcz0iY2xzLTEiLz4mI3hhOyAgICA8cGF0aCBkPSJtMjM4LjIxLDg0Ljk1Yy0xLjAzLDQuNDQsMS4xNyw4LjYzLDEsMTMiIGNsYXNzPSJjbHMtMSIvPiYjeGE7ICAgIDxwYXRoIGQ9Im0yNzEuMjEsODguOTVjLTEuNjksMy42NywxLjQ4LDcuMTEuNSwxMC43NSIgY2xhc3M9ImNscy0xIi8+JiN4YTsgICAgPHBhdGggZD0ibTI5OS43MSw4OC45NWMtLjA5LDMuOTIsMS4xOCw3LjgzLDAsMTEuNzUiIGNsYXNzPSJjbHMtMSIvPiYjeGE7ICAgIDxwYXRoIGQ9Im02MjkuNzEsOTMuOTVjLS4yOSw4LC44OCwxNi4wNi0xLDI0IiBjbGFzcz0iY2xzLTEiLz4mI3hhOyAgICA8cGF0aCBkPSJtMjYyLjcxLDg3Ljk1Yy4xNywzLjY3LjMzLDcuMzMuNSwxMSIgY2xhc3M9ImNscy0xIi8+JiN4YTsgICAgPHBhdGggZD0ibTE0My4yMSwxMi45NWMtMi44Myw2LjgzLTUuNjcsMTMuNjctOC41LDIwLjUiIGNsYXNzPSJjbHMtMSIvPiYjeGE7ICAgIDxwYXRoIGQ9Im02MjEuMjEsMjAuOTVjMS4wNyw2LjUyLS44NSwxMi43Mi0xLjk5LDE5LS40MiwyLjMyLS42OCw0LjY2LTEuMDEsNyIgY2xhc3M9ImNscy0xIi8+JiN4YTsgICAgPHBhdGggZD0ibTcxNy43MSwxNi45NWM2LjkyLDExLjAyLDguOTcsMjMuMjYsOSwzNiIgY2xhc3M9ImNscy0xIi8+JiN4YTsgICAgPHBhdGggZD0ibTIxNi4yMSwxMC45NWMtNC43NSw5LjQ4LTkuNjUsMTguODktMTMsMjkiIGNsYXNzPSJjbHMtMSIvPiYjeGE7ICAgIDxwYXRoIGQ9Im0zNjQuNzEsMy45NWMtLjE2LDQuNy43NCw5LjUyLTEuNSwxNCIgY2xhc3M9ImNscy0xIi8+JiN4YTsgICAgPHBhdGggZD0ibTMwMy43MSwzLjk1Yy0yLjUsNy4zMy01LjA0LDE0LjY1LTcuNDcsMjIuMDEtLjUzLDEuNi0uNywzLjMyLTEuMDMsNC45OSIgY2xhc3M9ImNscy0xIi8+JiN4YTsgICAgPHBhdGggZD0ibTYwNy4yMSw4My45NWMwLDcuNjguMTEsMTUuMzYtLjk2LDIzLjAxLS40MiwyLjk3LS4zNyw1Ljk5LS41NCw4Ljk5IiBjbGFzcz0iY2xzLTEiLz4mI3hhOyAgICA8cGF0aCBkPSJtMTgzLjcxLDU5Ljk1Yy0xLjk3LDUuNzQtLjAyLDExLjY2LS44MiwxNy41Mi0uNTYsNC4wNS0uODMsOC4wOS0yLjE4LDExLjk4IiBjbGFzcz0iY2xzLTEiLz4mI3hhOyAgICA8cGF0aCBkPSJtMzYwLjcxLDg4Ljk1Yy41LDQuODMsMSw5LjY3LDEuNSwxNC41IiBjbGFzcz0iY2xzLTEiLz4mI3hhOyAgICA8cGF0aCBkPSJtNjk3LjIxLDE0Ljk1Yy4wNiwyLjkxLDEuNzEsNS4zMywyLjQ1LDguMDEsMi4xMiw3LjY3LDMuNTksMTUuNTEsMi4zOSwyMy40Ni0uMjgsMS44NC41NywzLjAyLjY2LDQuNTIiIGNsYXNzPSJjbHMtMSIvPiYjeGE7ICAgIDxwYXRoIGQ9Im0yNzQuNzEsMzAuOTVjLS4wNS03LjY1LDIuNDQtMTQuNzgsNC41My0yMS45OS40My0xLjUsMS41OS0yLjg3LjE1LTQuOTktNi44Ny43NS0xMy44NS0xLjM4LTIxLjItLjc4LTUuNTYuNDUtMTEuMzItLjMzLTE2Ljk3LjMxLTEuNDUuMTYtMy4yNi0uMDItMy41NiwyLjQ1LTEuMDgsOC45LTUuOTIsMTYuNTctOC40OCwyNS0xLjMxLDQuMy0zLjU1LDguMzQtMy40NywxMy4wMSIgY2xhc3M9ImNscy0xIi8+JiN4YTsgICAgPHBhdGggZD0ibTEyNC43MSw2Ni45NWMuNiw3LjQxLDAsMTQuNzktMS42OSwyMS45Ni0uNTcsMi40MS4xMSw0LjU2LS4zMSw2Ljc5IiBjbGFzcz0iY2xzLTEiLz4mI3hhOyAgICA8cGF0aCBkPSJtNTEzLjcxLDg0LjQ1Yy0xLjAyLDQuMy0uODIsOC43My0uMzUsMTIuOTguNTIsNC43OC0uMDksOS41My4zNSwxNC4yNyIgY2xhc3M9ImNscy0xIi8+JiN4YTsgICAgPHBhdGggZD0ibTEwNi4yMSw2OC45NWMxLjg0LDYuNjcuMzQsMTMuMzMsMCwyMCIgY2xhc3M9ImNscy0xIi8+JiN4YTsgICAgPHBhdGggZD0ibTE2OC4yMSwxNi45NWMtLjEsNS43My0zLjI5LDEwLjU4LTQuNTUsMTUuOTktLjk0LDQuMDUtMi4yOSw4LjAxLTMuNDUsMTIuMDEiIGNsYXNzPSJjbHMtMSIvPiYjeGE7ICAgIDxwYXRoIGQ9Im0xNjEuMjEsMTAuOTVjLS43NSw4LjAzLTQuNDcsMTQuOTgtNy45OSwyMi0xLjkxLDMuOC00LjE1LDcuNS00LjAxLDEyIiBjbGFzcz0iY2xzLTEiLz4mI3hhOyAgICA8cGF0aCBkPSJtMTYwLjIxLDcxLjQ1Yy0uMTcsNC4zMy0uMzMsOC42Ny0uNSwxMy0uMDcsMS45MS0uMDgsMy44LDEsNS41IiBjbGFzcz0iY2xzLTEiLz4mI3hhOyAgICA8cGF0aCBkPSJtNjE2LjcxLDg5LjQ1YzIuNDMsNi45LDEuMzEsMTQuMDMuNzMsMjAuOTgtLjE3LDIuMDctLjM0LDQuMzYtLjczLDYuNTIiIGNsYXNzPSJjbHMtMSIvPiYjeGE7ICAgIDxwYXRoIGQ9Im00MDAuNzEsOTAuOTVjLS4xNyw0LjUtLjMzLDktLjUsMTMuNSIgY2xhc3M9ImNscy0xIi8+JiN4YTsgICAgPHBhdGggZD0ibTMzMi4yMSw5MC45NWMuOTgsMy40NC40OSw3LjE2LDIsMTAuNSIgY2xhc3M9ImNscy0xIi8+JiN4YTsgICAgPHBhdGggZD0ibTM3MS43MSw5MS45NWMtLjQsMy43OS4yNyw3LjQzLDEuNSwxMSIgY2xhc3M9ImNscy0xIi8+JiN4YTsgICAgPHBhdGggZD0ibTcxOS4yMSw4MS45NWMtMS41NSwxMC4yMi0uODcsMjAuODQtNS41LDMwLjUiIGNsYXNzPSJjbHMtMSIvPiYjeGE7ICAgIDxwYXRoIGQ9Im0zMDYuMjEsODguNDVjNC45NiwyLjE0LDEuMzQsNi44NSwyLjkyLDEwLjA0LjI3LjU0LS41OCwxLjYyLS45MiwyLjQ2IiBjbGFzcz0iY2xzLTEiLz4mI3hhOyAgICA8cGF0aCBkPSJtNzUwLjcxLDY4Ljk1Yy0uOTEsMS41OS0uNSwzLjMzLS40OCw1LC4xMiwxMC41My44OSwyMS4xMS0xLjU2LDMxLjQ5LS42OSwyLjkxLTEuOTUsNS42OC0yLjk1LDguNTEiIGNsYXNzPSJjbHMtMSIvPiYjeGE7ICAgIDxwYXRoIGQ9Im0xMzEuNzEsNjAuOTVjLS4wMSw4LjM1LS4xNSwxNi43LDEsMjUiIGNsYXNzPSJjbHMtMSIvPiYjeGE7ICAgIDxwYXRoIGQ9Im01NzYuNzEsODAuOTVjLTEsNy44My0xLjk1LDE1LjY3LTMuMDIsMjMuNS0uNDYsMy4zMS0xLjM5LDYuNTItMi45OCw5LjUiIGNsYXNzPSJjbHMtMSIvPiYjeGE7ICAgIDxwYXRoIGQ9Im02NjkuNzEsMTguOTVjLS4zMywxLjE3LTEuMTMsMi40Mi0uOTMsMy40OSwxLjk4LDEwLjEzLjQyLDIwLjM1LjkzLDMwLjUxIiBjbGFzcz0iY2xzLTEiLz4mI3hhOyAgICA8cGF0aCBkPSJtNjQyLjIxLDE5Ljk1Yy0xLjE5LDQuNzEuOTYsOS4yNy42LDE0LjAxLS40Myw1LjYzLS4xLDExLjMzLS4xLDE2Ljk5IiBjbGFzcz0iY2xzLTEiLz4mI3hhOyAgICA8cGF0aCBkPSJtNDY4LjcxLDMuOTVjMS4xMSwxMC0yLjI4LDE5LjQtNC4xMSwyOC45OC0uNzYsNC0xLjY2LDcuOTUtMS44OSwxMi4wMiIgY2xhc3M9ImNscy0xIi8+JiN4YTsgICAgPHBhdGggZD0ibTE3Mi43MSw2MC45NWMtMS4wNSw5LjQ3LjAyLDE5LjA1LTEuNSwyOC41IiBjbGFzcz0iY2xzLTEiLz4mI3hhOyAgICA8cGF0aCBkPSJtNTAxLjIxLDUuNDVjLTEuNSw5LjgzLTIuODgsMTkuNjktNC42MSwyOS40OC0uMjksMS42NC0uMywzLjAyLjExLDQuNTIiIGNsYXNzPSJjbHMtMSIvPiYjeGE7ICAgIDxwYXRoIGQ9Im0zMTEuMjEsNC40NWMuNDcsMi45My0xLjc0LDQuOTctMi41OCw3LjQ3LTEuNjEsNC44NS0zLjkxLDkuNDctNC45MiwxNC41MyIgY2xhc3M9ImNscy0xIi8+JiN4YTsgICAgPHBhdGggZD0ibTY0Ny4yMSw5MS40NWMxLjAzLDkuNSwxLjE1LDE5LDAsMjguNSIgY2xhc3M9ImNscy0xIi8+JiN4YTsgICAgPHBhdGggZD0ibTc3Mi4yMSw2OC45NWMxLjU4LDE0LjcxLS45MiwyOS4zMy0xLDQ0IiBjbGFzcz0iY2xzLTEiLz4mI3hhOyAgICA8cGF0aCBkPSJtMTQuNzEsMjQuOTVjLTEuMzYtMS44My4yMi0zLjY3LDAtNS41LTYuMzUtMy4wNy0xMi43MS4xLTEzLjQsNy4wMS0uMzEsMy4xLS42NCw2LjM3LjQsOS40OSIgY2xhc3M9ImNscy0xIi8+JiN4YTsgICAgPHBhdGggZD0ibTY1OS43MSwxOC45NWMtLjMsMS4zMi0xLjAyLDIuMzEtLjYzLDQuMDMsMi4xLDkuMTksMi4xOSwxOC41OSwyLjEzLDI3Ljk3IiBjbGFzcz0iY2xzLTEiLz4mI3hhOyAgICA8cGF0aCBkPSJtMjI1LjcxLDExLjdjLTUuMzUsOC42Ni04LjgyLDE4LjI2LTEzLjUsMjcuMjUiIGNsYXNzPSJjbHMtMSIvPiYjeGE7ICAgIDxwYXRoIGQ9Im0xOTcuMjEsMTIuOTVjLTMuODMsOS42Ny03LjY3LDE5LjMzLTExLjUsMjkiIGNsYXNzPSJjbHMtMSIvPiYjeGE7ICAgIDxwYXRoIGQ9Im01MzkuNzEsNzQuOTVjLS4zMywxLTEsMi4wMi0uOTUsMywuNDcsOS4zNC0xLjcxLDE4LjM4LTMuMTMsMjcuNDktLjI5LDEuODYtLjMxLDMuNjctLjQyLDUuNTEiIGNsYXNzPSJjbHMtMSIvPiYjeGE7ICAgIDxwYXRoIGQ9Im01OTguMjEsODguOTVjMS4xMiw4Ljk4LjE5LDE4LC41LDI3IiBjbGFzcz0iY2xzLTEiLz4mI3hhOyAgICA8cGF0aCBkPSJtNjU2LjcxLDc2Ljk1Yy0xLjA4LDEuNy0xLjA2LDMuNTktMSw1LjUuMjUsOS4zNS4yMSwxOC43LDEuNDcsMjgsLjMyLDIuMzYtLjM5LDQuNjEtMS45Niw2LjQ5IiBjbGFzcz0iY2xzLTEiLz4mI3hhOyAgICA8cGF0aCBkPSJtNzgyLjcxLDc2Ljk1Yy0xLjQxLDIuNS4xNiw0Ljk5LjA1LDcuNS0uMzksOS4yMS0xLjA5LDE4LjM5LTIuNTEsMjcuNS0uMTUuOTUuMjksMS45OS40NiwyLjk5IiBjbGFzcz0iY2xzLTEiLz4mI3hhOyAgICA8cGF0aCBkPSJtNzA5LjIxLDkxLjk1Yy0yLjk3LDcuMDUtNC44NCwxNC4zOC01LjQ2LDIyLS4xNSwxLjg0LS40OCwzLjIxLTIuNTQsMy41IiBjbGFzcz0iY2xzLTEiLz4mI3hhOyAgICA8cGF0aCBkPSJtNTExLjcxLDQuOTVjLTYuNjUtLjgzLTEzLjM1LS4xMy0xOS45OS0uNTktNy4zMy0uNTEtMTQuNjYtLjcxLTIyLS45Ny02LjY4LS4yNC0xMy4zMSwxLjU0LTIwLjAxLjExLTQuNjEtLjk4LTkuMzEtLjUtMTMuOTktLjA4LTcuMTUuNjMtMTQuMzcsMS43My0yMS40OSwxLjMzLTYuNS0uMzYtMTMuMDYtLjE5LTE5LjQ5LS45NC03LjAyLS44Mi0xNC4wMi0xLjA2LTIxLjAxLS43Ny0xMC4wMS40MS0yMCwuMjctMzAsLjI1LTUuNjYsMC0xMS4zNi0xLjU5LTE3LC4xNyIgY2xhc3M9ImNscy0xIi8+JiN4YTsgICAgPHBhdGggZD0ibTQwNS43MSw0Ljk1Yy42LDkuNjcsMS40MywxOS40MS0uMTQsMjguOTgtMS40OCw4Ljk5LTEuODgsMTcuOTktMi4zNiwyNy4wMiIgY2xhc3M9ImNscy0xIi8+JiN4YTsgICAgPHBhdGggZD0ibTU1Ni43MSw4Ni40NWMtMS44OCw4LjY2LTMuNzYsMTcuMzEtNS42OSwyNi4xNi0yLjI3LDEuMS00LjY2LjcyLTcuMzQuMi01Ljc0LTEuMTEtMTEuNjYtLjUyLTE3LjUxLTEuMDItMy42MS0uMzEtNy44LS4yLTExLjQyLjQ1LTQuNjMuODMtOC44Ni0uODUtMTMtMS4zLTUuNzctLjYzLTExLjgtLjgzLTE3LjYxLTIuMjktMy4xMi0uNzgtNi42Mi0xLjA3LTkuOTUtMS4xNC0xNy0uMzUtMzMuOTgtMS41NC01MS0xLjExLTQuMi4xLTguNTguNjctMTIuNS0xLjciIGNsYXNzPSJjbHMtMSIvPiYjeGE7ICAgIDxwYXRoIGQ9Im0xODYuNzEsMTUuOTVjLTIsOC0zLjk0LDE2LjAyLTYuMDMsMjMuOTktLjg3LDMuMzMtLjM5LDYuOTktMi40NywxMC4wMSIgY2xhc3M9ImNscy0xIi8+JiN4YTsgICAgPHBhdGggZD0ibTMzOS4yMSw0LjQ1Yy0uNTIsOS42MS0zLjc3LDE4LjgyLTQuMiwyOC40OS0uMTEsMi4zOS40LDQuNjguMiw3LjAxIiBjbGFzcz0iY2xzLTEiLz4mI3hhOyAgICA8cGF0aCBkPSJtNTY0LjcxLDg0Ljk1YzEuOTQsOS4wMS4yMiwxNy42LTMuMDgsMjUuOTctLjM2LjkxLS4yNSwxLjctLjQyLDIuNTMiIGNsYXNzPSJjbHMtMSIvPiYjeGE7ICAgIDxwYXRoIGQ9Im01MjguMjEsNi45NWMtLjMyLDguNzgtMS43NywxNy40MS0zLjUsMjYiIGNsYXNzPSJjbHMtMSIvPiYjeGE7ICAgIDxwYXRoIGQ9Im03ODUuMjEsMTcuOTVjLS45Niw1LjU0LDEuOTEsMTAuNTksMi4wMiwxNiwuMDUsMi42Ny4zMSw1LjMzLjQ4LDgiIGNsYXNzPSJjbHMtMSIvPiYjeGE7ICAgIDxwYXRoIGQ9Im00NTguNzEsNC45NWMxLjIyLDYuODYtLjA5LDEzLjQyLTEuOTUsMjAuMDEtMi4wNSw3LjI3LTMuNzIsMTQuNjUtNS41NSwyMS45OSIgY2xhc3M9ImNscy0xIi8+JiN4YTsgICAgPHBhdGggZD0ibTc0Ni4yMSwxNy40NWMzLjg0LDguNDIsNS4xMSwxNy4zMyw1LDI2LjUiIGNsYXNzPSJjbHMtMSIvPiYjeGE7ICAgIDxwYXRoIGQ9Im0xOTYuMjEsNTguOTVjLS42NywxMS0xLjMzLDIyLTIsMzMiIGNsYXNzPSJjbHMtMSIvPiYjeGE7ICAgIDxwYXRoIGQ9Im00NzkuNzEsNC40NWMtMS43OSwxMC41MS0xLjg1LDIxLjMyLTUuNSwzMS41IiBjbGFzcz0iY2xzLTEiLz4mI3hhOyAgICA8cGF0aCBkPSJtNTQ5LjcxLDgxLjQ1Yy0uMjksMTAuNTctNC41NCwyMC4yOS02LjUsMzAuNSIgY2xhc3M9ImNscy0xIi8+JiN4YTsgICAgPHBhdGggZD0ibTk3LjcxLDY2Ljk1YzEuNTIsNy42OS0uNDIsMTUuMDgtMiwyMi41IiBjbGFzcz0iY2xzLTEiLz4mI3hhOyAgICA8cGF0aCBkPSJtNDIzLjcxLDQuOTVjLS4xOCwxMi42OS42OCwyNS40Mi0xLjk2LDM4LjAxLTIsOS41NC01LjMzLDE4LjY3LTguMDEsMjgtLjA4LjI2LjMuNjYuNDcuOTkiIGNsYXNzPSJjbHMtMSIvPiYjeGE7ICAgIDxwYXRoIGQ9Im00MzkuNzEsMy45NWMtLjE1LDE3LjI2LTIuNzIsMzQuMjEtNi41LDUxIiBjbGFzcz0iY2xzLTEiLz4mI3hhOyAgICA8cGF0aCBkPSJtMjA2LjcxLDEwLjQ1Yy01LjUzLDExLjM0LTEwLjk4LDIyLjcxLTE1LjUsMzQuNSIgY2xhc3M9ImNscy0xIi8+JiN4YTsgICAgPHBhdGggZD0ibTE0LjcxLDE3Ljk1YzQuNDUtNS42Niw4LjczLTExLjM0LDE2LjQ4LTEzLjEsNS4yOS0xLjIxLDEwLjUxLS40NiwxNS40OS4zMyw3LjAxLDEuMTEsMTQuMTIsMS41LDIxLjA1LDEuNzMsMTYuMTQuNTIsMzIuMzUtLjA5LDQ4LjQ4LTEuMDcsMTguMzgtMS4xMiwzNi42OC4yOSw1NS4wMS40MywxMC40Ny4wOCwyMS4wMy0uMTksMzEuNTEtMS43MiwxMS42MS0xLjY5LDIzLjMyLTMuMTcsMzQuOTktLjA5IiBjbGFzcz0iY2xzLTEiLz4mI3hhOyAgICA8cGF0aCBkPSJtNTg5LjIxLDg4Ljk1Yy0yLjA0Ljc1LTEuMzMsMi41Mi0xLjUyLDQtLjk2LDcuNTktMS45OCwxNS4xNy0yLjk4LDIyLjc1IiBjbGFzcz0iY2xzLTEiLz4mI3hhOyAgICA8cGF0aCBkPSJtNjI0LjIxLDgxLjk1Yy0uNCwyLjMzLS41Miw0LjU5LS4wNyw3LjAxLDEuNzYsOS40NiwxLjQ4LDE4Ljg1LTEuOTMsMjcuOTkiIGNsYXNzPSJjbHMtMSIvPiYjeGE7ICAgIDxwYXRoIGQ9Im03OTMuNzEsNjkuOTVjLS45OSwxLjgzLS4wNywzLjY2LS4wNSw1LjUuMTUsMTEuNzYtLjIyLDIzLjQ3LTIuODcsMzUuMDItLjM5LDEuNzEuMjYsMy42NS40Miw1LjQ4IiBjbGFzcz0iY2xzLTEiLz4mI3hhOyAgICA8cGF0aCBkPSJtMTc3LjIxLDEzLjk1Yy0xLjA1LDExLjA3LTQuNzYsMjEuMjgtMTAsMzEiIGNsYXNzPSJjbHMtMSIvPiYjeGE7ICAgIDxwYXRoIGQ9Im00NDcuNzEsNC40NWMuNDYsMTUuMTYtMi4xMiwyOS45Mi02LjAzLDQ0LjQ5LS40NiwxLjcyLTEuMzEsMy4zNC0xLjk3LDUuMDEiIGNsYXNzPSJjbHMtMSIvPiYjeGE7ICAgIDxwYXRoIGQ9Im0xNTEuMjEsOS45NWMtMS4xNyw1LjY1LTIuNDQsMTEuMy01LjAzLDE2LjQ4LTIuNDcsNC45My0zLjksMTAuMTYtNC45NywxNS41MiIgY2xhc3M9ImNscy0xIi8+JiN4YTsgICAgPHBhdGggZD0ibTUyMC4yMSw1Ljk1Yy0xLjcyLDMuMTUtLjc2LDYuNjktMS40NCwxMC4wMS0xLjQxLDYuODUtMi41NywxMy43Ni00LjU2LDIwLjQ5IiBjbGFzcz0iY2xzLTEiLz4mI3hhOyAgICA8cGF0aCBkPSJtNzM5LjcxLDc3Ljk1Yy0uOTYsMTEuNTQtMS40LDIzLjE1LTQuMDQsMzQuNDktLjIxLjktLjk2LDEuNjgtMS40NiwyLjUxIiBjbGFzcz0iY2xzLTEiLz4mI3hhOyAgICA8cGF0aCBkPSJtNjM4LjIxLDg3Ljk1Yy0xLjM3LDQuMjMuNTcsOC4zMS41NywxMi41LDAsNi4yLS4xNywxMi4zNi0xLjA3LDE4LjUiIGNsYXNzPSJjbHMtMSIvPiYjeGE7ICAgIDxwYXRoIGQ9Im00MzAuMjEsNC45NWMxLjIyLDExLjU0Ljc4LDIzLjAyLS45NSwzNC41MS0xLjc4LDExLjg0LTYuMTEsMjIuOTgtOS4wNSwzNC40OSIgY2xhc3M9ImNscy0xIi8+JiN4YTsgICAgPHBhdGggZD0ibTcwNy4yMSwxMy45NWMyLjAxLDcuMjksNC4zNSwxNC40OSw1LjUzLDIyLC43NCw0LjY5LjQzLDkuMzQtLjAzLDE0IiBjbGFzcz0iY2xzLTEiLz4mI3hhOyAgICA8cGF0aCBkPSJtNTI4LjIxLDc2Ljk1Yy0uODMsOC44My0xLjc1LDE3LjY2LTIuNDUsMjYuNS0uMTksMi40Ny4yOCw1LC40NSw3LjUiIGNsYXNzPSJjbHMtMSIvPiYjeGE7ICAgIDxwYXRoIGQ9Im0zNDQuNzEsMy45NWMxLjc5LDExLjU4LS41MSwyMi44LTMsMzQiIGNsYXNzPSJjbHMtMSIvPiYjeGE7ICAgIDxwYXRoIGQ9Im03NjIuMjEsNjkuOTVjLTEuMDIsMS43Ni0uODcsMy44NS0uNCw1LjQ3LDIuMjcsNy42OS0uMTIsMTUuMS0xLjIzLDIyLjUxLS44NSw1LjY3LTEuMTUsMTEuMzYtMS44NywxNy4wMiIgY2xhc3M9ImNscy0xIi8+JiN4YTsgICAgPHBhdGggZD0ibTMyNS43MSwxMDEuN2MtNC43NSwxLjg2LTkuNzcuNzEtMTQuNDkuNDktOC4zNC0uMzgtMTYuNy0uNTktMjQuOTktMS4xMS03LjY0LS40OC0xNS4zOC0uMDMtMjMuMDctMS4zNi0zLjYxLS42Mi03LjgzLS41NC0xMS40My0uMzUtOC44Ny40Ni0xNy43Mi0uMzktMjYuNTItLjM2LTEwLjQzLjAzLTIxLjAzLS4wNS0zMS40OS0xLjExLTcuMTctLjczLTE0LjM0LS40Mi0yMS41LS40My0xMy42OC0uMDEtMjcuMzEtMS4yNi00MS0xLjIxLTYuOC4wMy0xMy42Ni0uNzktMjAuNS0uNzktMTEuMzMsMC0yMi44LTEuNjctMzMuOTcuMTctMTMuNSwyLjIyLTI3LjExLjAzLTQwLjU1LDIuMi0xLjU2LjI1LTIuNzUsMS4xOS00LjQ4LDEuMjMtNC44My4wOS05LjgyLjY4LTEzLjQ0LTMuMTgtNS4wNy01LjQxLTkuMDUtMTEuNzctOC40MS0xOS40My42NC03LjY3LS42OS0xNS40NiwxLjM5LTIzLDEuMDktMy45NS41NS04LjEsMS45Mi0xMi4wMywxLjQ3LTQuMTksMS4wMy04LjYyLDEuMDktMTIuOTguMDItMS4zOC0xLjA3LTMuNjgsMS45Ni0zLjUiIGNsYXNzPSJjbHMtMSIvPiYjeGE7ICAgIDxwYXRoIGQ9Im01NTEuMjEsMTEzLjQ1YzEuMjUuNjUsMi41MiwxLjA1LDQsMS4wMywxMi41Ni0uMTksMjUsMS44OSwzNy41MSwyLjI4LDkuMTcuMjksMTguMzQuNTcsMjcuNDksMS4yLDYuMDEuNDEsMTIuMDQuNywxNy45OSwxLjU0LDExLjQ2LDEuNjIsMjIuOTYsMi43OSwzNC41MSwzLjQzLDE0LjY1LjgyLDI5LjM2LDEuODEsNDMuOTkuODMsMTEuOTctLjgsMjMuMSwxLjk0LDM0LjU4LDQuMzcsNy40OSwxLjU4LDE1LjY0Ljk3LDIzLjQzLS4yMiw2LjEtLjkzLDEyLjAzLS4xLDE4LjAxLDEsOS44NSwxLjgzLDE5LjgxLDEuMzgsMjkuNDYtLjY1LDguMjUtMS43NCwxMi4yMy04LjYzLDEzLjkzLTE2LjM0LDEuNjYtNy41NiwzLjM0LTE1LjMxLDMuMzYtMjIuOTguMDItNy44NC4zMy0xNS45My0zLjE2LTIzLjU0LTMuNDktNy42MS0zLjUtMTUuNTgtMi4zNS0yMy45OSwxLjE0LTguMzUsMS4zMi0xNy4xOC0uOTUtMjUuNDEtMS42NC01Ljk2LTYuNzYtOS4zOS0xMi43NS0xMS42NS0xMS43Ny00LjQ2LTIzLjQ2LTMuOTQtMzUuNTctMS41Ni05LjE4LDEuOC0xOC42MiwyLjMtMjcuOTcsMy4xMS04LjE1LjcxLTE2LjMyLDEuMy0yNC41LDEuNDktMTMuMDEuMy0yNS45OS4xNi0zOS4wMS0uNzYtMTEuMjktLjgtMjIuNjMtLjE3LTM0LjAyLjk2LTkuMzEuOTMtMTguOTYsMS44OS0yOC41LS40OS00Ljk0LTEuMjMtMTAuMjktMS4wNi0xNS40Ni0xLjExLTE0LjMzLS4xMy0yOC42Ny4xNC00My0uMTMtNi41MS0uMTItMTMtLjY3LTE5LjUuMDgiIGNsYXNzPSJjbHMtMSIvPiYjeGE7ICA8L2c+JiN4YTs8L3N2Zz4=;" vertex="1" parent="1">
          <mxGeometry x="139" y="22" width="510.64" height="80" as="geometry" />
        </mxCell>
        <mxCell id="uO-M7k10kkAM9L_WxSzS-4" value="" style="shape=image;imageAspect=0;aspect=fixed;verticalLabelPosition=bottom;verticalAlign=top;image=data:image/png,iVBORw0KGgoAAAANSUhEUgAAA2YAAACeCAIAAADWno5AAAAACXBIWXMAAAsSAAALEgHS3X78AAAgAElEQVR4nOy9169l13HtvXPOOZ3YzWa3ZVqiLBu2bAgGDD/Zb37zn+lnG4aDSNAATbLZYqvZfeLOOef04Ts/aNzptbsZbErQvdjrQWgdnrP3WnPNWTVq1Kgq+36/tx2v43W8jtfxOl7H63gdr+P17stxXJvjdbyO1/E6XsfreB2v4/XN1xEyHq/jdbyO1/E6XsfreB2vb7mOkPF4Ha/jdbyO1/E6XsfreH3LdYSMx+t4Ha/jdbyO1/E6XsfrW64jZDxex+t4Ha/jdbyO1/E6Xt9yHSHj8Tpex+t4Ha/jdbyO1/H6lusIGY/X8Tpex+t4Ha/jdbyO17dcruMCHa/jdbyO1/E6XsfreP3g1ze3vrbb7f93LfkRMh6v43W8jtfxOl7H63j9Vq53ocb/6/DiETIer9+jS+eKg8T/Nf/9fS/zQFo+/Js/027/b1OR3vonb70xyw/5nP1+b37CW/9teWTLr33Dl77r1w6f7nA1Dr/0rR+o/6S7euvCfsMCfsNt6Eu/9b18w0Ppxg4f4a2v8hsW0GLE3/p+D6/DtXrrX32vRzNX+127911v8Fu35eFW5P8efuDhS3/X5vwuD/WulXzrG3nrk5p39Q3G4Zvv8PArzId61xIdHpPD93K8fvfXt9rDd22Atx7Vtx6i72jQDrfEbrczf7jdbtm3DofDsuV2u916vd7v966Hy/Itpql86xdZ/q/lQX7A/XmEjMfr9+XabrcOx/8R13LYnE4n/7YcYLvdvnu4+AknUL/Pn+jg7fd7nVUdMP3kECtYDIT+ra/jW/bGZfnw3W6nD18ul2632+l07vf7zWZjt9v58/V67XA4XC7XdrvlVjebzX6/93g8fC6rYf7Vu3CqDMpms3G5XIf3v91uPR6PfrLZbPg088MPkS4P4na79/v9er1mnR0Oh14Ky86y6Hn3+73T6dxut+aq6pb4ItlTvp171q3udjtuj1fML2hh+V6Hw6E/0RvkTsz/pM/EFnMbfIh+okXWox2+esvusvzOuyCj5a94NC2j+Qa5H/7c4XBsNpv1eu12u/Xg5i+zeZwPl7alCez0jDgnFkSHSK9eN7nb7diE/CZHg5e43W6dTid3a+4084ssx1ZHz9wDuhnzKQ4X8PA/aYfo13CuDofD7Xabx1DbRmjv0NO/9TY2m40e07KMhx6axdGS8n+1kY7X7/h66+bR5jdPh8PhkPWQAbfcLO+UP+S0yvDq+JjxrWXHsl05wuzYxWKhc2q32yeTyW63i8Vi2+12vV5zV5y7fr9fLpcnk0kul8vn84FAgA/Exq7Xa6ylx+Phk9m08ib8Vx7NshvZ2z/U/jzOmD5evy+XHLysgDwrvucQgsjL6n9NSszkBnTOTaxpOg9dnFIMhO6Ef7jdbrl2eRcufm6CFdmdtwZ5JoQCU2IawFu73W6xWLhcLtyYxbubX23hWuQRLcBFEJbnFf7jPwGetJ78Dn+y2WzcbreFcBKqk+M0344JfSxw3ISAWl4LsyX4AmTR55iv7xt4HdNPCHOboHaz2fz/sfIDprHb7dhirPZms+Hf+i4LKn3rZTJeFoRxSFRYnsLhcGD3D6lWvej9f79M2G3uMbyFueB66YeRhr5dq3F4lPQiLMjJRKLyr/qvinbkoc0XcbhQh7hcp88S0QkUKrwE3bJ7FcPwX+VN38UdyrtrJ1hshXkPfJG5i8xX863s8hFN/vaud51NvTvTXFistCXy0da1AMq3xh76FkFJ9ryiNfYesR9gzuv18pvz+fyzzz778ssvJ5OJ3+9PJBLhcHg0Gl1fX3c6nUAgkEgkotGo2+0OhUInD1exWLTb7fP53G63e71eh8OxWq04uQrPttvtarVi22M/tW8FW//315FlPF6/R5dOoHySMNx3zA3p2FugjD6BIyR8ZiYOTCd0CBr4KNMRWpDoYQAqDypmAgdskmGm0VGcCnA5pD3krS1ZDwt7qkfWHQp18b8yH/wnEa4mOcqfC9uZFkcYhS89DNnFmwpS8L8mWbVcLgl/4Yr0X+XmTZ7ApIUOKV4LKtWCgIz5zEMeGvPKM/Kl/I7Fo7wLLFo2id6jblWbSn9i7haFLub9s7DiJMwH1MvS6xDgJsawUJUm9NH2AyASA+jZtZ+BUPghvX22h3lAtDg6KeYSmcfWfB2ERna73WS7zZMLTWKy3bIDuMNDJM0N8ycWEkgZBn5TXCD/FlmuT+PQWahry9NZdrsZXx2GhYc783j9Vi/LYTEvi8Uwt5blLJs2WUG1xcCa1lvRtWkH9JsYN9PsY4jq9fpHH330L//yL8vlMh6P53K5VCq1Xq9rtVqz2Vyv1x6PZ7VazefzYDB4cXHx05/+9Be/+EU2m3W73eFwGAyqFMR0OsWUeb1en88nL7ZarXSQoeoP+ZH/wXWEjMfr9+XCA5nezmTOLMnHQ1/1VgbRgjJNQy8LcpjC4NNMcssCzg7T2ebPTdflcDhQqIhjM5Efngyzos8xs4daEzyc0oWmY7Mg10OwayIJpfv14VolvKmwiOlNTfDBnSi5KQfM/fO35MctHIxS52BE092K+zSz6of423xH5uuTSzBfjYWs0uObXoEYnd8UqjjM85ob7JAVswDHd/3bjGHMp+PZzRS/ue0tj29ypUqxCTVaAqe3UtEmlJQjMW9bQFa5PL0jS/TyrRIObkwZNAsxf3iZa2IhaBUEmrj8rYSl6dTN0Ogw1OQ3SfEfhnymJkzHxNxR5uGyPNoxd/c7uw63+rtSDSZe5JdNaayJF9/6ge8Sn5j2xAyQTNzmdDoXi8Xo4Vqv17/61a+ur68XiwUHeTabTadTp9Pp8/nC4fBkMlmv19PpdDgcdrvdyWSyWCxWq1Uul3O73ZFIZDAYLJfLUCjk8XgWi8VgMBiPxw6HIxaLXVxcnJ2dFQoFSYMsxup/fx0T08fr9+VCn6RDK5dpxo6WmB7bLbZD3INJVln0dvyc42rSLZYsg3mZWbm3iqU4nEJRgiZmDGpeeiKlQYXGTKRlnnbT8JlhrsW0CRIpzyIkjftcLpf7/d7r9eLL5S+RVErRBSJxu92r1YqMPFiKn+PClaY3+SSRN3yg6U3FhDkcDnLxbrdbMjJRWV6vd7vdwkgBpiELeVmW5Dv37PF4WEDToAsLajXE4QkHu1yu1WolsvOt0sB3pVAtNBIrLGhoxjlmoGJZDSlczRhDXKD5+syvY00OE69CgeZmM8EWqbHlcsni6PYA6ywav8zn84oPuTcz62dB4WZK2hKZ6MMPDY7JXJoqFAtuM5lCKSb1irfbLZvEFIya4RkLi1aYn/N1Qt7mSmrrWsCrmfKW3O0w3WH/79fRy/yWLgkGzMDAQiXKOJhwkLjXFFdYoujZbLZYLGw2m8/n83q9drt9tVo5nU6v17vb7Waz2Xg8huHbbDaJRMLn87lcLr/fzy90Op16vd5qtebz+Wazmc/n/X5/NBotFotarXZ/f+/1esPhsMvlCgQCoVCIXPN8Ph+NRuPxeD6fcyr9fr/P54tEIh6PZz6fc8Y3mw2Ga7fbzefz6XTKfebz+WKx+OjhOj8/f++993h2n893TEwfr//XLrOuQt7dzO4dkk9mTkr+WLSN6e0sYaKZOzh0SCZwNNO4ZsWMeLX1er1cLrEmYBd+IrmVMmuUtgDX9Dirh4tP9nq9LpcLdZ3b7TZ9p/kg+mocMx9Okm6/34dCIZDQZrPxer0Eo3oEn88nE6lnl17N4/GYCW7iYxUZ8At6FpDHYdKH98jNmyCJCxg6HA6DwaCyotyG1+udzWbE5aYcUFqc/X7PcnEnKsswK6X0V0jFRRUfsnoALxFgZhJKd2uGK1yW1JWlrtmMdg6JPSntTHm+qFzzjUg7YRE+Kv7Rm4LDtiioTEiNg2E3AgF1OsBYLpeLDUzBTSAQ0BeZ0EdgzrIDTSJZuJC1XS6XvHGOgHl7liMpry8EYInNzHDIokRksx2W++iA88nL5XI6ne73+0AgwFNL4CXILuWuWaTFXSFHM7lG3ba2qxlbmpvteP32LoUuh4zjoSU3gxlLegGMOJ1O4fA2m02r1RoMBvv9PhKJRKNRr9c7mUwcDkcwGFwul51Op9lsDgYDzHUikQg9XPF4PBwO7/f7RqNRqVRardZoNAJ9Evq6XK7xeLxarXw+n04ukTxGW9sG6+33+9fr9Xw+h7Nki+52u36/P5vNzGOy2+0qlcrr16///d///ezs7Be/+EU0Gk0kEodG7H9zHSHj8fo9ukx2Ddu9XC4XiwWCX3kFuVWMO15TBINoADPfJEJCMuHZbEb9GpzWer32+/2hUCgcDlPOBqMmChNuTOWleEe0zJPJpNfrcc/b7ZafEKGK1OT/JhKJTCYTjUYh+fb7fbvdns1mPp/P7/e73e7lcjkejwkuyUeAD0KhUDAYDAQChLDc4WQymf3mWiwWm80mFArlcjmwF8mLTCYTCoW4T7/fH41GHQ5Hr9dbr9eBQCAYDMqbLpdLbmO1WmGPPB5PLpeLxWLL5bLf769WK2BHNBr1+/3j8djj8bjdbr/fHwwGefbZbNbtdtvt9mQyCQQC0WgUuhEAMZvN+H1gn9/vFx0IFqzVapvNJhqNBh4uVpgQX5wi7kHk0H6/Hw6HrBIcAEqg6cMlkCFZHhki3MNkMolEIhcXF36/30zfcyIOyaHDVK/ptNhFbAOCB4IB0t9sSFNlLzxhKWEGwVvyawKF/NwMS0zaTNECqBrvImTDSfF6vfP5/NWrV61WKx6Pn5+fRyIR2E32gEnQWtLxCqssd86BIlGA0j8QCEBjA9wlz7A0ELHU9xCimNl8i8xXAn+bzbZYLLQ4wOL5fL5YLKB/HA6H3+9nF02n01arNRwOYVxisZjP5xNHyMHfbDaDwWC1WrFoLpcrFosFg0HEl7I2lKyaAFqVqhZ1smQbR5bxt3cJJh4S+euHy/QUnAj+ih07HA6n0ylhVbvdhhqEtMOAANE4FDrL4/G42WxiRb1er9/vn8/nNpstEAhEIhG4Qz4fA75cLiEIMexYUeI0h8Ph8/kwF2wk/sHmZJuBSiU+0SfjQXh2n88XjUbn8zlm9u7u7vnz5z//+c8TiQQuw9LZ4H98HSHj8fp9uUxXis9YLBbtdrvX64lP0j+QgKzX62g0iqeBd1kul1B0kCU8GscSTwAGvb6+rtfr1Wp1+XBNJpPpdBoIBNLp9OXl5WazAUItFgushln4wnl2u90AWZBHp9PhPBMRzudzfBvPMh6PJ5PJfr8/OTl5/PhxPp93uVwA1lqtttvtCoVCOByez+e1Wq3b7cZisWw2Ox6P0b54vd7Uw5VMJvFt3HO73R48XMPhcDwebzabi4uL8/Nzj8fTarX6/b7L5cJ+8VGlUulHP/qR3+9/+fLlcDgkheFwOCqVSrvdHg6HkYdrNpuVy+Vut+t2u3/yk5+cn5+vVqvb29tOpwMq/dGPfnRxcTGbzbDF2Wz20aNHmUxmPp+/efPmq6+++td//dfRaFQsFt977z2/34/xHQ6HrVYrHA4/efKkUCiAJ7hDj8czHo9vb28/++yz8XhcKBSy2WyhUMhkMphj5cdjsRhBPEmc/X4/GAxevXo1nU4Bo7lcLp1Ogz6bzSYbxuPxAGoXi0Wz2Xz58uXr168bjcZoNHr27Nnf//3f//mf/3koFDJJKaEQcb3K46uYRphguVz2er3pdDqfzx0ORzgc9vl8i8Wi3+8vl8tgMBgOhxMPF58vbIG8CSYjGAyy581ktFwdkG6xWOBL6vV6o9Fwu92Fh8vv97MmtVqt3W73+32bzZZMJs/Pz7kZs8RkMBh89dVX//iP//jixYtEIvEXf/EXf/M3fwNwXC6XFv2fyeirWpkQSF2x5vN5s9msVqs8r8vlev/99//wD/8wEAgofgOGmqXZllI2E54SP+Am3W73er0mfOr1et1ud7/fh8Nhv98/m816vd58PhcOgP65vb2tVCoul6tUKrGFOp1OtVplqZ1OZywWs9ls7PlgMHh2dnZ+fs7pu7m56Xa7Ho8nGo0+e/bs9PQ0nU7j5gGXZ2dnkUhEm4HHdzgc0PlYIdkKU/h4vH4bl9l1i3+zM/f7PZZZ4Tp4jtc0GAza7Xa1Wi2Xy/1+Hws/Ho97vd5yuSTmgVxcLpfD4ZDfiUQisViMcz0cDnnvhKnsPSxAp9OREAIwp6iy3+9TJU1CGUuyWCz4HHwKDzWZTJQfcLlcUPWqv0a3Q7qZL1JlTDAYJNFklkvLiP3vrx8eMr616YDJFZs0qan1UT7CorO2xLjm57zrKL6rf+9hwcRb++VaPuddhW+WCNhUWH/znViEL9+dNH7XLx+KaSxf+tb/ZPmrww+0XG99EF2HL+itX23xFmYDOSWb+P3NZtPtdq+urm5ubnq9noAgqVVQ2mKxODk5wVKDCGez2Xa7hV3QPvF6vYlEgp8sFovlcgmeaLfbeP3hcNjr9ex2e6vVAvwhJZH+iUwWPyGF5/F4IDDm8/l4PMaV8p/4NUgvQADOHkWLUnVoyLbbbTwev7i48Hq9lUqF2/N4PGdnZ2Cs0WiEm5/P571eLxqNlkolZWknk8nw4ZpMJqC3Uqm02+1GoxE3Rm8wFnA2myWTyWg0WqvVBoMB6NNut49GIx58PB7zUbe3t81mU8vlcDhub29rtdpsNiOxbrfbe70edvP09JR0/GAw+PeH69WrV1CtoCVsbqvVuru7CwaD2+223W7/+te/Bk988MEHT548GQ6H//mf//nxxx+Xy+VEIpFMJtPpdCQSgUScTqcul+v8/PzDDz8sFoubzaZardbr9dVq1W63nz9/PhqN2AYnJyenp6c2m+36+vpXv/oVPwyFQvl8PpFI7Ha7crl8f38/nU5BV7VaLZlMlkql9957j7UaP1zCuCiQZrOZcprKdyv5Ph6PG40GuvVAIBCPx71e72g0arfb0+k0GAzm8/knT5789Kc/jcfjcITr9fr6+vq//uu/rq6uJpPJo0ePnj59Go/HB4PBZDKBLYCTSKVSJycnkUgEErfZbN7c3Lx+uEKh0Icffvjzn/+cl16tVr/88styuVyr1bbb7cnJyc9+9rPLy8tkMgkTHIvFhsPhJ5988stf/vLf/u3fXr9+bbPZXrx48erVq3/4h394/PixpT0n9Ib6DnJC+/1+u90GlkGNDwaD169fv3z5slarjcfjQCDwt3/7t8vl8uzsbLfbgVnBaipVloZB0gIuCHtSfkDDVCrV7XYrlcpkMrm/v6/X67vdLpVKJRKJ2WxWr9d7vR4nCwi7Xq9Ho9F0Oo1EIuyccDjcbrdbrRaOljhN2YZms3l7e/vpp5+6XK7NZgOIhw1tt9t4X36T/OOf/Mmf5PN5VgYHPxgM0un0e++9R/kC4jOJUixFM28tkJLN/O7gEgrKLC2S6NnUP1igv6VGyvxATJzFw+qXLU0KD2/1Xd7EFLpQEa+GAId/+A0uybJQPL70DGCpTqfTarXg/0j+rtdrzvJutwsGg4RtgUCg3+83Gg20hmBBxIioZfhDFDKsA/1uJPJBfchrJV+kIFPID3qCVjikdwT4yJywnoRDyKnJ+eCPeDQoQw4vj8mHyAexA2ErF4uFx+PBI9jt9lgshrtRxuCtTvk77jddPyRktJSySvNEisQkh+BUYVyB57PZrN/vO53ObDZL2gtuAOeK8pSfyL7M53Op+MGaAA7+xGwJZrbyknKFOAC7DF0k9ojtyOZWryOfz8ffmoWKfKN6bErppXNryp4sGiD1zlUoICG82o5YzqpZzWoaHXI9YmJ4FiWnzGoPU72hDqVm4SRnQF8kXYUslFnha5ZlIOZT1snsUy1ZOrscbkm6tNFo1Gw2CbyazSa1Y4FAAHoJQ2+z2cQp8lHj8bharXLb4XCYWgqS1CAkYrhAIEBGgKOF80smkzA3yhUqtY2iJRAILJfLdruN4iT4cEGZsJLaAGwe8o+r1QqO0+VyyWegUBwMBmxIj8cTDoc3m81wOHS73f1+v16vyx9PHi5W2Ov1JpNJ6E/4FUi+09NTu91+cnLi9/tBe81mczgc2my2XC6XyWTy+fybN29w1diRxWLBapDBXCwW6XRaLWHFgXEqh8MhQTkEKuQlr9jr9Uaj0UwmEwgEptPpdrulWC8UCtXrdbvdPhgMqtVqo9HACIKkU6mU1+tFykOzSRz8cDgsP1xff/31X/3VX8Visd1uR6qatHij0Viv1ySPxuOx3W5PJBJfffXVxcXFfD4vl8vqRsHe4Jen0+n9/T1Aczgc8nZUcINJFZdAyvKLL74oFAqtVovTUa1W/+mf/mm/3+dyuel02u/3u90uOU3MeqFQkGRCyGM+n0O7Xlxc4L1wOfTOuLq6+vzzz29ublKp1Hg8htsul8uVSuX+/n48Hn/22Wfn5+ePHz+22+3T6XQ2mwn022y2UChULBYvLi4cDsfd3R3wtNvtLpfLFy9efPzxx3/6p39aKpXK5fKLFy9gpiGGf/nLX6bTadDqH/zBHwQCgV//+te/+tWvyuUy5mI2m7158wYtwY9//GO+YrVaxePxWCzWfLi8Xu+zZ89Yuk6nc319/dXDNR6Pz87OPvjgA84j54gd+8knn+x2u8vLy8FggIPEpDidzmQyCYO+3+9jsVgikfD7/bA+eIFarfbmzZubmxuv10vePBqNcicittF4YJMXi4Uy2mjR1ut1OBwOhUJQPr1eT+nm8XiM9cPkwheyyYlFsWlABLYiucjFYkHFg9frvbu747BQGLFer7/66qtPPvkEA5jJZJ48eYJPicfjqVTKVGKwYYLBIMqT7XbLFyn8UJ9UuQBTzSldaa/XazQaV1dXjUaDKAWry5Jut9tGozEYDEjEw7LvdrvBYMAeZvcKvjscjsvLy6dPn6pBOhuPQN1utzebzUajEQwGS6US4ldsFM6IvK28lVmBh8teLpeVSuX29jaTyWSzWa/XC6duugZJffQWzJZhZn0SpSQ8oFin6XT64sULuGSoaIgDUQmYNe/DZbPZRqMRxjYajdrt9k6nw391uVwAD1AdgSKvQBGU4B3/IA0CNmAPoNLhPWIfeAWFQmE4HBJ+YL5Is+CjKZTh81kWwKLf7wfD8LHAiVAoFIvF4Cxwl7CY/X5/vV77fL5er/fRRx89e/YMiQioADNuFgJ+X5j3w0BGwQuVofGa8cHL5RJJKStOTo1VxtajUEGbTORKaj8QCGQymXQ6nUwmp9Npr9fD8cTjcXIxnDE8n7JFCqpMzY1kN1KZ8GIIf4WZMPFmAhScamZnzEZfpr6HEyvspZ5wwvJSlAtBmtMR9AplOywtJN7aBgIYRyjDviS1xL7X21F1sFnkAcUFLFb3NXaklpEdDyrV7em2sYOKzlerFa2hME8C5UL5nFsWAQke999ut+Govv7668VikUqlstmsy+Ui4uertcI0FIAwgD3itEj5AZ+32WwymQy2bDAYvHnzpt1uu1yuVCr1wQcfFAoFkYicz0AgAOIUIlRrOlXM2e12UhtkIVlkp9NJh1U4IaXIZV/0+Movu91uWCsS1qAiPBaviWQcQFaFGnAnqLBdLlcoFMJdsZJ8KTsBQwbU4xXj9vx+fyQSCQQCuHaFsOTE4Wksin45YwAoRw8rZnZsBhOTrzErcihQ5d44aLw4IXjw/WAwQDRGMohjDtFLPA1WACWzJ4fDIRpQ7sFs3KMCkZOTE+AXTSvwkSK3iNEpYHz+/PlgMAAEbLfbcrnMX8ViMU4KxmqxWCSTyWKxGAgEdrsd8FrBHnCEDQ8s9ng8/AMBZavVwtnzylDXAXOhxvP5PBGFYul+v0/OHYDFAff5fOxe0KHP5zs7O8NJkBpjneFXWq3WdDpl3TKZTLlcvru7a7VaZow3Ho8//fTTSqVycnJCUJF8uG5vbxuNxunp6Xa7DYfDlUrl1atX9/f3gF273c7doqM6OzvTPddqtevr6/V6XalU8JGQBV6vF+0E2zsQCJydnZ2eno7H45cvXzYaDXSWnU6n0WhsNhtw1cXFBUiU8A+ThZrT6/Xm83m8Mk/EKeZsamzGdrsFDWikDYEENj8UCnGuQfP4BRhuKh5Uvc6JI2mIweTRAAGTyWQ0GgWDwdevX9MAhW2mxsuhUIjgNhgMskuBUFykQcvl8tXVFUuqmHa327FJUqmUw+Eol8s3NzfD4bBer9/e3gYCgVQqNZvNMHow2cQ5hI6RSMRms3F73JLKyERq5HK5i4sL2DjcYjQaxa2Mx+Pr6+tGoxGJREqlksPhoPCC3/T5fOQEotEoWnBcD+9osVi0Wq3nz59//PHHNzc30WiUSt5nz55ls1mfz6d9qHopUZ6s/2Aw4HR3u10o/3K5TEpEEg7MLEIdAl210cZooCZEjM4KsAMlOWBB2HIYf36iEnuznIt4HqxJjDcYDCD54JidTqckxWpB4PP5oDDYyYQx7ECNEsCBqkhRU8G0t9mcgFqmyHDe2Y2YBWxgq9X6j//4j8vLyz/+4z8+OztTXltTr/Dm31dr+4NBRpNPltXGfyNHE6Qga0ZREjhS54qoWoqxYDA4GAyI7cjIVKvVVquVy+U+/PDDVCplDhZTnaA53soyC0Q4gHeJ2B+Vukm5m9WXIinV1cLkpQTgJC0H7PJcasss28TO0J0AK8VdcTBEU6tWlBOoLiESw/IgqO7AZzBhPp8P2lzu2WwGIWEQaU3CTZ5UERg7j/sB3GBVOUg8HRINtW7BtyEkh95nj6qhKEcFk7rdbgkbIALhjDnSkK/ITe7u7iaTCa3wsfiEH5xwVMlaEFMOBZ/E0QU1tlqt6+traiNQn+AGQHvqHUO0ypuFjIRfBB+s12vyGiQ+OOGgQ6Cn7AXGBbA1n89ZATIjUCMQM6jxsObEf6lUarlcRiIRPpb1kRoa8GRmo8wJMTpQJM31+zwawDccDsdiMb4OYI0nY/HFwXe7XbHLZjUDLw6lFyIB9gkcG2CI1jl6KeZEBP4deoEAACAASURBVGpyoXAkM1CzIcSIkUgE8k8vhf3AoK2zs7PLy8t6vV4ul6fTKUuknBoo0Ov1SrTOcpmNJzn7GCLKt4lX2cBYMOiowWBQLBbRCcBWqvwCKNntdrfbLTcMaADgcpqw5mbdt9rtah1wPxpAEggEKDYSK0xnDfkJoWqv19tut7ESGE+wviIHKSum02m9Xr+6usJgtlqtarUKpWemKSeTiWL+xWLR7XZ9Ph+Az263397e5nI5kBx1VKFQaLVakZhGsEVaoNlsQn8qicap53+hVfx+PwEh9SupVApAORwOKbeC7a7VapBJ+XweAIeWkZNFTpnDIsswm83MtNJqtSKAVGm8MjmgPbNdDlIKkpiqKMITie6SyIx3h42dTqeyNuSpv/76aw4F1pVvR7EaDocxj8gY0g/X6enp5eVlKBRqNBrPnz//8ssvofPJdPt8PjSaQMxAIABjh2Fn3+IIJpMJGRu2gTlNDs2JUn/sc6Hn6XT65s2bL774YrVaQV8FAoFcLud0OtFXVKvV4XAYCASy2azT6cRN01CGeJIxd/l8PpVKoZ8mLlqtVjc3Nx9//PFnn32Gg6jX6+12u1KpRKNRbelcLkfdYafTabfbeDGHwzEYDBBVk4NCC1ir1eBH6E3Dm2VPYrR1oISKwP1mXaOKqaUc4HSbBTQ4Iz4EFpAbA9Bz0JCJkwKC9gN0auILcaO4GFXFsXTCoNgQjDmddyDF6LzIp5kZfEWqRKRQbOqTBZD9+uuv//mf/xmBB20dzey58o2/I8j4Vs2i+pORlmI1K5UKsmi8Jpyw6nfUUxcIgrHDD7E1b25uWq0WseNut0PcTSckDCVhH76fLBtNjHBCRBhsX36BkItUciwWE7qHcpBFU+sycW9AXqIW9a0QjUREAubodDqYHp4Fx4lZIT5QgzpodkgaHofkJkQaEbz0NBgvMI242OFwSHqdb5/P50Qz5LaYPkQGkxVWSLTf7/v9/mAwgHKg2LZYLFJvC42PfGq326H8ZVtD2IRCoXQ6HQ6HwYu8U5aOo6JiFJFkpDOw/sj7oEzS6TROsVQqeb1e9OaQE1AsfDWLrA/ESpbLZUBhOBwOBAJaXjGpvB3Vz2JQsBqAXfF55Ep4XsoqyfKgS2OPUYxCdMiLhhHEhJkT5Yk42cPqbg1LBGqHYRJoBuolk0kifrRrgUDAbrejLyREZjcSwKg4VyyIbgYkEQ6HoTrYhIoc5AjZk6BGHNtiscAdYs15HMw6Xrndbp+fnycSCU4KYFS9Z4kAxeJjDdVSEYsGr2lWBIOleBBJF9TfWw9rilU0a1gCD5AoZU/Yd/Y5XyrpArcBBOQOccyIjdB0ssMBfDqqquMZjUaFQoHNM5/PY7GYHDMLyy4141h1UxPKB9YvFguIB7YBXBf2jVBNkji9Dv4cOzYej9mQXJTAi7/nSTl6nNDOw6WKLpXveL1edjtoW60AOL+oRdm3HE/21Ww2I4JCN4bbM1tQUVyvCJzoEQLP6XT2Hi5kFeyiTCYDmU1jAWSd4/HY7Xbn83m2GVpJApjJZLJardCNAC/G4zEbnp9I+KUTYQaWGDdtJAIVMbKYXLg9XDtEMgrdaDQKkQ+nBWyy2+3xeJyAHBCDxAUWgBwFAmhV/VOjTY2FzWa7vb2lkj0cDjcajVAoFH24yEhQZeXz+XArGD32IZ2c1+s1Jh3zBZjmW9jMvF+abWHrVC9I2IDlR5BDXRF+BEOKcoA8O0eDr+Yzh8Ph1dUVrC0OiBis1+vd3d1BVOMBx+PxV199BWh2uVzBYDDzcNlstmq1en9/T5wG2aZyFvURGwwGZDmoZ5LiC1st9k6htRILGkNgSjylo8WuKoSAJVHwgEOBoCHLTFU1AhiMPMIDFVwimqK5hF6BmmBQxietl2hR7AbO/XDAhOmzON28Mk5fMBgkRpIvuL6+Jun3s5/97OLigg3JljaDh98FZLQUr2j1yTMiGFfMjT9A+oDhUKAPYbNYLKhFoorN5/MVCoVIJLJarQhHMKaXl5fBYLDb7bKPOTYkNdrtNlLxcDicTqc5MLg0sjPNZnO73cZisXw+HwqFKIblvQLD3W53r9dzuVyFQiGVSvHJ1Wq10+ko6InFYqlUSj4eGMc/bDYb0RWxOJtGRAhwQY4Q/wFJA7ZmyxLlAGrJ5vv9/ng8zuHhAHDMyEvy50T5xA31eh39EFndaDSaz+fVDs0M+nk72+2WfBkZDdMyUmUWDod5WFJFQL3ZbIaXJbOgKAeki3sA/rJEwCO/339ycsKzsBm63W6z2eQITSYT3k40GsXWYHdYW+rU0G14vV7l3XK5nJpcQJHCOQUCgZOTE1QQqOs8Hg9SP24Ag8J9snR4C+I8ODC8Ec2xYDWwJuFwOB6PdzodrDN7W7kVDrz2Hhw5nkypZBrZUBydTqdZRrZZOBw+OTkBw+H+p9Mpex5EBeLRV0gtyg1jxdhdZC7q9Tos72g0osqH44mfYBfx6sETIPtAIIDngFNJJpNwujc3N4BvXhB4CDAt7ytoCI/IGwG3Ec9EIhGKGXl3/FydLCy0sY7YZDJptVo+n48GuWZ3bjUFJKbnRbBb2Ie8biIoOiJxgd5gVlACwV3hYHA/fr+fjBVM2HK5ZHHolNHv93lZfJr0T4jfeRDgPqeAXAq3JFI8EAgUCoVkMinfYEr74SbNaciquWbbw86qTQweRW0vzbpvdgVQQBK6TCbzwQcfRCIRJGvEb3wOmX2oZZhFdjV7IxqNxmIxEkEMqyAyh8uHBAKKYQf4EASdk8mk3++/efMmHA5nMhlNtiDhSF0ziJC8bbfbpa0BbaQYp5bNZqmDGQ6HFIpB9tNMCiCr7QGqxviDtoE+xKKgdqIvEyiIF1DWBeyCceM9oqNAoseG50mBuUB2m80GgCbhxsoDUgm0gKHFYjGRSOAs2DmDwYCzw1GdTCbb7RZVNx6BkDIej8M5kW3gw9WYE5SjGAn5B8/idDoJ2kGiAOXhcFitVtVxiScaDoeKbVQEFgqFHj16FA6Hu90uBcgEb1C22Cs0DITlsVgMDYDKjEajUb1eV1KO0A65M98OaiQCB3kzYa/VaiFvoIoAZchsNuNJVeeg7BzBp1gh5Q0kxATSKOlHMyZOOqgOKpf3LqwMJawkKpuK94szJWBjB7L4bCd2At6KV8NbBkjwgjCSbGPpzfSkMHRQkvK//X6f+kt89+eff/7FF198+umnf/d3f/dnf/ZnPBGwzSx4+l1ARrMCGqQPeqAfB5UBSJjR20rtpGIR9hwKFaKcZrM5n8+TyaQaV0JxYywKhQKE8Gg0gtKAsmJLwS8SeuJrQ6EQWUJIICUX+IXRaIRAmOOKS2C78D5uHy4oQLTS6XQ6m81GIhGUeaptJPKA+4U8j8fjBLXgWjh8qj041cpNc1DZ39gdtCbCo5gzRUugWyAsn6Pu8NgjPCInn+2eSCRQ76EN59lFwlMIRk4B6EalFcY9Ho+vVivqy0zZADyTKBBx3RrPwLKrzIUTGAwGAXYcJ2l6hsNhu93mHWHyqEdhn5BYUX8NXNFwOISQ0J8AXJxOJ7+DToXboNtfqVQqFovsCiX7JFFSb0VcODw/OJXjymHjAyXX09A/aRIgpUh6ksEHU0aj0Xg8zjabzWadTmcymWSzWRgREve4T94mEbbyO+olpLQ7C863YIsh482xK9KkqvM5j0BCDX6IBVmv15QfqfzFHK0h6bRK0MCsEJPm5ENwErbeUogmeTtohnBZGgZOGcdESRypA7kNsofQ6vhjXSjZCWl4hPDD5fP5Go0G3hHxK5kKsIXaW7AzWS5AIcsFecO6cRvYNFJLeBE9LP/APW+3WzLXSs0LCqMJ4WizepwOrAfcMwEzb5mENZGSphqK81ardl56MBgEv7JLpVrZ7/fpdBqmipcFi496Lx6PU24FRA6Hw3C0OEL2Gzlr8MRkMkH9gmkCNdKpjk8AhdNsyDwXGEOQNxi3VqtRsopEtdVqKZ/I4wNcePWmLigSiSSTSa/XC9Idj8dK32uekKXJP+ljEKGQNJ5YlLCqA4lOWUNFEbgDVhiEgeSDk0i4Bbck9SSyDd4m9fWsEvwfxxwy3uVyRSIRMkvqFYDVVTk2cJnvQiMLUsfHccz9DxdW0TJGi+1EpgWbCSvhdrtxqbgnMD0I2/+bCyaP+hWyEyS1uHm+V93HoELUd5BAHfMlno9zx4tghfFWDoej3+/DhhB7KBw12ysixIJO4p6RIKsYQFOdBJI4iZJgyTepBFsmHYYFaSZWAgYBlC94g1AEeohgSZIGdiAS0t1uB23JTgY8EHWoh4aMJLe9XC4V22NqVKrL4YWhBEkLDwj4cnC8Xu9wOGw0GhyrWCz24x//2Jx/c8hi/tYho6JhaFu6xC0WC6hjSfTYi91ulzZ7Orr4XSwgqJkNAavEGg0GA/KqnBxQmtqgk8tnOSKRCH0xGo1GIpHAzprEMtQ6/hIvaM7Cl60hP9VoNHw+39OnTwFS2HFOj6yGWa2CWyKjGggE2BMkMogSSJZB0mBQVKGsnKbKqJXQUWkVOwl+EcUY5FkymYzH43ScR9LrdDqJhygRKBaLyOMcDgf0IalGhMxEjTQwU1Ydd8ttg9gajQZCIjYiaA/nwVJIUQAU4LWy+FR+JRIJjK+2BN2eqTCFfaHISUosdpdyPewH+h2waJSD8LD4Qr5rt9s1Gg2AKfQShCvZQBxJOp0GWAMIpJFnG7C1CIWB6fCIDC9BDghnxnuEJ8OOY3HoBYhpo8w5n8+DDmEpsI+4JUDker2+uLhAm4VZgYTgdYNFotGo2ugIrQIZBQ0lSKUKmwAgnU6nUilZCsjL+Xyey+UAx2bbS8UqAP37+3tkRsPhMJ1OY0yppJE7NEvy+QexGTCUIybALQkKxo4UJIYVLIg7BIXQw1LMJTDXQuxp6Aj3o3y0ajYhwt1udzwel8wXr0ZSCe+o1mjEq0BGiHmBV5UfKuGlVCaOClUr/sNs6ondI+WqYX1KJFEaDyGBwDQcDq9Wq2KxiBiAhuqoHTjFLBdvk88Uj6h6czEoyWRSIha5dgjv4XDI/hEa0FtzOBxAB+6T2Ea9hdW+VAoZFpzMu5r1gOnNZssqMkALEQ6HSSmolZVGAaEXSiQS8KD1eh1qh+Wi3xPQFm0JCjM1OhZiBmGr4b8Qntormhy5z+dDRY11UmEBuV0z3YkhklCSsiclfNU1GvaLHcizE9xyHFCX4kkR+amvCJ+Jc4RRxiAD+MBVsOlwzNjndDqNeAZrrJpFjBUWVfiJqhoucCqGRaWHOOt4PJ5Op4lJ8FOYqUql4vF4uEMYImI2aE5yMslkEsBNUQ51NuoHJAjOunF29O3gNp6OwIP2XhJ3saOwIZKrilhV0SdWVBSPOfffbPGIhSQhQDcJToSwoKhETCW7QhgRQCklJXCFyAoYp8BeQjjpcdVzF9cM6SPKmT8BQ3MM1TwfnQatQoDpMKlSPVar1Y8++ujp06dPnjwJhUJmXY6GeP1OISNIi7pmj8eTTqeVEYD/VHIK16JKH1yaaq45QvwnUAvvD9SFjkHdAQBh1M3xsrFTBGHz+RxUxIeTjAAsEqRKWajEIiYYegASnkw0+wkfqQwR4Sz7HhjKW4TMkKFUIapIEdEnah1MIC5lA0omDo/m+ktUK3Wz+F1uHpBNzkKfzG5OpVKEcYAM5ggRhkLfEip5PB4ywmRjFUcScbKq2KxUKqUJCrxB3A8bEejAcVUlI2+QxBPlsfCvuG1qgTHHqB45GCJ9fT4fL4JFQLdB81J4GpAf2IjV4LXyfmkNnU6nASLcHvV9oicF4EilcfbgYqnpUWcoPC4PBeUJUldvIKk2t9stDQ7prgf+APal0+nZbFYqlRC78PokVRRzoPQltAcNvQHrFNYwUYpZVewxAB//UEEuWbxUKsXxgdsAinFkOBESp+LJIpFINpsNh8O3t7e9Xo8+kSq78/v9GF+FZKqsZ3+iH+Cla3aOKhJAJEQmmtfC/WDQSeexGbDR7FXAPa8bD0rmi5vXuwPAqXUFNwkKRPghWoIaBeAsG0aHRUop2FziNPAZsRAmW1JjLD6nGPjFmcIiEUhAYUpWpTQW2EKFGuy0QCCQz+cvLi5wnKRluEloMME4ol9lEnE2Ytr0asT2QZ9gIng6FaTLV6n+ifeLAeTtUMZBak8AWvVYmEc2G8w9tSnY/1AoBAKm7wEjkWi+CC7Hr8PLEiyVSiUYNZQAFEeyE4BZrImSP9gKmgmI6CXypA8rmRbpK/CvBDD8r/yaKC49Jm+N7QRuthTEqHYNqw5ShL7l/JLRggGhZRIUCScOu6pAyyzfkXOBEcA18Psm56LW4qBVdZVSDYTf76eYBmyhTBqr5HK54vE4hUfw7si6wNAQV3JAsPJqo8EZF3mGqeRo8Cy8d5VtaVuy/+GPlZfnScnVijfhzOIviPrYn+qGCxLlxAHs+FsIfggghXyoWfgTiEOODxhO/AUGk+MAM8I7Mvvkc444HZwaDho3jCnG1CAYIHKDXMAj85mwEsAGDh1gdDabwaqy1BwQs9gLM66qTZXz7vf729vbzz///K//+q9RvnF931Y7/3PIaE5GUqygRmKAXNVwyDKyLpxkdoPsO6l3r9eL7tDhcDx+/JigkG0HDB8Oh1ACvDDObSgUms1mg8GABAfdg03lMvR+v9/X+DWl/5Ui1zwJNm4wGCQwQm25XC7JNWPKsUFYZxh7SXlEI4ungXok6cMeYtNI3QhRqtJX6Zxk2aUZF2mhQy7QySAQTvtwOKQ3AWIjAO7d3V2z2YR03O/39/f39HNG+gnuUZ8X+l0D2ZUjgInJ5XKFQgHlHM84Go1o5CbVP8iSgjuM3XQ6RQ3Z6XSSyWQikWAjqVkGKMrn8yEpI+kAWj07O6OVoHSBeFkcvIgBdcwy2xzA4SUSiYuLi3Q6DdWPFUBwZo6kg7ogI+B2uzOZDPWb6s3BpoUmV5cvOBJhAuhGng5/4/f7s9ksZB58FUF2MBjM5XJq6EBPSsAKM/eUK8FmgZvV20Jl9XyFsktsAw2zVvSM3wKJaqwwv8B51NQpdpfZmwn/FwwGVWWvIb+wXKKyzJafHHA1lTA7pPDecYGkOClu6Ha7yOHxVYgoKMmiXi2dTtvtdvpZqn+q0+lECgZ4UoJVRUtmi1CsBzsTX2I2Z8VEqIgEByPsjmMDamCaOQJYc95vvV6nhCUYDGI0qN0mCGTPmO26BEfYaSB4jAklYmBTpITkubADkNMkYfCyGk5ttrITUJOojgQiWUU2pDnNAgoKoKamM7g9ya1khfhwlGocWLVGUnESaB7mTzEkeBSnqNanIrcI1YSAcRAku6FS0P9ogp8oW2VsVVitaenqn8eH49GVQVb/SD4E/RmlLbvdDqgk9C9TaTb91Yh5sBRmHP+Vz+dJwsqX03cacMnbVxNidWDGdhGC8nMsA/gJBpFWNTApcDGAJ0I79UZQNw/BCNKpRKqEtUBbcQ2JROL09DQSiUyn02q1SqivuXlseNGr5LuhZjiPeBa2Lk4WaM7r422STlQ6FUc5HA5JeZFKkiwHNgfzaxocojiRavBzKkmWDhVYxh4mEao59ay8uqrxb/wX3QMw+4Q32WwWPp428nyguENsqUrrCEhYLiVe1N4OXoZdStSqaS7sRkUaYAYonmg0CnuFi8E+YEZkWHgudqMM73A4vL6+rlarl5eXiqjNyaU/AGS09GS3TPLAYajRKHQaumNMkoRQ+nOpp7HUxP0q02NPq60MCUqSLJof2u/3edOIcugNm0qlsETL5bJQKHi93m63W6vVMJRE/Co98Xq99C/Y7/ewZaAZvKx2BgEZnhWMoq6Kmm1KskauV9EqFAgbSL1m2FucdtwJqwesQTyHjcAxoBVjQ1OwTEsFcjE6uvv9nqYDWFtKiMjxZTKZ09PT8/Nzn89XLpdbrRZ+V71Mr66uGJXBYcOLM+OYLSU1Bql2xDSPHj2iOR/BEOeZKDYajXa7XWyHYlBetPqe6ACwwp1Op1ar0bAQhXW73eY8q+vNbDYDEFBlKcePCljlICjh+E0WGYe62Wzy+Xwmk6HJiIrjgCy8Hc2UgxgmVpN0D02hcgGyLKrYcDgcqVSqWq0y7QOJLUYNGHp6enpyckISjRIlHAkCBuA+loJ8MfeWSCQwiBjZWCyWy+WwQalUik0r+Q5/DvIDf6iZHIEE1WYAU1Ib7B+0fWJ2E4lEu91WXQtjeKBy1R+e+yQpY+agGQmjSYCEQyAhFlyUhpnBRCGkp6BCCx+p6mMiQ2FZ2Xreu9/vTyaT7CtNZSB5LZ4G8BeNRkkj8FAYYgpT4J4JgSQOCYfD+F2VbPNcvGVgvVop8aZURUtmk8CGe5tOpwhL1E6LBVQKAhIIXKjMu9m4Xq0DoDAh1eRHpVGDtwZqqG1ko9Go1WpIZSTGIqaldwyAVTUZagEGeFXCB2sMFYeZwj0recL2U8MRblUJYgIAbhuHx6I5nc5EIgHsEBmmMdAEY0ovKLvN72NvaV7DDXOoed3azCII1I5NpKyCKxL6RB3w+i6XizgWy49VZw3NbgCEyiw79AdcKQ3JgYBUfnQ6HRXjU6mADFe0JR+oLsKoqIktOYZE+BxGTSLh2/F3ynqpMbWaZmvEA0uKEIuXiEQBtkXlGpqDMh6PVaeikN7pdCJ30V9BcFLAQHiz2+263a740eFwGI/HaepJIKEyI3p5BgKB9957r1gs0rXebNeF1IrDyPKyVjC43W5XYyGl5JaFZ5FVmCwSV7aX6I6HlUYFnS6Bk2QnMj7qhkbkI8KFP1dDcvbMYrFg2/BE9OhFys9/VVkw+jdwNlQF9azImkHPehC8v6YLclewPGgYsE54NwhjBGnft8POd2IZLTPxLFXS5n/ijuW/+WVWXwWtllp3gnVZTPyEmqpAcQl3sj+kpwFT04YAw0ceGU8PwIJHVGJXtboYGrhiRoxfXV0pYysBBCkD1brq3YDq1DZWiT/yYkAoQnZx6WqIyGoohpYWTZtVYJrYXRlz9XHkeUl/YOgxu4gL1Y+UYovz8/NMJrPdbu/u7ljqxWIB1KjX66SAuSVK85i+JXutnmScB0hymuAgfAQpgr8ZLaC3Y+4QGDgSH4joNbyr3+/TqiafzxMSAJexZfBeyvA2Gg1S2Dg8gQkNmRXhrVwSgWAqlQqFQmSy8PE4Zt4IVBl9E6Rn4u2AIDXnQ51EhdfFpUE5iPDgLQMp4vF4qVRKpVK0jut0OjQ5K5VK6ALRnCFtYVPhLGV3zJ6gbB6YGDg/ScL5W2I2oQEy1/xfQUwdZJQAMFUS1LMr2IdK/WvUkLSeIttgZWibh6kCTLAa5qknusA4ktZHoqBsETpUdgjoWQOBIpGIROsCxDw1lpq/UtKcskqGgsB0wqWVy+V6vS4ChmZ7vCkV6CgqVhsjFccopWVOIhWlp1BBSTTFzxqiqCYpYoLVX4ynJsNIMoQjBgwlqQdwgSvFt6H0kEQbU8lbUw9CFhP6k9enVlPcuRCkSEczpkJ6oebD6obLOqgyV8M/VLdOjlvCIeW14b0wYszpobYPl6a2c+ppoKktooQFgAjXefvEe0rZ8ydwOZgg7IYJiBVuqW6PB+dWhTlUaMX9mG38WE/ukP2sCS4US8EFcB5h9ehrQftrxrd0Oh1y5QRdspnqZkXqxpKC1FIQlqgNgnwup5Vzp0ovfJzCOZZLwFQQB8smpnmxWNzc3PD43JL6XgEfibuomyGWwNTACi8WC1oRqceNwhWOD04TYEqGRwCDoIW4HefCKSBjA1sBlJQ9VCir/A/0E/wcB0QnHaQLqaGDzH5m/XF/EEC8O2VyFPlgYLHA6sEOPhOxoqlyQE91x4S/V080pWSpPWdPIr9RL1t+QWXvtA7QuBoAFceHVgxkbmm3KXrYNGU/DGQ0QyhzuOThOEhNPeGVYNMlTtcUNZg2np8FUmt19RhjW6fTaZLRbHQiG03DQ2gVjUb55Hg8TuJG83Y5GBhuZcr4NEEHdL6NRoPIRodNqWoMJXuXAyYluypA+QodXcyWFIEYfXKvGH0VplCVoh6w3B4ohO0rSRNYmdXDESIRo3kypQ/AL2ac0NisWCyCSChWoO1ct9u9vr7GeWQyGbo28hZofAALwlHhkdHnss8IpHDA/d9cWHnmulIpEgqFeGo4CZIRfr8/kUggE+GHrVaLMRIQllhb+BsS4sxtCwaD9Ouiw7AIFZZIh1AFH1gu7rNWq0E9Uo+J8JRAAu9izndhr2p0mFR0AtbClIIOmFewYCwWoyGtZmBCap6dnXHyy+UybZscDsfJycnjx49PT09JzVC7kE6nS6WSx+OhkklzMjHZ0DOtVgsFLeNDINpLpVIul0OtwTniTrgZ1JygMcaQICdSv33KnjRPmZXHkWCPSKjBX8Id0uKALcGGIZmLM2Z9IBuA3QoSVC0Oe8Q2YxdBJQKtVP3DW4Dkpiocnbsq1s0Jqpwdl8uFM+bmKa7SuJ2rqyvWTZlo9W1VhAZoU9UtIYSy22Z9hjRMErpJFCF4wR8iWVutVlQd0bWbIi02lc4UCVCk9/ABrBJDsdVPQKNE8D2k9VWaoDoAM4lMmA0JQcGKZHlUdLrdbhq5m/NU2PlAPV4NzApnBDJYc1ZYUngR5EAipKkFJvkTjUYBizBbyWRSuwWmWdUGQnJsLfIkGtELU8CnVatV6j8ymQyHBUhBMw0BPg6I3ppaKAPchcaIWjudjnyTwDE8K9uAZC77QTJHAicQZ6vVYpw9blEtVyjQ9Hg8jMxm5CZNauCW4MZEwQBo1KaH6hn0Bt1uV50glQI25WFERJQHqZAWrMb9U6eifh2j0QhpHQeB+2H7Ea4g+1Y/Y8oYONQYq2KxSFEmTQA0WZfzNR6P2+12Pp/P5XK1Wk3qkUwmU6vVKDwtlUoiEQl1OOxwNJq+w9FmNiNt4ZEYcc/qHoAENpVKAS7Vp0bi9SM95AAAIABJREFUAayTykM1+5ffl3BOJALvF0DJCmDizCluSNsFy1TCQS6ITQh8BB3xOeJ96LCBUIRPU45bMgCOv9nANR6Ps8kBA8lkkqqAcDj84Ycfnpyc8AZVSv+9ru+qZbQAR/6t3hmKOIn/zMnImhonbRPvQ5kmzmG1WlXCFAOh6SbYZawSP8RjQVCjO+bgiS2QpgcTqREgMMCcZxXSA7fpMsgxUOaR00X/HRSNUpJKbwsJgYEmw8iHq5GSkrDqFA2W6vV6mUxG/JDa0WHXwARwA0pwwyVIBspmBWdEo1ENH4OdJXINBoPkeQn4qEfudrudTsfj8ZyfnyO1RiVDBo3sM4E7wBTryVFBEsD/Ii29u7uDJCBvDqPGhmbcHw8LHYWJh3NtNBovX77s9XpPnz7FfRJssVC1Wq3dbpOyXywWhOB4X/AKIaMm2gkBiJlQ2o5YlhkG4CG1clSJjJhvTTrBB8CsmJy/WtiY0QhVcvGHaz6fM2oZOT+UORCZEaiM2Hr27Nn5+TlOmq3IK6N0FGepake6kVGJQqjNE9GVCVsZDAZrtRpryDdqVHE0GlWrUfo5S5mkcEUdN82KY3aC4j2eHautQEh9stS9jLVST3U6hvCCkEyoXaW6KpplYSJZ+XPuUBIraFEOI+ldtgFGg4JowkXNRRCa5J4lodMELc3vIfoCkpoRgpo8KyKHGyY/C3ZR70NYUnY+PgAGgrultgnxJZuTv+I2sGycbvGF2ATU95CjvCmNQ+QTWDpuSSSHaDDE2fAu9EQk5ccGBpHLAmM54SnJLSgtyIRu6QrU9l8ZcBXnQrnhGjllEvvrUqGoCgUAlFLg4QUkUZCTJnGEx1G3Kc4FRgyT0ul0CAYwLBRZm7OAsa7mJtHN47nZ2+orzMlScZLsgBADd6iZ8nwamAMuXyIltfgB26lGWL1gaBcFSakWKmrsJ+0H+xCWQWoZk8ZTvRo/Z6GazeZqtUIKqRXgzzkavAgJpjVuQO9UPDobksXnOLDzJevSWG0ekwar5XI5m83m83ka9KpzISC40WgggY3H4ww3VwUPNB7Ug1pbIKxkVj5ziWArRNJjDImLWARzpDXoUzVPSmoTDxOHq/YU88jxdDgcyWQS96qOpEiowXwaRat5tiIdEehrpq52ILtLNX9sHgyUOE7iGWZi0ZSwVquhP5b7Vu9kYjNTa6sZxT88ZDTljOY/9HOJuJWLUYtzTJU6psoZsGXZfJxtTdcQH4t7o6pDYQpVIKwIFhO0JxZQg9ekSYc9pthFv6Z2A2oZlUwmUfejeJU4Rmy2IKw5P16lOVD69IgBxWIKcdgaowmuImnIbsa1aGwJHoL0t+Zfy5lhYelYq7FC9KzGvmvNMRbkGvgu3hRLwWkHglBe3W63u90u1TA0bWaSAWMeMJ14TV4uukOn01mr1WilRvMFDAcbmuhN/S+xaFKq0WeE2J3IT6NHgLY3Nzc2m+38/ByJGOtGbARRv/nNpc4yWkMcM/k1oAxsR71ehzLERzKMQTPEoWFErak2Xxy+pj/jcpSJVr8M5qHTmodBKTgDoVKN7cHWr1ar1sMF9qIUDvWJ0jHQfgiGzs7OisVirVYjgIGy4q/YAJhdddhW8kW9aRCDivVRFa24NBMnwZRrWDnPpXYYympJoywHo8eEgiLpw4uDiYGdIkTBHZJGUe2wumyoHaMwE0dguVzCJuJmVAbE3oaWI5nAIcIgACuhH8T6K+JVo2NgDbZe5UeENOxSM1MvPk8SNLM0EA2l1LdYbfgJpB2mSFpYWfkKDCM+VXO31TZP7cbQuY7HY4qU+RAZYY24wH5CipP91LhFVZ/w+WgbcG8sMuugZuaUb4N7pAORbF1tNNB7SFEHKCT9osSx+chKGog1wYNwos0mi1BxHH9lSKhAUtNjjYdGw61+ujhpCUnNQfBsIb4IHhGAIv2ZmGaxJ5q5h+mjnxe/BpfPZB1oVE2SVBspfTKV4zRr1JJSVU2kSiCBdErji3hfkMdYFUVQGFtVAnGggHeANih5yh+xxgwyQV6pB0Sz1O/31+s1tRcYNCALii8cN6kJ9enkNEUiEU49TgeeDCqx0+lQroomTZ2MIHdGoxFBMr6JYACbAPxl6ocKFqfTaSKRQC3KgVUDLNx6r9dT9KL6cUu+VCdCWWmlsFQHTW4QIIutU/Na9fFhTBGyhFAoBBPM6+BZ1ut1qVRCZgY9oSolNWzu9/ucINU4q+scr4PGMjhxqBkYZTLaNFqazWb0VLbZbHd3d7VaLZ1OS4lhzj3+YSCjpc2jZcIMjILq1AAlmpOtTmkqpdSocqW3iKHD4fB0OqWZs8aQwJzTbQivSfSQTqc13luT2YBoppgSJ0cJMyabfihYH20+2DtJN8wsOYor+BVof7NVpjLUmlSh/8qTIpXjlEqzBTRBvip1sEquxKmog646ByUSCdQnYvhxulR7qEcurSiFAwBMQEB8RiKR0BguMs4URyNwBJUCdGjIV6lUms0mZAmdjUFvmUwGMwf2AnO32219rxIQDJPFWAA1SItToBMMBs/OziKRCC+USODu7q7VatGARtP2OKhwBvgV1RixDYAseAVG6+KrqPNFQSjFiehwAXooLoEe/kFXBUEZtcXG3Mg54RWwEeis+WUUpZFIBMRP4h6/i3yWSaCM30WrxzqwxyjfgeyU0kAVo/wa+IZeZRwTdRETY6SBCrwLsXem21O2XbPwCZrpEkBcrnkDisrAyqp+k/tH+oMdxM5ygftVns8POS/gXXNQoYoSIOpwaTgkgnvSAupKrW7bUrlRya6+1uKo1MhNj0yQw+cQL0EAK2Cj6exqtSKToAYClinnRIa8EayQRn1QqcBaQYypWMeEjKKIRP3u93tGNGE22bRCPEDkRCLBOCvWHIMsY6XBYoTr2gamxhQkJHOthA/vnZ4mkoBzfODgdY7kYlV+YQ5kE3AhgFH6nl/GX2pSPyaIl6gSe1X663uVCBYZz0FTb1qQnAw7ZllCRh1qc16cGrWYjfqk3NVyiacEhHFj2ApwEkgLX6OTwhcRMCuxo6GspVKJdASJS4ZOseC8cUwK6VfNVoDbA7px0gndhe8xTTgy9d7iM9vtdjabPT099Xg8tJYDMmrqJj2JKKlU/2eOrYYMqbxGHQxIsuPNs9ksunlNEKUBKuMhaFXLuqkgjHfX6XQuLi7gC+GJ1CGEI0xzN1ZpOBx2Oh1iRXg+lkUsqero6WOgKmMlQCzjLnF5tGvAGNKSgvunAJlRCEroQx+yGUajEUYD1Is+gUoUlQTxt3a7HUUZaAH8DTpCtUIyShSJ2lcRqJPrg0SnbE5SSOQHCAagtG5ubm5vb3/yk5+orbXyDD8MZDQ5RbHl5i/INGj6ECeZy9RE82/YEQVtzBhlTIt470AgkEwm1QRLlSisYzgcpu8oXh9tHzJEzYpQSSDEBp8MBtIgTvXOFYum7gYKeYkUheo08APEoP7P/CfuVhpkeQIlC0QiYlP4E7WKFNUP5EX0o4ZYKvdWR7rmw8W30Nh9tVqdnJywMwhMV6sVeRmITwA9vBHegpZv3W4XtR8rXKlUmJQvXQGj7dDq4UTJEbOM4JhQKESpHbcKr6yiZpyERgbzRhwORyaTOTs7Oz8/93g8zLWbzWYU8AKSGBRB2A3mVtcM2gsLqWOvCToZpX97e2uz2S4uLujBhHlFdIzVo7shSJr+2GARNgNQdTAYsCwUGEEZYnzNoW38HAzHq0wmk6wY2WqJ5EisYE8DgQCTfwmIQXWtVovUg9iLzWaTSqVyuRywRmw9z6shllgTYhtenNl4T20a2AN4dzU04D+xQzjFqmAAOMLBY52lLicrijoNLodzqhlWKj+HFUBVw7nDZYr45xyZDS84O2AymDb0uPgV9QdlHJQGRXDbeDtemXpRka9EJypXYUZlmI5yuWyz2WiKpK4csVgMvYHy0SwI1dagOnHVkqhDiivdT1aRshW0X2BQERsquMG0InohGEYorGkZGBANiVaJhtqMA0cU6gAsEA6CmcycLwncWq2GG5ZWj9ies0NCXxMH1AcbMysNlnrNIJlFOI6n1AtSqp39I9UjKj21IlIPLHXDUAJBtVnqmo4jRzzNaAPq4tvtNlI8CB4clkmLmvWdSjcTY5stV7D2ZvWn6pykiRTBrDYRjC6jEzhdCNSKSI14SBoiUaAnGjYWZMPbB/VywxwKuHYUDpDEbHjJinAEROZkPwjgcYjqW45cB0sLLgHxaJAsjUUltWLz8/tohNR1VZ2luQHmHDLjF6JO2Z7ZbMantdvtVqtF2xo2JycIY9XpdJrNJrp2+BoN2VfHK83CgEsjLNdMPJZLRDLsI2lJnDtbwuwbhXKAr+NoaOiaKA+JnqFgR6MRLowEEThysVg0m006OVCVoX1iUshknAgA6IsnFQovwuFwMHBOHVUhQUjDDodDprQLhPDhytASgsbjcU5WuVz++uuvkZaZdU7fES9+pyY7OhjqNW0SGBx79opYRlwsf6sgErXc7e0tw+x1ltj0hUIBBEM3mXA4jFEm+wD1gqHh/yr4o1MXnwarhzgUK2y2JlJAqZwarhdNOkQOvpajrjCXdB6GXgW2cNEcLb5OHbnVTgy+h45l8A2EiVD3QGf2jWRzeF9UCAAITL9YColper0eXYSKxSJD7bxe78nJCVOAIc8dDgdyN4XgagrgcrmwI8FgcDwex2IxWMxarXZ7e2u32/P5PKwVB5XlRRhB4ljjFuEdqT2fTqfw8Ap0YF94p3wOx4/kMl5f1f44Wtp5nJycnJ6eSk+pmjKQDYIbdSOHejTrlInjIw9XMBjUHDYiQrhqp9PJgEqBJ6W8CU9Bq/wbSlsNEdXJAj/NeDdcIytfLBbZ/LTyQpEp8Qb1KBQDQYRgm7gBwiE1oPZ6vWdnZ7lcDvgOMFXIzoTTaDTa6/WgcolcJdahiTdlJawYMbcYJo0aUoMJgJSG1YLkJAxQKxBBZCJszgKIB0cucTqnm1Fgg8GAMiyiag1MArWbc96UqWTZz87O4Gj5IXQsNA919yoPB4KAxgD9oHzyRMQhKgAXe6d59H6/v1QqSfOkYazyT+ImtXM06EhTf3CfEF1gIx1/v99PsRFz5IGk8Xhc8ji1A5NFkr6QwEABmHomoA8Bb6mGg7hRoSy2Tr0A4Zz4UkQ1/EM95FVkoD7SSg0TzwhAm6Qm64NqlkPEN7JcBEWMmFLmFyRhs9nq9To3hjcRepYBlB6Lm1QkTIBBCxIoXqoMoevkUDVrR2gPYox70zhNMU8KCwUo9aKVlGA1NGWEiJoPJLmENwSRE2htNhtUMYL4VO1gGdCQwCZik/F9sjDSz2jYEqiaf/O8qgfn+MCQQbNBrKiY9/7+vlAoMHyfOgk4yHa7vdlscrkclWRsFZwCgRx3rpCJ8JKtDh6g1R3bDGKSSImnwJp1Op1cLheLxcrlMvGnCr0pFCuVSsgYdIiUdBapRFVDt9tlVTWEQjNO0ULAC9L5NRKJMHZYuSM8o4qyYQHELku8a3atV4kVpxUDroJ31HQnJyeo8yWEkzJetVnUOQmkqpJMLCBmCoPGlhZPD5BQmKE4EGEVaWvSthjezz///Obm5vHjxxZhxg8DGQUcxeFxKddAAKrWyprsKbm6guz2wzUYDBD0UDZBO5VkMsnUedVFut1uzWAlt4hPApUD7Tl4Uv+AEjQYBgIGvTP5fhUEUK4I/FLZSrfbzTxctONXX03Yci4+QZJnccvwNOrXqJ7vbBGkeGwOoACJPJpK8miioNQ9S0hIBAbWAd2D7Fo4HM5mszABuBMIg1gshidj+242m2azCcvCqfD5fI8ePUJFCgsI0KnVaujVqOyjQw1AVuWxWG3OFYeTtrSkCdBHyn9wnxxjAjI+jZMMsGCIIieBbCzS4Ewmw8lHSUOVK2WknAGiRhrIC1to31JNgvSn2+1K8sWrYY4zzwgPQSIJJYMIP+aYk6Yx+4ZKEoR9hBcHfWIOcrncZDK5u7tDpkNCk8dkl9JFgiCefKsEfMjsRD2Gw+GzszPpnMBMRPlYTMkBlXHT2DReiqY4wE6xwgro8R9sRYEJASlAvCbmKWGNuZlMJpVKRbhTg5F4vxh3sDJDwwATRMY8mmbpmsMGQWasMA44Foudnp7G43HqeXe7Hfp9ckzsQCol6fdEhE1nYGAuxiQejystroBemmOCNDg5NXOQLhYDhRSEFeZdc2DVkUp13xDe7FILgUoVGlhZtXcIB3G9uFjZGbX0Ut8GdXVl0Uh4QfVpUgConVuC3KItP5kHDeyBuML0gbQwO9hwNqSGnrNb1AEeBblZvaRvxOZwV2w58irVapUQTnS+OKpWqwUQNOtLVKkGigIKMKAIXlMkKxPe8LvqrhqNRlk6UAgWSb3SzPy+ukqBsyWmFLeq6gF5QyI32A0NfCPExfKoxa8k/oRh8A6spIrrmXQAQ0GhBjgeV8U+BHJRWqGZcrpntHF0L8KqaMSlOuxI9E/IQXkHb5xgg7eMYC6XyxWLRc36EwujUXXqM0XJI68S+TIaU3qRMg3cZrNR6QL0RKSroJ25tRruMJ/PIZU0/x3Ugb8TzuOYaIgONSUSyHFwOGJ0jVXTRIyY2XND3WclMlZmFeKcR+N1CMISvXCTfCCZKGAxNU/4o2Qyyesgn6l2p4wzkPlV8zioH3CwOSuBvgrCPyRRyfUh+lKRNWaZDrKEr+SmHz16ZJaj/ACQ0cIvqlISC8XmUzZQgm4VD2I95/N5r9fDmlcqlfl8nk6nSe3T9sJut5+enj558gRh8ng81ugqOuYg+gYCEnOLdpIYVkSdSmcozoDIYZoFYSuGlYOk8k+EfbRylBKZm5eSRi2RVQ0KW053GBwzDKj6syDo0YQG2DVR6ApkNXRfgyjwuPTdhUQhl2duXwYDnpycMDuEINLhcNzd3RHAJRIJCXGgf2hRhI6Qot10Oh2PxyuVChJ79g0JUzQ3CJARYJEngmVEKYJNYQMgXKtUKj6fr1AoED8RZvHJVEKAzzQzKhgMFotFl8tVrVZp5cVJI6/BlyIlxDTwRiKRSC6Xy2QyuDeYIY40Ak1KgpgrXSqVSClypGn3qgGSMJcoi7G5EmIKcilnIWkjOXG0koPBAG/RaDRkJjggWF61E4e+6na7jUZjuVxyY8Q/bFr4QnUFo2cb6apYLHZycsKAXfy9ahUFFlWxqPit3+9XKpXpdMo+SSQS8/mcjAb3AHmADzN73ZsZUth0ND2UF6jEQdk6BWkcOg02BNbTiVr9Sh0OR7PZbLVam80GkpuwU7PR1VpBQ1ZAWkSSatZDtI3n4PbIPALsWHzwCkdMBXYIHlqtVq/XU1kuoi5CGgwL0molBFg6hBC5XO7x48fk49SJRtwb5KtYOtHG6uWpDjg4Zm4gnU7n8/lqtYoFwNDhpaAhoY7UrigYDAJzOR2ahoLwAHNESMYdCvTw57LkkrpyLsxVRRZJ3GsmPWSpMKr4flQQalCHTaYch5on0iBmo3JeLveJJQcPqe0w24mT6HQ60+n0eDwOh8MQAYrk2Twq1m42m0KQyvKrnJ9nFDKQ/pK3oFInxQzsPZCHptupnF/iS8FNNcwiLKdhFgZfvcxYPfV85q+azSYYFIOJzeT04Ue41clkQvkCNpDzqGyyJveQbcBEqPUVga5kJ2rOx2ISHsC8oH7DY5LCisfjPG8gECB6ByFBhQBwQWlE4ABlwqHT01NeOjPG6AekPP5gMKhWq5StaN5vJpPhLIMfmD/MZ2Lz1bpYvZ8Gg4GaPZmJaehbaEW6GJpHAD0PoxMYQSlFtb5FQ1mA8vSBUlyNcYtGo0xEOz8/xx2QM8GNTqfTYrEYCATu7+81Dw+z0G63c7kclA2HRclAOCBCQbwMihepetRSBjcEOU1MCEOv7lQ0NeO2W63W3d2dRmj+TwYGHlbN6CfqVGwWZkuabWqHeX5ED4PBAK+A/aUUQGwQRWTRaPTJkyc2m43BcXd3d/RnYe4cG53QB0MDgYQMmcDdMp2MJcNjYbwAeepU0u/3iTZOT09l2oDe4Aa61QNWmJJEcpN4nf4gZP3YZ6r87ff7wCaOhFkVRJzN9mUfwDhSOAIW0bRQ0CF7hZ0NAELUQlKP/cecKCbgcU40q5QwXRQ3omC73Q5j9+rVqzdv3jidzvfffz+bzWLLut2uhv0PBoP0w8WXEvVSogvTQxfx4XAIQwDWkU9KpVLUx9XrdXhHVAfgFUwbZcuBQKBYLMZisWazWS6XQT8wDUSEdrudiTWMB8CCI1QqFAqpVOrq6ur+/p4uBtFoFEZK4ic+UB28h8Mh7lz/oPGYuD1Eb6y8+vXAOnO8wXPA2X6/32g0JJNCDMDOkS4QnoOe6ojHedJOpxMMBguFAlkbjj3wUSWrdrs9kUiIxcxkMsxbu7u7K5fLwGj61LAzORHUFap5da/XY1RSJpMJhULtdltd0AF5ZEjRa4K0NOeGDG8sFru4uIhGo+Vy+fb2tlKpDIdDKnjC4TBKNYRKalShJDLl9mSCEHHjzNTpyRwritMC+oD1OSnsZJXQQstdXV0hpVfuCeoI8weJruavdClzOp1Ul6sRncZSa/CrGkAWi0Wq8W5vb9PpNJ9vs9mSyWQsFpvNZn/0R3/0l3/5lzc3NzhaphubdWzIjAaDgYbiqMRK+fFkMgmKVQkngAz9Pi+IZljT6TSfz6v0RFEBKeZwOMykYCWjAf1MFlC+FaeuHodqc6GMkDphgQAUg/GMELd02CFyU0IAxRt7Sa12QUWy2PjXRCIB1TSfz+v1OgNLQSEo99+8eUOikFiFh+LmyaoD6+l1J5Aq7R02n0ZgOoYkrJTr1MQ2kDRnTd00JXDUvBloEdyixreqVMhEnJI8mmQtP2m327Dd0oFAHOAs2CpIJiALiIEZc1Wr1Zg9rTFOnU6HqhFaD6KqwlBQg0/hMPsERwDsY6Py+jQ3lXwRkneJrwSqxuNxuVxmeL0Gf6viG6sF5VkoFFCuu93uarUKuqIpRyaTUYKYVJIsBn653W5Ho1GE+BgZjQimebjH43n06BF5Gz0X1AaFUAJ8CCLxjNFoFEONf0SOyT28ePHi/fffLxaL9N2ku8L9/T2JO+TCuHXAPTtQ7e7RHrBzSBdQvMgkXl4Hc7cXi0W5XA6Hw/l8/vz8HH0tJhpO9Pr6mjEW+LjFYgFDhLiCovLNZvPs2TMKpEAmBEvIUhF40HQZxQKjhpgOygHXMCdoYCAyJkVlyt8DMh4yk2atpZoDKYxWXwkgNjM5yGaC3Gm5BDTO5XKnp6epVArVAi9PzZ84YOolC1nF1oRNIToEbBGN8TJAD2pVSHwp0kV1baq9NweV0gEB/wE3riaumCeAESXbaq6BEIRQgMARK8B/Jd2scaV4IFUeQO1oygX+WBoCdYfR/HIMGYsM5YCEVp1uAOKETcqMEzvieEyJN7ifAjqGXlxcXHz44Ye5XK7T6chzE/0Eg8FSqQTIAPfc39+D/tPpNNUDkC5sG5gGyphgDUOhEJ3/iKjOzs4oPpXKmJihUChks1n6q+FrldrDQjHFkSiW1JIpqJXOiVardBiBJgRDUxxDj1+WCDMn5YfeDq+YBTSrtdCXgGMQRFPoR6RBMINZ1PRzjLvoZHLoPDuySEAPDoNcuTkXWIObMSjNZrNSqajd/Wg0QkIK6iXQpBQM669sBaBWkgOesVarIW3RNEjQEhcxgCaFaCiRxpbI6GhYH5k1yYi5f1gxDT2TjoUyMpkt+Hg0fxhKgjfNSJBjBhMAg+7u7jqdTqVSgR4A2ci1QOTwBiHF8crCSRLOI4bh9kBFmqaNFDIajdIlAHJFGItNyPyYq6ur29tbuFLNlIcLQRZMc3LRXUQUeCyEfUAxwhXgF4/AlsPC0GQxl8uZcwpIp4I88GGavcHdYuVoesVrNUd7Wxo+KElKMRZ7RmNdOR2wR/Sv0DwMkDc4lWiZncke5nRIAGDKPeHhCPvJRSaTSVhMPpyyPHQj5AfowE8AKdaAj8IaqPugjKopwVc/BCCjureyhng9U59KGhHWzRwMY0psLf3m+AS8A0wtlwbDbv/7xa7WdBkxo6C3QCDAyrO99UREUJKK1mo1NB6qwlSbTBUas2GQ2Ho8HnQ+apHNxgCFaLrP3rhINLMgKgOA1ygUCna7/ebmRisjURacHL1jK5WKZodiitWcjoWi8olWO9A0muAPrmo2m++99x4BHjhBZJaq9/B3vNlgMHh+fo4rxE3L1PBXrVbr6dOn8XicsB8kTaYLx4oxh8hENcgNQyex8ThoqOxU5MeS0uhH/aGgDLhD1e9LOg8aURtdzhSmFUNdq9USiQSl5er0ZI4ilN1OJBKlUimbzSo+hzLDMiiqUV8Lde35fizj4aWstAklVUEmgEKCUl27iPXxypvNhqHmZ2dnl5eXDCNBpmBOTzF7h6p4hQ0kzamOqDwQPAG7ShoRtjK/gyWlpgxPSUzGQ00mEyhugk5py5RW0wQRNhN3i91X+kPdKNgfKkPm38PhkP716XSaOke8L86MGB3wAbbT6HSCIbbd3d1du91W/xpCFuAIK4YlouaOjYhH0aQHKDRkVWRFGUIQj8cBha1WC8gYjUYhRYCMqVSKEyu+ivZgahGC78dbTKdTEqaXl5eUMRE3Aw0hX4HvgAP0Z7SeZlvHYjFmM5BAQabT6XSYQIgvh9nFoDBtDwk5KhCMC1tXSUm0RGT09KLRD+Ck1UBfkJEMssq2NOyB7Qppjc1V6bFatQuvyMFgfxHw4dLMXiHaruraTXwPjCD4puM64FiyaJgDjgnPwlMoPaf0JecIs4sFVHcS5X00nYjFB/ogPqNMhNdEUKR2+hKZqbshZCG4h9li4kvolCTtKWhPyVAIDy7MC40t4BohJDi2bDMFhwhhsU4at4VP5XWwaPSw1WwMzSijWlkztUDqkjTggPEQymJrQu7z589fvnxZqVRSqRTyVodXAAAgAElEQVT5dPVUC4VCFMi3Wi31/cHfIF2FDJYwVElY3p3S66wVw76y2SyeiQ80K/k4/hDDBKWQ5XwjWWOeRY1glJ+RJo+/pVSo1Wpx8IEaquSDllMBEC5NORNVDyAEp9QpFotRLMyXkn3idPPtEEXMoOLgk2REhWy32/GgkhaoyBIMJIW9omv9UIkywWL9WydO3KGKABTsKSkEZ6msmnJ5uD9znoXZ4pQl5dWY7UXVL1PTxTChKqSD49AYD0plGfHKb3KoqZXWMHdKEhWb0c2ez2f/q68tFoyNLSCLUcINSbIpl4e10eg1fg2LgQ8lsQuLjMGEFaKpWblchjmCg2QDM/tHHlBTpFkQaRI0+IRTr765qVSK6ZcoItRyGCoH3CkWk8wsf46RJPRiTgQxP74D1o29zdOJvVbJC2Qw1ZBiH7Az8sK8X6pt2LHg+0Qiwb1hptQrQBWiuAMY9G63S0gMaU1jUbNnJy+d+AcSzewFy+2p1bk0oJZD8X2z0m+HjJbOizpmmnyg73A4HOjAWB0VoBDEp1Kpy8tLCrWw10owATjg8yFpUVo0m01iWfkApQY0PB5wpjlIai6v6Q6YSGwEJeibzQYBJaCE9wS9DE4VF4LH6nQ6ghGKTsQeaUa7tgsxt7qDAn9BD4AVwAe3JCZS2R/SPUz+4bQARG5vb1Hu412kV8NDaACAKv9HoxEkYqFQoGZZ0yeRkjSbTaRdeDiJ4qnawdyj+UBQAvOBNgL5JpCRzyQvL039brdDVIDDU2EdcJAsP1pGZEkUczSbTdU1wwfTLwBUIVPb6XSAF7xocSpAZw2WADQgD+ducZYwWDBJKriT/kx9ABSWsG6oj1XSyPlnqYXdJaVnA8trYhxxDPQZ5S1wcNT3Xl3B+TcxMbo3XjQRM+wm+TV8iRp0x+NxWHNSnAKjwqNoKHHJMFLquWhCAe4B2KoeAqFQCMkpiXLRIZpgJqZZvesxQ/wJuTnOC1AADYamsamBCGgAzZBmzpIkAtarKSOuS80QAKkieDRiFQJDPQ3IG7KpsLy0C1UOAeijg8nJZTT5+++/Tw8Bu92OTg5oBaGr6lQVGWj8hghs1kdNGbGTQEMeWW2WSSFx4lQkAZiTUiUUCpFJx5qRPYSKy2QyIGBVnsGhCglp1KqYV3Hq/DJABKG2gnkmcGBn2KU6FCQcpBdUoiASiSBHIbvKlyKMplEf68bGQ8SsymVlbxW6KE/Kw0ourAdRqYrU3hr+KXBsNps0CUWVwJuyK+1G0YrCymZ2SD3kzeSb2RsOX8MLVbPM5XJJ/2qOuUYjwptSKRKLxQqFwgcffAB3C2MtkpjsFgcNcguDwyuLRqPZbNbr9SJMVx4Z+pbEFHkbjIzCBss0YJGyGFsSFMBlRHj1ep3cl0YlCeVwbCl47Xa7lMJIBIJB43U0m02zOyk175gXhDdmnTscRLFYxACK8iT+lAehTxlvDdOkpeNcj8fjSqWCaU2lUtgN7KeZReGHaveN/4XCJyoWw8dcbMgRjSmSwUcYHY/HeYnidNQmnYGZqVRKKmSehZvHCGggO7uat6nJYRLQI2WBtVEFm6Yfa76xTNb3HQDzTZBRoNVsK2D2HSCcRbhKI1k0E0xqSqVSVFrhgNlJSsdokKvavZql2TJkfLUIf0Wc5EREuqjrLz9RNweMi/psg8o1aZp7o58+tCUUsaTEAEFMLf9WkYTnN5dGqnB7qoTnTKo+AHshX6uyVhXBKRBUL2WRWFSuwek2m83Xr19zPxLQUFmCHtHr9ZZKpUQiwfhaZQzpjDoejxOJBNQg/Ad7C5w3m81UT4ppa7VaZOiolcELch7UXVnDmsTsQocoP8i3wJmRimLCkiqdka4OBgOSMqlUires+RNAZ5kMKEYsrOYrwoHB7yLcgYKiG9FkMoHnppnIeDwmAUF3SWJZBtHyyjSAR1UIrVaLDKZicQ3vkV2Tq8MWwxmzkXizclfsK9ZQMn9N7jGlw5Tfoq6DU4dDMgMVdXBAG2RW8ZNXwlKjuCBMikQizJIBIitPIeIBE4ORgvAAqpJCAo0BBUy5IUGXiDdenwgMfg27qb701JFI46/CEUICUcgij6WZgwmAZKJZMQ9CnzPAt/qzqD2HWlWLGSLOpD6D/0umiYdVhRmkFyypNG1KQfKMgkdYMAgAJX+lOiWGUW85hS7SfGumPB9rtplEwq+m1hpGghDCnE9Dyo/1wZio7aj5ivmW/4+2O1mu88zSe88GbNHvjY4AQTJFZirLqgqP7QiPPPAt+D59BR45wq5yhcMDVyglihRJ9AABsBMhinSEfq5/vAfl45NZ1sEgI0USe3/f26zmWc96VphNw4TsoB5kZQcn8/j4OEArlFRs4WlRwyeTiXshFvFq8IXpdLq3t9dUJ5EoQbvG+x4fHzMa/LGwGAmvwpxIKH80YoHJM1nYumILdiv1FuqFO9Y5m6qGT3bj6liKuJX/ymkGu9o4Sl5jdiowyhE4BuAlAd/a2trjx48fPXok/lbiH2tczT2KIxSQofIgiAQxdv5dH8YtEk713CJvxrzKJk+ap2MWDg4Onj17hoHNLzg/EZrrvDk4OEApdsHhkYlO2NDGKq6tra2srBDrcT3tV1B6Dr29zhjWC5jCmkIEcIpLbfqO+SDJWFYwDFYQAeNiMew0dDc3N6fTqW68It23b9/u7u6u//pjxWo7ExKo84Rhj6OS7Cm4HQHjxo0bIr/ckBxYnhmYzS4hw8g/2f+KGIlhcXCjnH500v9bkZ0cVac/mbQKphU9x3mFnsMmufMaSvr1BkRyt9UUxuGkMzMzi4uLlDsU1PrwrHDd03WM+queh8ESpwNp0iSLlZhmzZcvX2ZnZyeTiYvkTHOBGsCF5+xgs4ahCzy0u1pfbfxrRjYRb39V6Tk2gwtQ56x1iFVpwgq41LUxuRhdJmrzzs4OxuHFxcXm5ubjx49XV1dfvXolfbFf+uCQXpX8qoNkXIT1rjpuPvW4K1euUEjRdcHf1xeCltTQJNESOlrS9lph0BWsdvOvvDXu48HBgbhNzCFGcXuBLsYqMGclwZoAKnNr92Ecf/75593d3VevXl25csXAPcETsJMUc04aBgxHFHxAhpgYZreBckHUzUqBuTaDVTSc8GTtoik+5Nr9+9qJYKXNq6hBZ1QEHKdgMTF1brIRJeV5tcQNxGerq6tPnjzZ3t5+9eqVA2ApxEZNPxP3eEKdSVmowrj0U9yUccRWbfXF05yuNWfXJBgim4bQVLYzXgiU6Aykjx2f1d2U9wfzR5yyDmkmq2M0iVuc52OXlpb0Xbpu79+/39vbOz4+vnHjxv3792dnZ58/f767u2s1HE6V/TQQxlnSRYShDkqKDptnGKf0euAwnj4N1C2JxXV2chpAUmw36pKmpBOi5sHytZVWmF8PlgpVMVDz8eNf/i/P8Y+UNUmmaokz5lKrUcSD91tGs8oYIw/4l3En4DToX9opmqEQRCrOFkanBNzreE3Ibk6qokFrlTJAL1tdL/GdJNZ9oOa/Vq9BstgjblnOFHabI2v2WLKyDkZtsEyukyMHlmzrokWZcCvDwFKHlWCM1Be1V2Pl2KteytnGgmjFRl9fEUwUG08MP9KhMpUNmlCfKHjeZRSiHR8fv3r1ikYEcUdnjO3VOOL8+Py8wzh7nUIZs4MaKDZyKeKoFL6rIUgjG9KTzSzjwvsctbFMk2oSPXcj82G1qIsbsRhxs8FaWidTNkissbH4SErxg8dEncQyLwAGYjxtPWqZxKOIuUYxiGzAk3DLVWJqoq4Wh7jjo9DsPydkjMLY/0l3nvlL26lKU9PHq/cL+9iUpj+V19YdIihkYhqCrBnTYVVFbVHKzxq+ImMAdym+eAvVt8SxXEgtUXZU1zMEy9yUzG79cVFzZEJdtvwTY2RX4nQXirEvIkvSwcEJnk3OCjFSBkoUAwQoLBDvYjNA7/TWaVm9cuXK4eHht99++6c//QlUdu/evT/84Q8PHjwgduiKclcw/FoprZsj2Ay0hYUFl0F8qTsStkF3WrCFHOYFUe6oFFWIAWYgLEI3kSY3NjZUveG7AgV3mHjE2dmZLLNBzNX1WAfxouQhuRxq27qbeevQ3NevXz9//vz09FTcBqWGU87MzBwdHdGOmZ+fN9ld7LuwsMAehSHpQhAyRpnwyhH7uHwC6ViAt2/fXllZwdoWg7oOanPaWWCH1qQxzY0Jjm5SA6YhVFUc5Mq2wydUY0qdW8DatGKUfM8QIOevXF7tq4pNkf/Ozs70+qkqasQBEojneOLYGiAHhdGcPZ5TZTsGsc7oaEmhPvW+JLWTY8syjCzkLlqqivGPfZT8amdnR9UmKY2VlRWjyV68eNF4sY8fPz59+vS//tf/qlWL/9jZ2SnYavZxvRcUkabTqXqfvUvBm32I/CQ1bWQAP9dvhWNhd4hyuPnqjJVW8v2KBlEhQxHMTYCSZsZLwqWRNQfYMpsbaFenapK3bJQjhGfsIdnANIySpwn5GwXSQTXKl/mRVJZEyUy9t84X5O0sQtPAq0frVxOxeetGPI9qGyl7X7o+DL78JEeem/MrkbXqXLwEHQFNa9e1Ah0wyZsbhwfimjdB3giW58+fN2FSlNnORqD0gaKrk5MTeg7SEgYqfhv4HPxcThXlICF3pyJ9yro95LTp15g2fvv2bf3Fze6HO/CYZPObu52wNlghpRhH+vPnz0AKsQFLK0Cs/wYm5fOllOxA6sgHBwdaRryadD1c3Amh5ODPRQW8hsPsYSCXzRDmml+9emUyglsg+UnWUW7grE6nUylxQus+P/X7zLuVdFNYvOwA2/jixYuTkxNVl4qxSZa2xQovncYYzCMI6BeFH5f6Vf6ykHGMFzvZkau6Ua5Zs1Nd8kuxqpOhS6Czwr6HkPeLyVmxtu4Y/kRTCvh4kofSI0cfF4pdw3FkDlQn9/f3KX2AzYMW2B2FXX0zjibPV3KZ9/IuGJbimAZZFhrWl+cIlixmiLNulUXS/LRiuca0XpUDODY9/+hTKysrgHHVgf39/WvXrm1vb5MhfPz4sY5jR41Wi4QJlq6+7I3w7TAtPn78uLGxsb6+LtZnsyBMd+7c2dra4giFF4aaiCyVk/AR379/v7+/72Pv37+/vb39+vVrAjSrq6tbW1sXFxcaViTQOzs7IviEMK3h/Pz8kydP7ty5I20QMRPy1QF9cXGxtLTUFI2ifEuHGfb+/ftnz5798MMPiJjmHDghluXv//7v379/f+/eva+//np7e/u77747Pj5+8OBBCl7iZuMczR1pZDCooInyzRnDx7AyW1tbX3/99YcPH3QyNaT78ePH29vbf/d3f4fVzgpk1+RpsOHUaljz69evI8QIjnUaieDJpGXNw0WstiOnndmVdCsNlap/ZeS4KIg/fPjw8+fPP/zww/n5OTXHBw8ejDg0f1yupf3LLBxxQHQ9pauzs7P5+Xns+0vttIhcKlYp6tWIJubgKoKo5WCS8lJ2Z4CUoIJmVct0BNVefdfCwsLjx4+3trZQO0ThiYzs7+8biZlaiko9U0D6h8IOgFN8ubOzw+nCj69fv37v3r3t7W3egtGzKdplTAzTMZaZtXScovbnilPpdRMtog9w5cqVg4MDAo1cVE7l/Pz86dOnwk0Z7ziNZnt7++HDh/v7+8JK3ovtVSySabC6elMgH2j72MYIdg4PfTiRmf6q6uyidimZwwYgOT4+boB1EEjjB5VBT05OmuMKX2zkYw2k9SZb/IDDSv/VBGt8qXqm32Usd7LPtRGICYo+/aLMqlFvY6toepZMhA+3Dm4QWKHKrx5Hqn41voQteaRK+QLE9jHOmOoQbFKEx2/WPuWLarkrJIJIwcMkxj5foFys7Ou4uZRS6h5DVPMnxgAmt56jt0rpTyV9atwArCcEkfs+Ozsj9dosjOXlZVDR2IguWJff1hSBhalgHfX84OCAN0QH56Y1OcighIOWzoXyzOLRlZWV6uYFA9YKFku1Ayk5JoNV7WiJINlA2QIIRu9BXBpHhWKR1ZDMSJ8gi4Be3Recl7pBgXgJefzOUPl/ZmG63xzHbga2oV/AP/ynoKq+qvRx2Knm3/sQVq859PGfEqzx1QKU2dnZjY0NjVHE33k+Rgr6Gule5pRJZXNnZmYIikKPLi4uiDPpFI4CaP+0cdQxgJU4giJJuntfUCVcRxGtQxCiYNG8r0vlqfQFi6jiErEsaM7+06FXuTs9PZ1MJvQOMzdIDzs7O0dHR3Nzc+I5gY5MaHV1Fd5GEeDo6Mih2djY2N7epnTDmSVzPzs7u729vbS0pNDJp9blg5GNU3z9+nW70DhaklEIlI6pzuutrS29RBsbG9PpNO3G1dVV8j1nZ2eiBDEra84tPXjwgEkS2adWuLKyIk4lpg/M4HU+ffq0t7eHbXbjxo3j4+Mff/zxw4cPm5ubQmTOrIAVfU1MpgoJVix295mqSHYwRmzmrP6wuhFVHj2eYf8wYGd+fX3dCCkHbFQ6qPyBESELt4wyk4byif5rlKuNHZJRZ2tU46Ojo7ZSPqYhBgWW84Y9AFSs1dzcnLmRppYDfcHDgirhF5MnH+OJFdEkaeVshQgMawX9UvBmPWcKc4cBh81p4FTsC+muJNkbZoN9GIzUYG5YuwVUgoBqCwuaOG9rILKzs7MvXryoLLi+vm5y497e3tOnTxuKwxp4F+O/+Spk0I2NDcLFyS9gYU6n03fv3hHpFD66WfHSmgo4yodFuT49PXW5OJiqH14nOTNOxWdW1RLSsR7Hx8c1JI31euiXJDx5L+G4DFY7c0IeouekvPl4XtNXu6TN/dvd3RWSKgIUkwkpmF/eNKdTSp/GUMLvEiebzoQ6XQCOOpyk4iy5N62cnVeugDCySqRkcDKJXNMWlIO5ZC/rAMhbdMtW4+JBAmXFhRS73r9//+LFC/31jmjMrgLHmIgNgh87e0QwYxyZDh2F9sa127V2p7cOMGZeMDH0YmKWF20TSTWRi7otr/Tw4UMpvdkZmp+4J+Ju+/v7Ozs7TIHLrrNEU0S1ae746tWr0+n0/v37CIImujVezz9268ciABaNbSXzGanUHzb6SIrLRBNHS4lJMDdO1SJmTsS3rsSEb6BRbHXCCP4EDYleh9N4aZZSbUx+qzbnGLdRG43S9szqOSMUlUCHZBK7UQkLDBxQOA5x+MtCxjF2HP9/hM3m1cRxdG5UKNJzqgczlkxWuMS6AlxQf92dIi2RctJEzS1QPhPK2P5IV91YhdeVlRVpqGIu3ebkWpIskakYpmkpHVPhFAYudQxnPYmB3d3d4k54g0hfpcnNZ5XYhYa/VchwYyETzndDutUpqCGCGVIMFuB2SbKAyLMQCFcuxX/OFRTH3AuY3DojhlhAVelmDYWMTqfTyWTCucqJmx+lct2EPfDq1atXEYHBAF4WuKKNxj8GUZC20TcnXre8/vfNmzcm5yJQc/NN73358qUSKjdDpFRUSiQcRU+QpGDtaGmk0Lg3MzMjJT08PFQxV6xPtk0IRXulaLL8HjWn+Mni8+UNJonym0Y/OEfFqqKeAMg9Um3f3Nx89OjR3bt3G0lc/281HZerdrRqakrSzptz3hwgBvTDhw+Hh4fAm7qyLG8lLa76wYMHT548efbs2d/93d+Rt7D1qFoN/63ttxkh4wyP1IIgyuxDDEhXSa1HuOACNo0mgq9oJsWTca4MlyanDa13OMf5VfTt3bvaVgQxAIb+06+A87VhuvU+hMIDb8fu4wCIusa8Omzs4OCA2uiouX3r1i2TOQG0+B5v375NfKdWU/8Y1ohw2eBvt4AXbEJJ4hpjUB7lhgdiQFIajyjsqPMxyrtofGP/n56AWuPjfHts2+oz5SQVoJwQpqkwJYn1OlrC/8YwaFQeDvKvHj3quKG+xa8IF+SzLtHxfWmEK3/Y8PEgBtEDk+tswCbFps4/XA2jYOQtpA3M8HL2xBD8OdwBBykREqKwTFMzwxo/CEy1tjnTlDQ69sU06YuRK07MWbam4TJZKJ8GD4o32bek5pE8hRbGDx8+3Lt3D5dDdK42eO3aNVjGzz//fHh42GgxFIgy3ps3bwpATQqVt6uxshuZXzfRmcFLqbwGY0vyIvG1MI6O0EjqHYOn5HX878gwdqGalVXbHx3NjY0NXWKNpAplS9cvrXshYxRS0Ys/qRILJxIeKBChbzr8cUXq+vDucgAVUSfEAy8vLz98+DBMMMvwzw8ZR5GdrmiNYJFjkmNME8Gjx7co1CvFCbfnsQLGLY2gE4QThXb21x+sqcRy/S7lAuegwrEuBzizqEiXsZUq7Z6ZmeEAhPxKfuJxeefc3Jy82QQRmlJQwBhaiF80bNNYEq8kl5+Hs3ShZaB1nAM5VnJQ8ow6xWLYMJ0cv1PlVxzo5II1FZqkQk2dwL3U0Ezq2dlZmvJYt0oSKCn1RMOG+Tw8YmWLUYaUe04GGeGajs/W1pbib6xhNEEboX4NTcRm86Ood/fu3cPDw+++++7Zs2fKpnA1xHndBoIq9ReTaRoJb7TG0tIS8EnonGiI/RKwYkzLGSSOAJWIqiLChvlWXxhZ8/JvIZRAE4/Nh5ycnEgEawugqv3x40dNOXY56fWcvRxGd96HDx/Q7xjoUc3AJ9TzCOCXq7DjSB3z8/Pa56v7GzVr2i+6FXgs9gxwyFxEw4dElsaiHB4eMt+FPtCspMVqfSjy4PiLYxwk1rPmHp+TNEGBVyNYYq1FmoRFiVrSKxCjhJRwb96dIyRGw0Mn5tXI4HZBOMUBCBC/fPlycHCAq+pojSLSwtC9vb2dnR01qZ4hBTu4O6sYCbUGLNav6bcQdOUw71vdgwjRxsYGaIeVSzWwiC0aov+0MonCSHHVT63GJaUYdC5IuSf0ygF7x8fHhiopeZu8Civ1UTY3sTqxI0eQ4HZ6C0EyDkA139xqNKzw9WhRY4TUDyNcBaxOzURtu9Rjza6/imFWVJpbJC5YejlOHAVWiVf4JieZTXDdxnESDGnxSupsoK+zs7OlpaXaeBt9jnGkM2lsUbWYvmL04Kn8lEiUFKHUUwB98eIFXcN6VSNwu0EuoPsydkziMkEroAbNK1KkfvLkyfLy8tnZ2atXr1wfxZZ4cZyOwM7Vo6Qh4Ds8PKyfD3VKqJdUHw6V2F1mCxG0bsCFgICxg74h4wUwSSfyhsFD6S51O9SgLWYtNWUvaQAxp0IXT8gfNYMgKFRZXwqReeHL5ubmjPyxHZH3ODKGPfkwh9kVq+YwMzNjDs0oCvYbzJguw4vgmGJqlt19aFK7165WK1crZOy8xrqwlCruzexnjyJZJ92uus83a5EREYaJxhCSTdY2JSPn/8aKfuJMPhObNSsmhK+1TeRkaJ7blfitskgdpoSLk/ON2C5N5DB2dnYssvBfwARNYVhFGEZj61GFRZXii8gjqtde4M6ogGj32d/fZ5i+/fZbBdnFxUXDAM3ssgLkb8SO49D9OhLEslqPxZdMT2CPRbOkFxcX9+/ff/LkyWQyefr0Kceswn7t2rWtrS2l5xTzDTkEmyvC3r17d3d39/vvv0cn4EdVfl0YQOBYkqh3+OPHj1tbW9vb2ysrKwZPsf5iERnI8fEx3QcBEHSnnlbvVbFgVEhhTQLVRgaV10TRi90BmGFAg3/Oz89/+OEHCYZTXauHUJhIDVIpvFnRvAoOY5TIVnKhNoXnNvZmdnZ2dXX1wYMHUlLysCJIE2JMe2P02RQPDIHWarO7u8v4kkAyE/zo6Kg56T1//DCgcvlkBT6mIDmMFASzKjl+Z1v8l1A2z8FWJIijSu5DLLsyYrRpJ7k2fzyErGScuWbBJ3rijiNY7+/v83OfP3/e3d11CKtfB+RgZZmGJ4S1+yActzseTmEKt+R3Dw4OBIW19yoo7+3tKaZ7MN2dKysrm5ubUjL9BzmGun+KQkYbO3LQC0EK04NwZB2eoSnJzdWFFDIIpY40dKDaCtbFxwDRdE+ba+JuxmFNarh2CoFXQbzfckggCzWQBjAnvCwoZ/DHQTjBRQUEzTbLo4048UhS5M59uCRN9FY3t8N25cqV4+Nj1Nim1zZbNfUrx7vZXch/+KP2Ip6A85agrJAFbJwsCTQnWZJxVk1AnXVIZ20MVghGVjAdecYMhZhPNam9iz6oBu1PIqeKFra3t//6r//an+iCD3YNXapaSNEiXFOZyCgst0NEEeAipazXh8tAIZOfhKy7if9vIp1ZnnCuQkN+0A7Wa+X1+UcnUE1MOVQnAxdG3DRWpRdhxxriGh+aQ2evvAg9B7aIYRzFw6OSO0tpsDf80wobtvn48eOVlZXkpUfhgj83ZPzfDnrpDzPZMSVLNYq9YhM3rsoF8EzVo+vuHjuOSxESO3UD03+B9klVWcxEEFqLBG4wqDyVE1MRPJH9EojyXbGUiDBqY3AOks2rV6/gTyKG2dlZEGONciBDn28RlAW7tB778PCQ+Fa9MoWMmJq4m0A7QDTFQXlJhQmXgZMTRFLSjvmHHQUb/+67765cuYJNJSs9Pz8/PDyUu7j/Tl6jq7ADraFiNFQv2nUCSWzE4uIi46Wcev/+/ZoS6s6mqggBjY2gxcQIwUePHumcKM+LuVWSl6I7464XwXRsRZyFhQUaYE5UU7/r1FMy8MD1GCU/20ieUXAVeDPegubYgreT64uPjOVT1b7fgsC5q8x3uh7J42sbZ3T4FVcghpnDmaRLFQCnXSSBFPjo0SPzSTUScgwEAl++fOk0pufSeB6HXBmO1smPP/5YwwGxt6rhqcqlm1hl0OPFThPJLS8vy9DimQgWK1829dE9kqSNuq3pOfAlPHSOUxwzyrvyBGz0/Pw81NzOpuSvIiHOK2yVpXz+/NmU7WhGI7wRJahJ9E2G9SQKbQnacyHMY6MC/bpyM7dB3UkgNVLHmoh4+/Zt5GPiWREH88QFpiNzy7qhoqYnj5rCniTwBNpXhJEqVG46P77yLVgAACAASURBVD/3MKgazJdbubi4qFbj2Gu54GjRdfD/CqrK0rk0cdjY5OF2pxrYPcrhcSW9Y1UdhiviQXFtcF0Xp5NZQ6RFSAC1DmsCWJBUzQ0uqcw87bbuo9qFZoUUf8THkSyjZHCCzJGGD+AoduNYXI7R6EomENH5HydDFjtGuWsfw+zzjwGKo2xnATrrtLS0BKQfp77VBVyMXkeaYquJBsh8XerqS00xOTs7e/nyJSkrXdUhAuJI0zjFuG5xvIhUJlJcynpHLQhEiE1b+Dhq0XeKgJ2JpRRAp2DwvwKpX725ObcOPFOZYY8TZaMbUkWIo4L1KPQdAQOfHnmxd2yapaoOm1CtaezfCnsmV/z1119LX8f5k39ZyHgpaixjs16eIxZjnx7XsuS10VU2tWFfIyUlOQyrWU8J/4EXIgZHohLxKEZzxtVY63TmlRPgsGF1zmffy+f8rVwfLtXcs4aFv3v3TnjuqbwvbRoWTZQJnYIF3rx5U2G0xBTuKC6pMSKCfD3pqr0iDG8nqjNBmDrM7u6u1lqRaC0CgH2EibFvzpl7+/bt8+fPT05ODg4OdLcg2u//+uO2SGqlX5arTnkPo+CIzN6EqyTl7KwUyltj+YiNQixcBsGcz+cOXQngscHzeirxbGKpX7lyhV7Xzs6OooOLTbqyKC3JYqQxaS6Tykw3QwhXRouPAK6GDLCBihjcWiDl/MeICoJtIi3NLbVjN8hiyhTjbEW3krkGtrnDi4uLGxsbjx8/dkL4vNhjqdEmlJjGZyE1CrnqhkyGZnjsTNtHLUKa1C6MPGOHgZB7rQxIBZRHi+xDqhKrC1yUHJbIwhcVaNSVVE+qw8ZPt+CIBKIiGc44EUp4NE5pT9q9Ut04mCBtP9sqLHDS8h8tkR+IrLlKdVa5fTYi/SAvwlo6A3nuubk5A5ngtYyAtwMmUX8sikqX+8qVK4YnyeI4IWcpkbxRNWYcIDtCOO6F8C5SV43kaNN618bhszh/tO7BJAkCyyTJi44dgWQTiODWIt0jhf1IFcJBi2srpVnYugarblVSrzWTSa/6eUk0oOjBQR010UYEbuwYkJ6F1MagYNn0L9ZzI3Ki/x/5ZKRqZHBK7YS5xQTJ1TVghpzF+/fvDw8P3QvD1UZ1jkD3sXrei7NXcV0KspszNApPVmVWzWNamxkTnuqcSMJttJipcX9FXYJCMXRDSlyZhPS57Fu3brmDaabC8nd2dt69e2dV2RzcqtqfSUw0ODS7UarQqYiQWmwzKj03Kjp+ZEzNbLt2JRmFNRGpS/NCB2CfBe4Nf1Jbj7fNb0raY/qK24AyVpj5jV5ZjXSc1RTjPDaqb/R/opapKNZ2PJ1OHz9+PI4sH5nBf0HIOP6UydnXVJfLzMqq2wP9DQaQ22ZRc2BM+xRPKKXKkRmTODP8vFQgFTenUBITacNSBiVGL2VzXT/ZfxiPXaFPQXV8JNHbXXbWlyoUNo2mmWAuOb/Sn1gcBXf9KzjyHq85Mc1d1XIFYHf0zTyM6yqR+vDhQ43ndRswkeK/d+/eraysZCLdGUInFxcXZp9cu3Ztd3dXn9rS0tLbt29fvnwpyJYAIdorPYAw5dMJR0VhKVNRvMN7Az9ALrFVRBsON//nbshHxUDEGu/du3f37t2TkxPTpT1SBabHjx9PJpPnz5+/ePGCG1Z+/frrr+kymMftSIBIRRWRhxrs8fHjx7/5m7/R0PPp06eTk5Pd3d00z5ugIPCan5/XGRMPdZTzEO6ge8qhdTaMEnTcfHNigjecnHHAEur0o0eP1tfXnz17Jl70E9muQRR50PxQUEGZwJ07dw4PD//0pz8dHh7u7Oy8evVKC4V7oY97DBZTpvWmmnIkct6F2pFwp0G6vGNjRZpOMSaKDIXEr2nUcWET7RKBdTAg1qZBoABW+HP49bTVrdzYnoxgWY2LmSJS5SEerqirxmobBGbToW+tgsSgIPKizIW1jZYueZidnd3c3MSfxsdovBNaws7OzsHBQbQ/YBtHtbq6miDoOMXbPtopIaakyN2PY1P7EZGyGP3jdDj5A6plv5WeM4JQKGAsXjVolTIpq4uMrcj68QsJg3O0Nj3mwKijGVTMdqV3lgh5fMSqwygQ49AvrTwIP9KSUak0yC1PN06fL7LsfiUbxJ15a+A0PYe+iJfpNDoeuNQMrG/xOUm0SnUitGHjIc3bxxrm7HJD6pr7xQi7Waenp/3V2N5UsloLsJPfABus6zQvWcskpnEDxJTiMOdh7Bwa8+FQvXKPagi+XS+Xgx3qdnR0dO3atf39/c+fP8NK+BFvTUpsfn7ejWhwdqFwL8u9ap7j0+PwRNINog5jax4SAxJPCXYOOFdQGqkRNSSUHhSWAKcb+QGMFxHySsopQXI03UhcFeF06mKLMQLMTl10omc1fSGBU8G8jBPatra2NjY2iqn+/Ejxfx8y/tPGmWxHI3cKKIPx3f/3799/++23//AP/7C6unrv3j1tuVGqxzlO9lI3a9lJDKdS8JBkG6/GF4daRNUdGCeJFWim76grDewHcne+63j11XoVR5Kp22703KiVn6KS3UVlyKMT08JGZ2efPXumOwz96Pr163t7e2dnZ0magw+BW9DBDx8+TKdTXdICOAnWrVu3Dg4OTBbRyHbz5k1Mo+3tbYH40dERATkuXzxNAYGI/MnJiRNJ70BdCULw4cOHH3/88fDwMB3vtbU1YVM+oEVzhQBsd+/effXq1fHxMa5kA6/dwySs5+fnqUumLssTO/QfPnw4OjoSwNloAehXX331zTffyLZ5Tf3LN27c+O///b9/+fLl5OTkxYsX5r4Y7qdmBOFjGuDW/v+/+lf/irDR/Pw8dfTnz58nTkZVHklF4qE7dZQ8TKQzbS19f2mtVRaE8I0duMnn6pZQMTSF6A9/+MP29jZHqFQq0BnRBZ67InKPxOX4Ty58cXHx6tWru7u7BwcHL168EG1YmZp74iBmQHOWzhWZD7BK6ZbrHL2kyldlaKlmZKDAS4vcJkrcGZk+oYYDHmJtbe3w8FCLdz22s7OzNIxAeuWZTMQ4p2ScC+ek8VvMd0WohvhxHqLexkWaThl6ZEN5U7oqKYqXDRbKz83NqUofHx97kho76t939+tLFephETgGCMp62H21FWMcnOSbN28qUsvuYgpaf4aRU4zDVE9SyGhQGXkdLiogn0cY5RrYJbcsLX1kx9olnV7bV8xhKwsZ3ReurnnKlkvdM2ps8RAL3NibIIPeXTQZVBOLIGQxWPqStm5CH2mo1brOBuJoCu5RYgrrY6EJvJj0cXJBoR4QyAMkDuBhqKgAhmlWjP9GZ72uOzA5NMHJj2Q/1g+rAld2L/pxKjSD+kaZGLPD1SIt0DkKppXYLC4uejZn1XbYyjrr48PoRkWqVo2Mjk+BKG+igsf7x7sFzFdnsLDt+0gZj1qGVZWMdhOqmtQalhwUV6WuZhf/svFa8RoDrUKa6lj3deGgHpVQRv7C+jPd4iIXh0Z11rUZs2LrsdXV03pIxtmDuUHkO6zwL7/88uDBg2+++WYymTSivULfPydk/KchZ6T1wufWsYFg8iGxiDhpfX3djiZWmSNhcSA9Z2dnWmuJVNm2GiQlrxo4sAk5GFozgDcFjrGHtNm+Dj1g7+bNm4Svq9+1hbdu3VIwmkwmbDSMneg0kd53797Nzc29efPm22+/FdSrB+GX8Oggd1Q5fEQQl2722JkNIdRJAOq3ekg/LILYzgYTWDHduKRcwnd2dgbtV2XOJh4dHT179kwKogrm2mxtbZkhoWeTfYQC3r59e3V19auvvlpbWzs+Pv7hhx/IGQrft7e35+bm9J11DJqCSL1vbW3NKv3000+Alqe//nipusbYx6SqgKDxFK9evXp4ePjDrz9Xr1598uQJYU5USxF2GrAeZm5u7vnz51o0vNTKygohvel0+t1334E/9UvBeKh+vnr1Sh1wc3PTyYH40gNbWFgQbIG6I4yWRjOXTgLPhwaHipT+SLhFeHyERQceClU/3YNff+7evfv8+fOU7RrCFhUp0V3Hr0k8kGAH7MuXLxsbGyiDGNkzMzMbGxsOhjyKCYZuNhutQZoR9WI+NafVFqATaaxp5JdXaz54HMQyQDE0hKMmGNIEEqeIzoIqWbjJ9TQIZ2ZmlpeX79+/v7i4mB5y1eGx1FhrbZ7blo1z2NgBbc4kKnn9OnuOjo5evnwJqic4srq62vXnFSJOxV5q1JPM59atW7DzJFHksZD1g4OD1rZp3UyKCgOKjuViSSiCKdiBZ8QQY4ds1WpPGF+ZwcySJ2YpFQlsNtUtQROZhkzAqTDlL6SckpeINsq4kJ0VSn+g8K5KYmoSzdIYCXamGMSYjBcOJ24oYvLvrrbKDMcMTfCLIymwMT8j5pecnrSch/L5BbIVvsrfgNz1TdtBrE0UtxqwisZE6qou7EYiX7AiFwF6zcrVfc+WYmoV9Pz0009Qhgig3i7l9gAXN5pX5QVyUmGE1Qds9PgPIOXT6XRtbW1xcdF5FiXL6puRKwDAX3/x4gUtYW2XiCUMKfHX6XT66NGjmZmZBka8efMGH7TupfTbAatjL9c4j6dWeisZnm13KikEXSdVJtqufME6EdFLKCeB24LLLlqjldgZYFbtoWj0VQKlHHXB19QSRRXZBqAjMYslkjhrt8/uJEEoAK3ut7y8/G/+zb/5t//2366urlbODmv8ywYG/lP57zHwTF4fuhZ5NqDCXoLQtra2vvrqK7qydc+E6tlyiQ5/D6xix2FFNYcHBAIDnAwdJ/A/pQHBR2+RTDdW2erq6u9///v5+XmCJo8ePfJIAlZCACYZuNWUHUEOqTpXuKxId3p6iujGmngYf6JyV98DxEtYtrGx8eDBA7YsAUjakLOzs6enpzCtQI7t7e2NjQ1Q8/r6ei1RpBMlu69evXrx4gXFZg0Th4eHRm+pLNtZ3379+vUXL158//33tV8Ag+fm5v7mb/7m97//PZzv48ePnvnz5886rPVIencMTgGN+wPsVJNl7N6+ffvjjz8eHR0F8NSEiAnnH0c78wy+wjTq1dXVjY2NKjg//vjj9evXt7e3E7thccCB2irdlo2NDfAhIEpEPj8/v7+/H/BDFgTi+OzZM165GR612fLBI0pawVFOMnZu8h88okMbl4jpyR6p4VoQF8dt0uN8enpKgic1E5FctddypKp4aRC6KVtbW4WbBwcHziRf2ID4cA71zQyfgCDWV1VmRQ3MNguifysxiGZDx4QWoPjkgBzmbBxeXy0vMXD1/bdv3yLIknzHkMYeW19f/93vfgcejgCeYlQz+kIm0NKZcvwBe6cttLrPy5cviXWPQ4fPz8/pEAUkgJYVB1iMjK90qKGx4/wSqXJDZcRq+vfFZ8nCJ3FqdFPaXqlM2Ca7hmWRBkUdY6mxctglAJLedOk9lR64S8CBRhbWzCI3jFHg6D8bUjdW+ZM4qAG5IbEolcD1YllupWyESefCl5aW0u3zpgKa2rRdRi5TJN2c28Yeuh3Cd7B0piCBjrGrZqQ5JjwkueKD6aq4YgAO4iZI9g1lFmaNDQ31yJu6hCkOaHeGQxnBfrdu3dra2sKbyt+xIfT5Bdky6kgpdkTo1ruHTapBi3JS1QXvmWjAcGFlSFFAqqo6fsUe3b59G70HyggHYRYiUnOOFxcX/+W//JcI1nQbVISYaKxQIsSvX79++fJlaoJAhwbSNrSJ9pML6LxVgm9UL+oIMXy/At6z2gAmjtvXVQzxdfysCjINFuW+LiA4U4DOsnWYex5oPZxLo2f8llLT8Ok0CikQyRIbQVenb8A811DPn6TaO3aoUnz867/+6z/+8Y+jMpqejeL7vwxl/D//FFMWX9Zr1v8xaW17e1s8VA9msyjwxljV9fX1YAxWuLpz+LwKJlMrRQvvBCgmhYBQX0++r5tMJrJk9abFxUXDf/kwZ8jVZcvsehNgMfP8OhkaGJILhpWv5yPNsyA0S6RnmVd2XVkZ/YlyOAUIDphrZ2IYBbLGqX8xeU01GIflG74MyYju6ky7DIuLizp7cDrRCmdmZrAtqYP+9NNPx8fHSNAeQ84qjqTduLq6qkV/b28PyMRJMCXEvSIbpPxi0L5g/eTkhO3DyQCMXbt27dWrV+wL2FL0vLy8vLCwcO3aNYQ2cTDj4s5wEouLi9IpA6D8y3pawcngKCGR70r3lVFrpKQqYVB6rUX1TqW/U9dhocA4OSl9AJ8v6Yp2Y6+Lqp2N5DzHyb8NJHTG0gDCMQeMEQRdXFy0sI4xR8IrJ39jZz2Jz1HdiC5ZdSbf6UX4Ko8aq6yfhDyaS+4WBJCP7Zzj7+Zm2ETZo9V2Tmy6MNdXaJCq7GhJR713bblOSHp1KjtiSk7CpqRfXSNFA+tsSkPkpARnZ2dQ7eobqXtEnEiQVcaCIVMbuFDy7Ozs+++/F8KyM0ZTelMsHctVRwgHr+aFEJyEU3WxiAopV1xiRJQ/jEy+dI6aw+sSER7n47nqXFEyyOO9CMWphyDioA9nLft27rCmigJrb80sOwC+8ZKocq82Tqa2a2N/NL9QE6tAsO1uqge/2zSvqLqlAQ0FqC+YqiWBpBakqxSsxTgUp1LgiiTqXjcoYcymMGRev36t5pMcjIevQ4I9bEhx0rDNNGr0IlCz5NaZIQF77969/f19hEiUJzgfmG0ymYifmgWAVgiUZZbtZsOOLbJjH68uUnu6Qi4+10wBTTnI4hTMuQKI/iTVmh7ecE74nB0s2LL4FQESPE5VzbWSwHhgRDKgrMKO0n9coGR92YpwgdgpoU7OgLAHTFP7eWIOlxqVnIduZfVAsyeMEbLm8V/tbB08lRRYLSPi1tbWKuC4RBH8/jKU8f/wU0dbl7yfgMAorg8ePLh3797y8vLId06kviZTTIuGKlbugQYHIyFsijZqnxwhZTmlbRvB9uqG9+/fT9up1u+AIruo6UHeAEbKQkVgSl0cMjqZTDY2NjQyK0lHNWD3/ZaPNY8uuQ3f6OEFIkywmGPsMWTTi7yTYKjtgA2NGCSRMrx8nO7Pfs3OzqKm/fzzz+vr66urq0az7O/vawNcW1uToOzv7yvOfv78+e7duw8fPhRWcnjsyN27dzMKS0tL6+vrxiv5z7W1tYhNkc++fPmiimEFkjHzV9UOfvnlF4HyvXv3bOhkMknAsh0ZyXYSEpkrfgxYQsOKs4cZ2cQglBqK35hqEFP8qtjQUadZ85G3xwoAoeNUVQmtTMm7C7MiRYRDFF+OnStsiiE96LOEmX744YdqamlDgP+5CrDQxsbGt99+a6e4Z2EfozyqFXapxzbPPP0oEh6p3OvYl3o+LiWT9kLyUzdYLMwcfJhWS9rM+pT8mV2lOvMMxIjIFRGMfC+HGqVyHLRV6sJHEmGIm8+wwDPq6EwFI+20RnRwG1KvePR1hpLR8fpeiq+1FwVYDeKnG0Lvif8Lx+Wex4kX4dYJXUWpFIIIFEKzCkey0iWZEuxEtRyYCFhjjwvbiFuWCW18RW7v0v5eSjxSKmaywBv9YTMeNckG/tUpGOM5qLXyfQepVC1JHTuYylIT8wpk89alKDWcQtS8bH1m49W7fv26Eo1Fq00nrL3waKROMdSSIg/v7AE+3a9xDE+1aUnjKKbNP9YCwvc3lh2PKP3t9t0JF/fIrLjL5eVlIUU3NwJAhDw2KuhLcJbCSUM6HCR3586dO8ENEUNnZ2cR9YrRhc4bGxsKaFZjbC6pXsGUAVb1UBeQjPKofIFo27VNls4OusgirTq+xzF19VfFA47+GOm2eB3iqLKUiZbTFvzUBVEYk6ws39qcKgBnw73KXUfVRvkGQr9eiyhb8PXiHLRLcoxbW1sZSZeFW/wzg8U/K2SsVJHMQc3qY9+QDMMNr2EwbL/yVkOiHAsLGpf548ePRmVYPiYymV8Pw3nwWwF1Yxk9e6ejZRSpQrWBpRldrRDpReZ+/ZHf08Ab2VE8h5uz+uuP0xZzBSKlUZeEOJhwMplMp9PXr1+D0JmD5eVlw5EFT00mDUhQFcXmlPEIo1Hg60vFsTPS49q1ay9evHj58iU6sKjFh1MROzw8hAv+8Y9/XF9fF4AqByBGHBwc+DdJYCwsLPzud7/7+eefNeuoUPC7R0dHP/74I4DQ0rnAaFvopN3AKuPLy8uvXr06PT0F47lO0nQLLoz76quvNjc3379/j3HIU+qM+fjxo44Btpg8ONc4mUxIfykJkX9nxA8ODiBAUWH8+83NTdT1EvTmMiUfrecJ3Fsjbf8s9JFLGwU+Ch/Tumsef0FSt2mU8yDBJc6A8k6nU7Tx6uMNTQHDQFslMExGKClDr57SNLDEvbrFDliIVF55HBLgZDbtOqJStLkxUQYmFacWSY/DOeI4Wo3CGiZetas2Nf47yyBj5Dyi/UVxrjU1gr+UPQZCPoZJxUwSlHtHzaoyw0QuxIXxAmvsw4JYW1vLdzpLiLPUl1JgsFZiBQan1/dGsejMcQZXjFMiEvIc5+vES64W32jvGu3T9oorUluVK1CO3URduxb5ifsfJTmT0UkoZwSS64AplPcM/kGzHNOyDQmuZZvDjt2VcRvR0JHA2v/vu3IE48iTcXRvQPWljy1YlISPUEj92r5FI1QIiA3iFq2YxEzx1zHw+ouLi3Aj/ybi2sOHD/G7UkQKtXH7JJPFVQkU8KSs1tgrnUBgN0KpitVF7En+xr+HZrF+S0tLKFjuy9zcHGdNcDRoDabOVYkaU7BnLvSvAB2UbsVAiVpE1bXvLHbKA/Pz8+gBgt2GAF+qkCBGi2hLWZtUySdyOgLWtKsYFq8j1W9SSxK/Vd6ZWSU+e4TAE9bT/Jgsm0Xo1SK489oNu691WDSVhFM9PezV7du319fXyaQ0TN/GJW4A01laWnr06NF0Oh2Tn3hEvyXKmMOoyhamWI2sG+Kqj21HyYBZPtWiN2/eGIEwHinot3G3KggQx6YAORDkqeRqIlSsHZwD6+jeqh8VWpHoEwaZpYFyXoejmwAYqzuP3VcmJiUjpfCf4/AVpl8zMjCSadCq4naxLH6RBo1gpTJH6gAXFxerq6vCOErmjo7gspbVmEaLi4u//PLL/v6+8FGe53hppdzY2PAJ9+/ff/ToEe0VY83Qln/55ZfDw8ODgwNojYXd3Nzc2NigACIVE2JSWzCRWZuIw63nF4xvr1X2te5qrDs4OGjkfNqKocuzs7Pr6+tPnjyZTqdPnz6VRbgkSC2Se5EcwNLzr6ysmGp69erVnZ2d/f19R4UpFKRqd7A4d+/eJfRoXxz1UP0qtvm/tDPchQT3e/fcWO5/NFVBPjFdUoZKW8TRzfgW9qngoN8xsn7L3Wx2nLy2or8bNOrTFiGNol+CzvpGR9c7SleMcr6OVrJWifmP04FVx4p7ShrHwHHsSglxrJAU5OmRNGPWeR2M0bCAWhfrrbHOXnCcjRbg0W6qoQNyKh1C77AjROEK3+a8+8dCHwdmYWHh3r17BqaVCa+trT158oT0MYhiHMtRV28DSHlKkDlrowMvfTF0Z11NvGZUnHStnRYF+sPDw9DQorqYglU2femIr9TM0fi+VPea61NZLYrheN7+KUV+DNEcuXIzH/XmzRsUHcEuQC7BQrRp5kUhKDZIQGOk2L7dmkcRC3VuHLYIaZxSVlAYnDbSTooac47prFU/iVscz2EcD5uUD75QN9rBu3r16nQ6/au/+qt79+6dnp4a7sANuRqGXAgo2begxELz2j5y4ihYwo5kF3k68IcaFCMpVNrd3QVGOt4rKyuG9HJJGK7YX4AD68AjYF0zO2LiSGhj6Wxubs5l4VYkRRIDt0xoLgAgwm+Alki3F6+eMFZdleBdH4lT1fOU1ROjKddtAIe7f3R05PiFCIzpce1cTQDqr1TGIut7WlhSTXsFUalMQKAbc9W7AK1snAsCbV1ZWUk05+rVq0hZyQ6Y3Pv48WPWqdwp4LmfPzNe/HNDRj7G9gRs1qIVBCpaTwhXZoxWEriqv08psL6kJnzs7e3hL0prBOPCC9YKv1i/iMOnwH1xcaEtpka2BjSxyAjsbg7ABgW4doSEOZoU7mILF8gu2jDlQkvv/nz48IHOrQHqk19/nEjOQLuJ9OL09PTg4ACO/fnzZyV1CwtV5gMEvvrIvBRifhyd9+/fU1hozJdxQE2yYmQ/ffq0sbFx//59CDzXu7u7+/Tp01evXr19+3ZjYwOpsWmzukYWFxe3trbcGfuVoljD7kriNaRDB8nZSAS5ScyBq1evCqllwA0oj8zutDBAt2/ffv78eaNIE4Cky5Bvu3nzZioMHINXQ0snol6Gba0qu0g3GcpMrWJKsy5d4+Y6jtrIjvQon15PcVI1fioPVaoeR+p1dWPWms0ozh5JwKnOjtB7kIl4tzZVjb1+seEoNYfR/MutInGOyslhfsFF46wmeJi6z/Xr10tpenf/nhA3YkN1nDFMadpvWI5bIPiOj6vDIKpAQBSjUcDKXkURKbl1DEqEGJwKCO4LkkNlEKG/qfQHv/648nwDdJ9tjCFQsw6BUnDF+vr6gwcPlAu6uRx5dU9i8jADXRRNOoZUaWttELCiXvT2uGX+yrbCgYDHrkBt3Y2VY8pGCejUQ8ugsKACgRJWq0Nx7KmPnljcWe14hB5zkz1ALnmcEyYIgyIn3B2exIyPRer4IUkDjkX50qH8WpexbLw/7B/ISWSnPtlfVa90ogTxOoTESaP4v70OZAXUiXgExAU04/VcXV3d3Ny8ceMGyQhPFUTN5fnqkdYiN5ifn2/QTuEvrg6DELevxOzNmzf7+/t37951VXNtMWKNwL24uNjd3WXDZU2Hh4csdoSKtPFDSZrlqOpdZUn3lV4iY/S/fPmysrKyvb3NKDUeUMJTnMcU+0XR/6jM1Une398fCS0xCNXWo4iw+ZERYcAGpQQHjvPQhQegGcb59evXzGzjlyq0uo/yActo1RsftwAAIABJREFUJtDe3t7Vq1fFCdAlmFTE94gK2W38EIfZAcsAGmkYy+ju3buvX78+PT395Zdf7t27t729PSII5W8VHP6in/9vLuMIZYdyj3F9aWh7YNvY1vPzcxOTvJ4SrRb6GCSd9ZhAgv3wDMFfwQHo3jShvNGovCoKFH6Jpdjl8/Pzvb09YZwrTa7Z1VWBTQs+4qOjqW+x7FMe7GmTrULF01RRQz7srbgH7d1vAZYnk0m+wfYb9wKPFAz5cAaUCSs4EMgeHx/zKOPYVu+1ubk5Pz9/cnLy5cuXs7OzZ8+enZ6e6gO9efMmVZrMZWxRqefTp09//PHH2M3MU3fv+vXrGxsbT548efDgQcwbkpCfP38OcawboLEKye4UDzW+5d27d8+ePdOsWu8k0oZ7zlxWv+AFOULtxsfHx7IOujnN+3c2xCjamOqzLpLjJD7840+VlFFrJgfc4U9QsHwxdbTUXpIy4T8ah5MIcwfGwFZx7Zs3bw4PD2XblZPqSg7/iAWoKOOCTCYTt6Okk6+FbeherOKZVnC3vuLaJQ6iVZpOp9IDeZEbXdRokaV2GuHjd47ly1FAu/gpnKY1ryktwQ4XvKFH1fTtaUFYGt0JmLVNgEPeiwJIyYMTvra29s0336ysrJCsYpTTXKzE79o2MLOzUe8wjeIffvgB5cNpTPwv1nKnsenttoYr8ldQGcdDgjFqKd+5c2c6nXI5abkLUMJNC7kCjwsZA85TC6ouXBuHDyw6vERFvTSoLbJ7PIRUMMMgGxfE2wmFRbQ6GjnImlEwIKkulHBWVg7sH1O+kXxZa+o4QM86ND6xuT7J2sds9g80Pgr4akOuqxoeZhmbIqsm1mj+EXF0JKpddq9fv359584dxbeGGseA/PDhw+HhYWSJZKFG9+QZqr9TG9Cm7Zknk8m1a9c01rx58wbfvavqMl67dm0ymTx8+JBAmwgs8qIU3U3noKk01N3cXuBZVZuWYGthKbaO2yOuqhkxfXuQE/BPTpWeUT0ujA9jm/x+bbLjRct7ikTRwVkG24Eo//HjR72YvkU+VuHFUwni3eVGJDghxgUxknZH6QwfjPxzs7yVSfV4EHNtiJp7gXASr4+ahNbeZq5ub28/ePBA6y1ddALsf/zjH4P/RurnP3Ng4P85ZIxxNbYfFp92IQuHm+bCnqYrm4IuFKoaUE1wCppCPewHh2BpaanOTXde5YU3ykCICOs7ToRM/VTNzovUgbWysrK6uiq+dCVavpHR5XkYrLCK5jWForPp8hUBnMxA5KrxcGVlxZhj3ZEakP0ugNNZPDk52dvbK0k1Osw7WtXqUKq6DXeKbxfLirGgehPHMcRb3KBIcXp6uru7a0KjApwhTlLnsB/7wqbcu3fv/v37zdaU/TvZhUpfvnxRtkgpt6CWLRhVY8KW0jUslgpyr8DEAef2HCTtL6WD+nU8zN27d9fW1uTr1XR06knEm01cb4F3SRHJFagVZrTjlwag5UTrQk2QpRqxUgX+ciXXwhfRdkOf83/hrMU3xXxhlhgtaj0qMjX8iuOTZWlM3GhHvEjlmLH2Jy+aTCYGmmtIJ03QsDtRnRWuS7fntDL1hGVY9AekXllPN7p3/qa1HWVc+lv0r6JD/19+FTAcxyhCOqHK7vUvv/yytbUlZPzTn/4EROGo5A9+RdzvDkZLDzTi9nZ//WGXxqG00ZUKdyoER/tOsXJ5eTkGAi5K7IhqPk7L7OxsdV6nFxVHphHjbdzQMcYaldh5bpd67D2qsWnkEY5z/8aArKs6Ul0dkrFGH1T/T1mVVZxrMmte4qUmp9gazV9uVGDN5shC4zThBgen09Qw7vLVoo2ELBw/aNnt27fN7aho2JgoHgSdoCG3RB5EwBJLyHEN9ZhUdRPXJ96EvRQx+aOEKl1/FBdtXgXc7TgLrL9HRMKvjdMmXWFGm86RM8n4NHOFSWwSKWIMk1vbMjOlymTX5ufnBaknJydUBmMJ65qP115NPyj0/Px8bW0NabtiixMSxcWGJkqfSnTN5h2SiInMi9XL5qsMJIgxsmLGCZC8Z7EQD/jhwwcJT7QHy4s1ZGJtlUCHZJwGMvYb9e4kIFBmex53U8/+xcUFxNezWU/mAriWAexu/v+FMvbCLk/kaCG2Yz0KNMSPFsS4IbanW91m15Of5ZJJl26mkJ5C5GiAamd2Cvf39yHYpqWNirgMhzTR0i8uLj5+/HhpaUnupXtDWiBAbEhDZLKxzdOWw/8ysurpACRVuclkQoFT/gdxFBCnUtb0TG9NgZJqlITbHLnXr18fHh4yVd7u+vXr5BjNAFQvS+tOoubmgKnL/iN98lL0dwDs6oBgeX9SPBo1XsxkeK4EdG9v7/z8nNbm0tISiSK+hPKOPuWYRg13aXbWOHgjWGvkrsl9HXdoilC7v00s1zUWPtLdNGFcSeKnn36SKbpOKkHqBRQcfNoorlHRLQXsarWsT7Obxh7qam2Jzfocz88uuORjz3I0tfR9anlptp6rl2scwxTbRIYmPMaEaLRRPSKN//bMSXUUzDXgQY4Ux4tHSY7YcY3KliBi8CEWrIgKBaoqz9j62gB6IWPS4tZBEOkh7fLIgZFjNFqtnjaw/Ti5ZGQ1VMWbn58fpVWcMYqkqhmKaygxddkjyDZZOOkrewevunLlyvHx8e7uLhpuEKAVtvJVGxtEWx5uqev9NAShkza2osfc8vB2zQGreJe/ZELHGlGvUMLskMskOcL8WWTcGjLc4lEWeEy8O2DjnGh+dwwoR3Ypb5IejShqVOHI3dRgV+jcYhbNwNusBl/Qn/crRa751EtgIRMtSgPwqMl4fnNZCy4LqQsjavi4e/cuTO74+Ng4VggWCqyz0Wo3N3lceZe9afLdrAYACkbRPUM6/fBi4Ik7d+5Uh03wLzUSJR0RdoYRH8zHek0AqixUMJC8NlfojcYCkUDTiikAuuwgNwLdna5oRUz6zz//LEYnGDKya0blpgx1JJCqH+zbyJeQGMQULN41qzAyGJXHAF2hAspmSpwZeWZZsUidCpZk46hjRq93kmuIaT7C+fl5k6IkbygijdSX4Sg6exKfYJ5Is7vc8d3d3fPz83v37pV+VBAehS/+b0PGMYR3w9ON5NjAGCkD6T/1Gnad/G+ROHrTSCeyuEmDanSik16VVq9Wn9CI9DQ20XKl+OyyuG1U/bh+/frvfvc7WTunW17CLYEAb9++/eOPPwK0WerFxUVc8vrjwp9Aa9ZKt++tW7cODw+h/cpbaQSIKUnbvH37djKZfPXVV0+ePJmZmdnZ2fEPYPVKiugOMFG5BTECbVCIw9evX79//75nM2maDkL1kaOjI09oZBMNGsEia8uFu7cuoT1id3zmWABKS4KAyNLSkuGY+n48gLFA5+fnvnR9fX1ra+vFixe1JlDDUcEfJ/mmJm0rI243hzQ/4fyQdq/M58KLAslo2S9Zjf/z4sULuB3UlklFasR0bu5WLpYVULGKzy74iE11KXKKp8FFOX7jMKTaRREV4oYzvt2vop/aSB3sYqa8WrbeJqbPYiVlCysrK9hySatkst1fJpgRdLMWFhZgKg2Us/uISiZMqpG5aBwVRe5y9JyxWJy7DVf2twaF6SGoXBI0aHE4+1EnEl7YRIrghEvS8eWKtKjQ4DwAXTCgThzTK1eu7O/vP336dGlpSasmnwftSyw2H88cWagE9tbX1xcWFtwyvZmtQAQ738X3VEl0xopoUVpPT0+VBWNEBGihrDRtAktMDUS87nPGNi8kE9F54G6j0pwNq52SV5rbvn3kKY7NXuOwtZHmmNBJKaLURXKS1y82KvRJNCToaNSbDMKIHjpOKXTv/Ofi4qJm3pht4zj+mhvK7kLxxZqCp+ZbMrP+sSmsUrgCa6VGptvo1/ivKWyfnZ1NJhOXSytkxZwyZ8C8gmYC5nZckUrlMZaCwq7ZquMwbtGYNNLDJ3RaLctXS4RsMRaECKOcPFMzPz+vaJsuUuRscRiilIUVmDIOUkfIWZV9tfLKU44ZU6avSISUwomimQa7Uc7GgRlHZWZqApijlnYrsYNwqBxOSsBhDcIAGplUuuLKw019uwDRrh0fH9PjSwceVqVoHizS3CZ5S21DIxsB0ChUteY4S44T+TlQ4v379yMdxY+/uLj4D//hP/zLf/kv/+qv/ioF6BTlfmNdxnEMdMhBraBQ0JguUnl/WzG64U5pJrEd0fsM0wSDCRBd7Ahn0AINLhsbG5ubm6urq6CXEMebN29ubGw8fPhQfqAjie1jcW7evLm+vi5jqA0Ct1KG1xC8WFMmnRi+PDMzU0sHKjr4IYKOy/n27VstPmImPhuJ0M/Ozg7qnt4oCYpow33wzDMzM0AOjlwvm8u8vr4e9Q2SoQBRXRvvx+KASGO/Ol6ezb0qCw/bc1fdava0+l2EG25GM6+z++7du0I0d/vLly/Ly8sbGxs0iRwJCysrEtMkKJWbLFPv7EWZajRcdZbw6aTjoyePXbr5Tq/pYrM17JH7XFtVddVw2a5W2lrM9Ggox7sT3pZ+SiKClcx8hTxB0iICBg6lhFIPSvq6QoQ0zFISaYVrorKJ6kFOuFDAt/R20DuWuoCs7sV0RiM4smgXFxe0fwv08XTJNnE/NUfLTKRDMTpkC7UwlzcD5uXZnoc1ELinbZaEVnstxAk+jxuQjPM4TFnwMaJo1SjfvXunG48/LnvRpG/rOYbUZ8OETJ5YXFzUCjaituGpXmG0YCX9YZDBJDz9iEcmTYwSIA22wgESgrxmLIVHRiHoSCf3yB+7Mt395uqmOxOgkO0aRR9HqNKDRXCsUWxk4idcFcG9EerNCOi+jzSGCuvVUkQ2ozEBW4j5IGGjGkvHxouPnN1xlNwIQDYP3THgUNixVIRSkHFWGZMObYhv5S9s4KiiMzMzkOm4N9awytvCwkJCb61Vw2yjpNdqViveKDTNwsPtqM2fn5+fnJwUu1fcMD865YERSK78GMGMb+LKzeOlJSLjKiW+devWyspKFYZktFlmMEftgxmu+ghDSSVdNaqOYHlOOUwu2eYQx/4kXMxRsfLWs1LvCH+O1U7f5dtTcQGfKV0KRhtQIpgbPVSqRsCLmZkZmGv3lPvgOnPEtXlZB7vmS5XOuCeIrDY+hxlrE/r7FxEZ/wIp71GA148rF1QuLINIKdCMlP9R9zKBjxxz/6kzEUYtfhLq6S1aWloCQwrgRjaSz6+ZQ8NN4YKIamVlRd/l/v5+lhoidefOHeLJiDKWG1TgdnlTZRr7JFoCXSTUBF4O6hi1GBx0doGcoXBHNl83ZeJYyOz1cNRozB+Q759OpysrKzMzM4rCoB3RmI1gaoW2AgWEGyMNgeTmuGigGWttY7qDETU2THhUyvhm4Mqh5cFZ+du3b29ubq6vrxNZ0B12SfbCZQbRNwcpCmARc0MUOpDh0w5kYzpBF4XjTpE+gJgiDS+2Jt6ateLkcAysT4yTappZpWwl1kE5VXItnqGDkW52DG66MLbD2QMXMV6e0Nmus34UypG7J7qU1Qs7Gb2s2+SgxsCLs1io2t0cFaRrWRBgGYZJ1FpCIpSsB07qyJOVQ4+FyFu3bq2trW1tbUnck8PkROH3ueHaiVTWGvVxicNQFXskaHoSHqKpa/XKyF1BRFVUbCKWupqAP+HdE+qrFBWsUntsQiEKDrV1R7+x8gUiAfl9e15BVuC7oqtG4cWRqPsYsxmcz3u1ILmfxGIiSIg+bdMYHkVdGOWW2PDC66LhjmX6su57TPEK0P0D/1lf1Nhg5+QAjZIXvQReRJKxy9KJonmv5l5T04TEFD2MXVZxrCPzZW1GymyEV3+LDNB5SEik6SDsyaUyvaQo+S2WHyWjhq2ScA5uFIHnsMDGp6enDrDlVSO2Iy54p71kvsKx8wCVREIQsghx2D2RnCufQKavGDmmpYUtY5MtIbsOZE3ixQ/AI/EQRDlWlcTevmsHtuxNW/HMzONI5Yyi0PCeqIfMAvr1qA6RgrcPb0iYkVra42rnt79A4mYiMJ7lA6DEqsaxUTnfT58+CcE7VF6BtIuafuo8GWQG0C+WtVb2dElNBxBgAJXzUO/fv9/f3z84OFCibNd+YynvEVXKkGUp6pVutzyfvS+3jsvcp1EiJQWCr/3x48fl5WWz+1D3xBYqtihE4qePHz+SfanZk3GJExlVa7QyKpULCwv8HLvvQK+urhJMFlhkoWASxcH2bGwyqnlWNa2xqogLkpWFhYX19XXRgCMez0llygM3c9mRbeRr6uI6h6BHLjZtVQptXJpSLOOY/sXZ2ZnfklZW8ew1VZ/h3sGKwogYYGQmESyqiqK28AeK5i6wTxYjVkRQe8VfHKlaWCN+Sz6aOvGoEThSF2qdrk+imKwp8hlumRmkueBDfOOwuWApdYW9QbubgSFFGSdJFKA0CWmUvkuC1Uq+fftWLnTrH38Aisou4ngX3rp9/vxZwOqsau3nDv2DpodHKrKtipI5P8iKf2aDylAd3cpkLogmzcpVqdn3f5yfxhc5ivfv39/a2gKKxO9ufZyBdGipJrnUSrdpHAoHgfFYB7TEUrGBsIrvR6woV1Fry9gUHNJQB150AtkImVh+JWW45eVlE9txeUdsKc5iEGMaEXEDaGNdXFwoKYyyf6N+50hqrJmpwLGsMiAkPMMx8n8S80r1KWpUdbqoqIXsjVnDcJUhjGLdlSAKIkeBpxHM+6cNKKMfLdTo1zsbjakMCavcnHxPWzn2YiYsFSjeeA/Fq6LA0h67Ns40Kqsfz0nePY5mpn6cGF4Ptbrt2E/TKCBECPaEy0NqrBcbw8o5NPikqd9h56Oifn1+UhTXhIiVS1cWjREUN6M5is5tiG+1MqcXVJE3hBQ20dGnFbYW6DDsRJE6J8QETk9PFWTtSH2unclWVVgmbMU0+/nnn7XdVOtPFah0onmtI2hdy52lqBm5QTXcTRM6UglNaRX8AQode6GYOE8exMMfRa8XkIwj5VKAH5MTnLcRVEq5yclhSz0qzyLFlWp6i0YB1+2qDH1+fo5QVHrJMuzu7r569UrLeXpS5au/Tcg4Gq9yxAoN/FCZh2OkRbqrW1I1KvCldzCCPb7Op83Nza2srAiKeyXJCg8a0wvAo8hoKXnZChBihdiW2Y5RVasdUoQq0Uwm1KcBFBMjTUMRUakMhqqC54kMNA6RFPfw1iIJjjCVgWhGpvbFV6ufi2zBSDJLybz4OGUZS6phPHC+DCN1wJxZj9E0wl65BkORMYTYjiuDtnoi4CTp7bh2H41KOJRIwbClubm5aANh0jkkjlPibg5Vl9bnZ2q54Woo4gAE5wwNm0XDYpwWOvI1q82F/I9Vp4j2/eIoItMsmRRkAhW4+el0urq6iqWu5ApgaDihTCOl/h67ycIjEDiOoSupS5Y25DtRQHcngrndIbVYfNBA6uY5FW105fXobW5urq2tHR0djUMF3dAo6iFDNT8pSZOcwNOAceIJCShXV1dnZ2dd2KbZ1qfZpgfRpUc9ormMmBzgUiGV3+XeHGy+zdQWehbZK5eaR+H+i559l/d1c5vxCp8YDalzBfvpYNQmXFyV86vVqaaWilP1AxXtacKtYSiJA98+DlVzGf2vqo67L3oYcfpxOEoervNfbWRsCOseje0ISbCN6USJvV9pazrDfXUAUtDDqGklXozSl65FxNOSgaQKwzsvoSStUt9YwNoMyZLSZuuNEQxV1MlkUr0VdS8pnKjkfUKyeT55/FiPxH9VEFD78ieiB2XuqPYjhNyAU0e0cS9jN+Ro7SMca2HhEUbm0tg7wkZVLUxWUELuAKShCLI5OjoyVoMlZ83Ec+DVN2/epGLjH3iLUYO6pqXWyj/oHo3cFZsYWSU1x/QsYyA0EQe06UmArImz1jUVXysRUK/Pa8CYuGz8Om5u1GKMTGm2jXBfXU4bPrAJMqUntT56dfPFxUW+JnEDD5B2Y4X1g4ODvb29b775ZixJj+X13yBk9FMK5cLXzmwDMk9NWG7wJU6A89c4LzEWygV/pvPAgGMUzp2dneAi/HpUgNBUX1SYH4fAKgD5HL7ircPDw48fP758+XJsCvbnIEkDUZqnPvYrJM2fZXTZoCbQSt0wwrIQpoiJMfE1rywsLKgvs2JpuzDZxsATLIQ28bIMhP58NegcJDyDAAoNML7NBnG6jWOu3BxZZxw9mbT1aMK4ojYOnc4wft9S/0Gb0tAOAGe015/+8Sdfklhrgt55ApdhrOmk1uaxRz6T9WlObppeIzoysqElxxxMmtu+ujJWNOQ3b95Eys5Jj1Jqo+/JrvlzzwxIm0wmmu8o9hXx1KFMka72eaFAlIaUCAOqrT99igSivVQUDq601Db5kjg9GV8tnMUN+mNkIx1pnybwXVlZqQnm9evX3b6iB9E2s657nfMGhwPDsJmJaPz000/T6XRra2tzc9O8vnfv3j1//hw8yV+a01++WnRSOb64v0h6YWHBe5X3erDDw8MMVC/IOjc6uWzeYW4eV+OLsI7AJIlDFXNw6qPAtQS1WTgVamKRchKi86gRol5/O8qYpyAD8nck3K+kIkMRqq7KOaOZWswo6R2JelaCpka8rSreOEBFsdi71M3TvRj1y/rASzhFf3tpOkV/UkxZnxY8pgHl4yvzo9evX59Op9Sq496MevgjPirUqM5eBIkZdUnnq6QOTV/5BdPJ6ClAtTsbzWYkZGfHfG8EwWJQnlTjiCfRwZCkrpJIRSQUI2zg5D66741XjtTx6R9/KnS4s+PgxOLsCozsdjixT0ZV4uhFTuJmnQDSLeRIk+4astDYes/DLcqoqyZFjQ0mH6etjNKMSbZF8htJwCGLBb7sZNwqF+TDhw8aQEcyKFzWY0SILHIV+0YGEDdr66l9UHAvuhizfQ4reneTWhRjBfrRroI5qlTULuI6JyIb3H5ycrK/vz8qgfz2IjtdyzSEyZ4Jd2zkhw8fjG2tEo2R0Pz1uIxjWpNOOnmX58+fi3gcFELwcrX9/X1eKsa69eVyEsoSKnFRgRwYvo7v0dGRX9E4TMjU1L7JZKLpCaNua2uLlAYhAC2c0D5Zu16ZyWRCr/Ho6Ghra2tubo51iHygrKzk2oyN1dXV3//+9x8+fEBwfvPmjQl4sUM00BjExN4lZMqjyw8QWkepiytXriiyY6KwU/DdgMORrBPpBOCnXOJLwQ+2sktlqefn53NIqFqO7+zsLFWdvKwq+f7+PnK3vLP7X9Ghgb9l3gl/NCsi0yPCI3EiFAuSqbQXPuoaizLr8YzRX/BXcBlsIxoO+a/KDAAbvd2YU43E8IJdhqOhIysrK/fv30c/3dnZ+emnn+xXKu66hjVmNab57OyMoHpaGHWIF+XjD/Au0MSlpSWd/igyHr45FixgY0J8l3SfO4mJ39iPaJoCrJWVlfX1df2Sh4eHZnKura15jBQBpeYGjhXRumgNXZR9meEZcMt0GJr37Nmzo6MjPXAqbpc0/1P4KigMakqqRgSZMB6UWu2sIyEtWVhY+PTpk7nwuPaCXXXqt2/fjrOgOODkwesUGVN8AVmNLzxTyUm0PId8bm5uOp3evHnz+PhYUQWTOMhKzKGM01Za9gxUnzlOiSz6gSzKBOIfQ7vDq0YGXt+SqRnrs3xt7hCOXsjewLSE8TxAHmukoIxPOyqQj8qCI2Y/MlXqnkzl15Aqscv8/LxkO0QjedSao8eh6jFoE4PTeM6YVEGuWkr1GnvKKo1Tc69fv766ulp7aOFULbH52bFii9CfdqzzLGkxUNGAOMe+Xjc3HcHjxo0b67/+YNelCx1XgT0JIJf5xLpm/1OETTsz7UarbRShRp964YtaBK/wETwlw2P39vYyL6bIJpwpxi3GaiJXlUyuf5xIN+pGl+rELk3t5FI7f1nKmPYnG3L9+nXaSTIB3DYrVvUZ0KPg04gN6yapgxZpmReIO1cNhaqNmF11Kw1HqB49nU7dbuALC+bbj46OPIzeTehVcCNvy6QfHR39/d///b/+1//6m2++6er9xlLemYz4BA5oTS3cjFCpsbNJaPqpgUua1QX78v/8we7qJ3XK0I6gHYYJiuuv3C6ABDNBwAzsJ74R1Bum5Fw2xdIn8G36vB48ePDp06eXL18CTblkXqdxcBDpOpLiiLBWQZVWLItmtLEg2zoIzhQC6CO8efOGvquCkVhEzCH/8JqQJwtlMunW1lZMprjhTgb4Ou0JSWFdoo3Ydi0ZyuoRTIPsyhuN/bMJYqszugPSxLhcZv3t7u6mN1RBWZ1awRHGFvYejaaemGAep2JsPEzhohPLBLBKDQMd22Pj4I7xn3NSEQqFvMJllJpL0sGXCE+Ody6hRhyfTIn36OgIf6Bk0YcIH0WHN27c0N6uV8khb7ZsLJFgHgQMH1jLjswk1+6uAaviVloKHZRKM2S9au0KnItSMz8/TxOUvprzw6fKv8k52Wia+eDSRrrFx4q45srDSHAlr169ur+/T/q+dubw42YIjWOORwtYWyKaVOJQwIBUioqJmxcsE07Pb2xwDgYTKTpUVR5GUXqWKvAj5aawcxlR/ruIbSSDOpP1AnewxwGSo27uSLuM1VdSWttp9QfX/FJfTohgTIzQvixGVcLguppyavKtnlup+tKkULd4lBPvi8bZYynweeaUOxuSkYjgpbJytlrUZZdjmGVYUkWoUbfC7jgRXqOGUxHRpVX1t4okKSjJN/AUx4mUo4BxU9BSYHCVUKE4FGcv2fZG+CZR4hdrlBb5SfJr1k5QotMiZx75OcGrNSQlCAXLTOxddVV8IxcSSTcD6cqVK43M5R/F9CZrHB4e3rhxQ3+JtpgUakrFweRjalEvTmhiFIXSGzWQyBip/8bCT6B0vBqFKHBi/7u2ttYlYjCTVBMAiEwsL1To9u3bYvc0s9KaHcdrmRPDKEEQyyKouIwjOdL2arZ+8zjQUUzkYg/juozKixob/vbOllHXAAAgAElEQVRv//Y//sf/+PXXXyen9Ru3v4y3d8TPg3CqJPZ8pFXqCCtR88/Y2biJDdnb3Ny8cuXK2travXv3dAGDHo3BgBemuaWlepTRcqzTo9YoIGoMYJOM1vrXkHKZhBiFlwWj+mezs7PT6VTrSUhyMnugFAM8xFWTyUQAneR9w0ldFSHI27dvufbV1dX19XVhk0qfJAOhsyCVW2JhMeuL/6SPN2/evH///vXr14Vo6fc6MTdv3tSa6vkV+NI58p+FjImG1JCOZpG4lDibBlD9E4Jy14mftlx37txZW1vb3NxUfHz69Gm9iuxO2g0SO3SNs7MzwpzNC4nMqsxXy0vuIXZRyWLitFmKxktEKhVulucI1HLzpjKMs3ZGRYlR62TsSRynXAjjrAkshCyAkVDYBSxpY/KdRjOgPn78iC/xyy+/TKdTspp3795dWVmpOS4+eFpCzUBj8bs4LctkMuFfM8fQZYwrkUrzEkdKhveCH9fPe3R0hITgTEobeOUa0fzLvb09tXjuxxVOe1XbPgNq0Uh+OKU1FRrhMzc3p9bR7IqKiaMKRlVLbQrMmjZeJ0FRLFZWY9arZpb0JuzfosUeQ5KR5de9GIESX7lgMadVeplOQlU5vDf32jOLP2oALwwVU0aWEFnW9TVyTvxAUJqtHLnIo9rE7Hlg/MhGHXWS8wut9timMOLuJVGe2RMWfYYvjjhFyB90LcJo89BtFnjVAwf0JhwY/N/0XlyLOKDFr+NIzAKyGCMjelKn4+iS+JeUoi8J+yOZxFqunit7r3O0MrSpWouLizIofWb1SzXm7pJeclKyTvKtW7diA7OWFX8RXmOvNnArRqCT2dRT1yHsWQ26Qb4C4rqSVc+rwsee5JHh+kh76RXw6dEHYUBwjUt1/PogtW35qAr6Bf1hUuO4lxoYQgeS27RH45xxsrJeM5lSiGOdSRT9Gn2nFZp1PTo6ytc4t8J34UqyuLGGfDUHLX6YTqd6W+tpA5Z7nrOzM/XVIgTONF6mfUwhy33/7rvv/tN/+k///t//e2qv0Xh+s/aXosDIiDVVKbmWo7OADYCfn5+v2A+kEacXymB3CYzW1tYAIUndvn37lndRUKsY0fjaWpMsh9ntvKPAC5Ri5N379+/v3r27urqaA2DlG0SR5pMOsjdv3jx79sxluHbt2tdff723t6coZqEBmc635m7oOurYDz/88D/+x/+YmZmZTqdAFBYKdM8OEv1eWFi4d+8e4JBfvHPnjj9RteSEslM3b96E4flScCMrwHryx8q7DqiDkpICs9vEcDaoIH6kSCfkFuneLTL0duXXnxs3bqid+SjJn4YsMVBPYpiN48SOe19WTMIUcYexHnXFvEj0uET8x1FLta+O6WYCiuL7HLPlcqj001g3o2uwIUGz6sIR/C9xGUfp2sx3kUqpnqPSJrrekqX6nOpMctXp7Z2enpJdAHRRpZmdnX306NHe3t7h4aHNRbOL8T2O53dQcWfZpsXFxQcPHqhTnJ+fGxFr0Dl9eDLdbKVEqFntTSQjZimBBpD7x8y6HmTmHrMbr8O4nWZDr62tLS8vG1C5uroaLYzy3OzsbJAni5E19O2YJCgx9UlUxYvhV12VXYYPcQ/Otg+JhsuM0HVXFSFu6noqRDS50UGVDJNwa8I1GMbDuEfRfMfJxQ5AdDFNY7K4ggDu3FeI7EWxmdxUuMXiWK1RKRJAqf4TplJPG0amzR15RInUJtcsP0nBMSAw5AahxSePdcMRGCs+y606PGyIB65K48pD6ZyfiE950MRlI2L27Q4wlzG22kS5EQBB5hJwKRRrHKV6q+NBc7d2QH7HLyoB+U8jppTgnFI8ZguOXiavi04qVnj48OHW1hYGy9iYXzjLmDvDcrPAZisDjNTV5EY3d6eUrBZSKzzO0Ksun0p/4lYgEp3a+GlK0o5HhgJwGD4a6nZwcPDmzRtOE1+8uYu1rXgwlK2LiwtFkrRgudSgdx4kMihrA0L69OmTacOupGVXYLyU2EDvKhZ57EDo1i3QzueDbONCqA2iazvPCwsLckKgEpN+fn6uCGOGcB3AHk8gKPc2P2ZmZubo6KgbB3L6+PGjeIPBcdTtV+pI0io3ImXi77777m//9m//3b/7d8Aja/Vnxot/VsiYD46fMc6qEibH6BxzWRj1KK8fj8pyc6KN5Pr48aPWemrAdHSTNBsFV0dma9ML79y5s76+/ujRo42NDYWAg4OD/f19i4i5iKqVVnvMm7g7MEUcDgAGDpZ94q2Tqmm6F7gFFKpuCJhE8LICVag1TMnmyVyLX4WwLAgj6ErcvXtXhQ6MnwJfkHLTZgOHzs/PI2+5qLdu3RLtVZKoq3dUQs6LdJcYU3hnID/adS6z+c7jvODYhyTQv//++5OTk+Pj48Q+bF/CipcUB6sdsDvM66hixUbXHFcxPdqNoKeylNYHhl4fhsmQ9LSbzJtcQo3hIZ21fgdOdCbzdmMBOmGXIuD07QEJTXR0TcZGUdVedDopO5ejJO0kI/PVhd3Kj+7ZqWu6Q/Bbk2cbI7a8vFx13kFNU12AHkKfPEfdlMycc8jIus6jSoj0Rv7WYAn0ZZF9G+p4wzibQe8bmdF8kjuYoYwXyJHz2cQQnDEpSr0RhVwSBhsHtQqwHBXjy6b63ZQsrfbYtdCpGOeCpsMyDlx1EcYhub1CU7LqJhxxrJG7WSxY7uFEWYRLGGftHRXH5XsVsBIEYNxKjZgX17wwvabDsZoczFbFMJC+aDite88v2qjjMNAxle/mMqRIggmddGj50sh67Fr1vqNg0FieCx/1MxameyOtRTau/tzIM80RcfLxSeI7JWKgnoDhPWq1aB+GSTNKuPgWPP3/8RzKfjucIJjV1dX5+XkTn00ZCfEZg84at2My1Akkgpcvxce11AENlaGKMhuG6YKA3sehfDlBsGL765w34FEtO6i7tr/gQ/ed/YQ+RIqrJcVKjoLqNf/VeRnB0U0BW1ZGc+vrHmvYUoxDy5jejZPsOiecIkx0MAJ6E72X8KiIglRw5xSRFUAi+gu0wnHjKblQuiNAubRCJRUN/ESuu3Xr1vn5+X/+z//566+/3t7eTpJvlOj/DULGUUG+5BgumJpgl210PPIbPDBVuWjLMMXYJ2yEtWiaUNcyCLM5oaMOiKaQpaWlr7766uuvv15ZWaELKub78uXLdDrd3NwEhmFLgJcbDZdE2XQ6XVtbkxraZt3N1h3YAAFioHEROCTYQHPqzJX5+PGjQTU8H57BqHkRTfv4+JhZTB9haWkJRawW+uZQ64SIG0eQHN5mARsMoCTKu+tpzYyOQ9jGpuPSKZkiPTybG2K0tbUFQbEd7mecYn9ItAXoqFH9w4cPArU3b94oT8ioUsPvM0eELEmLcnFLxEbX6cIuWA10QOiCuBPMJj6u0S9bMIreRVFvEC3DNA5zG0W/xEPatmxx1JmGzNYYWwLWVKQqGrX9ZiXBFaxGMhny8qOjo729PZL13QVGs/MsHIwN0xVm9bBmw7zBBrx4vC50RgsSC7k24clkwggy4rUwFx/H8APwYBU3JuHTp09SRFoklq5RxayeICl6n4vg+QXueIdKkwriAD8et3xGUkdWKVufE3VZLMXi4uJkMvHPojQ0UxTNfAyMQtoqzNWlB7TAnMO7SI57fJdkwpg1aYCiNl7v+fl5egVOQuzwUPOY/uO8xEbpjEBjIU4MxbpYADmFnqPQYPahgleZQ+owEQcDDuJwF1jUzlLiNyaZV65c0Vs61gpi1/ioitRjx2uB1xgOBhCOOoJVKkeBnpFaGthvucbpNV4fkXqkoDRNNKVY5UWQBzWZCJfKmoasjqfR1Lh6ASvuJY5bUGVNYPNS96zujRs3zLwooxB4JXRVxbZ8YORn23r/niNLPjmV4jQQYPb1MyU9VpTjd6sI8dTRJDhcJsiOEExI7EJDQlKOzEIMbys8lqSTvIjDPco/zc7OWhYsQx8SD6RAuSM6NrOP4y41SDSb3vFI+M8hAY3ZEQSeUY6gbssOD6C03sr+U9RRl3pdHIJU8Wih3sXFxcHBAcRRO06zmkWxcmP5zH/7b//tm2++WV9fly1fmur0fxsyjgIHcUWti3CQTUwsLXsUKZAu8eLiovjAFup/RMgIhyO0oU5Uybui6jiDPEMJXPzqq68WFxc3NjbW19ejDxLiyVswzS5b2kVWatR8SoECRzBptHJ6yZwIWLTXkOK3b9+SV1C8pqS/ubnZNtvjzs040jR973wV81TRpwHtXG9Jhr2APymy4K+Ee83Pz29ubkplKjFU669jqVkmdQ37zBGBgNFOJpONjQ2FwmiF6VZk/mZnZ7E6QGUeRrRXe8S9e/cWFhZ0Uo83E5EAXtUU5iIet9H1tte+TrUl1e4RKBK1sI+VAlMlBFqHEbLp+GRjjh52UlWrzyxZT5RklJhuKEKCgoWP6WMV0qWHj6qYJCxdHui7mkKVXOZARpSaBr528G1zV7MdFW0byYOkaHm5fIvp8uLRUoeRaSQdL82T1gfn+Opc1K1btzY2NqQ04Rm3b9/e3t7e2NhQsjG+rKsh8rNfzf4vFPAia2tr1LLkJJkFxfrIbXU0u4ZpRRVep+5rfmsKIwI+aboVboJOYqiJdUeWisvhwzP31t8LFrlWT+B13AXFR4IGl1peam0ZT3jNXhgFtVaEzUQNDPgp0k2moEkSTZWoZSoIPHBafwCE3vpEqxppsh2DS/XuUd94lKbj78tm05UEBeXXXb1Rl7s4qeVq2bvpYy53Sdag4Ngr/y8H+Y9RVM1SaXfUZOaypGZlFxrmtLCwYG6Z0ByMwuLhu4fbMVNYRqawlm2yJGDalKVHsQhptpgJUFdJpxCW0bOtVk8wWv5jobogd+7ciSoddW9sPa7s0xy4SxrXSRGl8FCEyqCJpOMpcWRUEcg32gt2oKBwrKiUL3WK+qlOkuTWKBY7PtIouNstk18pwgSZSzsFdvIE8R9YlEeIMNB9Cf+uTJp+SEzxfNP79+/1voxVi/CIMYERxkjsgU32QiLXPy6n9fPzzz/v7u5+9913oMq/aMD0n9v+EqDtwJV2l2pUT+llKltUYmcoJ5MJEKIet9RxeaYa2iuqxlpNpD4t3E+fPi0vLz958uTx48cF4MJzRm0ymbB6BHuL30E41dQ8HvTrypUri7/+mC745s0bA6Pr2G1wn+gNKtPUBDzL4jlRcrhde6aNDr4Cs2m4meqb++aAwsPj3saxqIRHcs99nkwm1Oy05SZPj7gGcgevjv2MNeLVy+JWxwFCJhOWcbcWBzMj2Z1cXfMk4ORQd+HdnTt3NjY2EGLW1tbu3Lnz+vVrXRdNkUmqxi1ii11jX1Qno9PIkbtvcN8kZF1dCWtzCC+R+pn+AmgkEohspeq4MkVUkc9wyHj9gL0iYBQ33AbSOZHqIKN1AIzKxlE8FxYWFhcXRXUCo729vRjolQj5pLxjKl/+HKncORyxk4Axiek4UUaMyDJOJpMi++IM3JJGjXnazHc5XnmFw/Pjjz+6vOC9paWlBw8eLC8v4y6nUc8CwvWdsVFO0kOmhaFbhXEXgc3Pz2NJHhwc2McIDIhoNdg2ZK+itsB0HASiH0VbInUt0JpjKaSLd8tYx7JILjGgt7pN6E6B5jglvNilsCnfVodcvdWJI1Y8yf/Vb9FNv4QCJEVUM3KhRpWHsZHFS1lt+H2QVeXgukbiEclsx7h5HHLNxYYW6+qzIMmeV1VneH3aCFyNWu6j9FUJW+r0lUcYpRgOue1a6wrHe8dWzPMw8k3MZ7pF/4Fb2q3YEIpXagURusQxir+ogUdHR+/fv4ewhOzG44d2V0aogKsVjBikFrTS0VGxqBMowai7v+akYHJNVElhj2KWdRNGouh6VsSz6Q6hIunYX991q12DPRQyyk4ZComclw3yH7uDR+D/0ry6lKH5BR6waklVeMGfc+gAj2qAoxAv4wyc8y5s4IiLC9oEFS7pmNKgJYRhOVTK4kEGLXjDIIosfUukcwhCvXeQAm4lLSenPSnZDx8+GEGcntFvFjJeAj9qix5Bx1F4ArMbROfQXLt27ejo6OXLl5zKxsbGysqKA0pBgMS0rDHJXDNCrIjbW3Jv19X+RT+Hh4c+fG5ubn193cNMJpP19fVPnz69evXq3bt3i4uLq6ur0juXwfOvr6//4Q9/2Nra+uWXX54+fXp0dLSzs8MvHv36IxB0Q/b392um9jCkbYRQS0tLBwcHXuHGjRsbGxv01r/99lsPBgdGWLx9+/b9+/cfPHjw7t27Z8+eQYyoRTKI169fPzs7M8pPwe7ly5cujFycbVXdWF1d3fz1x6MaWn14eAi2OT09ffXq1dHREdXi1dVVDacfPnzQNmQMPCujb11B+dq1a7pwENfylLLhhPIba2ZhRckm0L9588YodDpz33///enp6R/+8Id/8S/+hTxSmK5YcHp6SkvMapArJ8HQiILC3CY6jBW98/Pz/f39k5MT17i5i+MghNTF6tRJ69/OnpyceAwl7Mh/IfzsUQX0jocncUG4DUZha2tLKVno414UL8K3GD7Qo8gGAUBxv2gYEcLTgns9A5siF0pAR+nZaTRRoCCDd4H1fvz48R/+4R9y5KxMKtmbm5vNlkjMjzN++/btixcvCK0ZyT2qYpWGwVrci4uLi9e//kSZv3nz5uHh4c7OjsR67CbBoA0eTsckbqhR72or+Oak76y/FhaWUVLhADh1geLiIZurFeaHH36gBiV1aUIragRfxXYdHx8fHBwcHx/bzTo0GxfBMnCHiCVGSXEJQgcHDEybmsFYp2tAou3r3pUmSVx5HQmwJ4lfXtEgD1orAzyvaQLjFJZKt5dEGR0G+GKkiFCfUVEfUjtWhEeyZnFMA9NRiTgUdLeUaHqYgqSRIllLnNA8zIyzr0ZZWKDXRx1GXNJpHOOYplRUZIge2ih/FqwGWIdQb6JD7r6oSlFGa8JCNG7/n7owmECQJKvBQVdq1BKg/6lc2qUrCNj69UfLCJa8mMyx4TTNm+3KB4al66Sj4vz83KQWtT4GGW/EnUrj0Oc3+Dh5F5F0h2rE2C4uLhoZJY7X7/Lu3Ts0rYYeiTS6CIU+cSpSAvbPnDE9QCx2PEspYk2lSc+WpzkbsIa3b9/yBam4TyYTieju7u7h4aGUnn8k5ir+ITyJOq9XT6anc8U650GAZYnJ4GvVbiHc0j7IEDnY6R5oq2ef5RJpKsW6sVzaMJxtg3lqxfvNQsaRsjPOzw4mKbEYe7giN1BtxCfVOyw19GLcwCikJ3+dm5tjYpwV+E2SUV6Y1JNNPTg4sNbSGrciohseqDEV8fpBOFJAE4f1tWmTpFadHIB1lwLW7CkLAa1z7Xx8Yp6+WvKB00o+hgj+8fHx/v4+1wKEI/JZfcH0QoyuYKoktevM8OGQRTpepEx03iDhSUZZFuUAKkjN91Mr9GCUI01Lg4ZW74iZUQRgB1klw9RVFb07a760tBRmoKiq6oqZV7txHEE2JUqQhdVNxnLBhJpx0pnkXCNOCQViIjcbvqYQUT7MKWWTtoMUS2p8/VSqHhuc3T3xZf10Yg7N40YcOcn6Jfv1WBajrJ0XFIIneCG1LRqu1yF9k5BLO8UD8ZEzMzOLi4vcVSLePlnqz7tkiWiDNc1yZWWFnaUKJGGz1KTLBEw1UKcICNR3l/W7wAtTo7y4uHjx4kXDabTENuO1kKKirXBteXn5559/FmVyhAkFWBDQkZRP/VpfmsOMBBnWJf1oXBig2tVgqRvzFRaInz3OPq1Z3jfGzAkzGMFL9SMkCiHIOLXf54C9U8EQWVpnIXWIS4/R+A0yCAxdGOGl/tCxQu3Ohrc5GFF3IpP5WVhYWF5ellIyGuEuzasMkaraWx9Vf9I9LegcNboZhzqoYqfFaO+lohV2Hy1ySxR9vDZHJ8T5bPJkGHkzRcb5KIHr8embvZ4weNWkcdRWRomidZ0fUqMm7wsUkCJevnypzFWLbg2O4dkibKFkvTupho2iY94uwS+eGlO2YSdpoo0aKYLOoKJAdFhppVIHteA18UgBX2mSJGqc8joOk5QO1RzDCJRD1n1Ve0NHZZSVjT7hynOjncbSqlHDdWyTSuYw+XQbBJyysGluS/CqgwlaOI6wcA6FJYSkpH41dnEJXaqkjyTjtHUYhFp8YlOodDtvITVVSMoHIpwk/UvU2UzU0NnfIGQc9bHSjuqQxSzkgQKik183Q69+Dq5IHRO5tcm2geS2IXsqelPobApkcyS1QQnzb9++vbq6urS0lKQZRPDatWuYlOI20aGjBon8/Pnzs2fPdnd3j4+Pr1y5Mp1OzcPAreEe5I4nJyd6X9IRXFlZAa64hNPpFF5i6XQnoFWBTptB8u7du5cvX56eniaesre3R8EYviLJo/kumxdzM1Xpm9y5c2c6nT548GB1dfXWrVtnZ2eHh4cHBwcMolOL7snlU/aRD53/+iNsdZ7qGoucKk13QJtPJdoru1WextrUcaYTlr7ddDqVVduOZF2d+yr1QVkp6SQGWe4r8pBZii2c/oCHqhupsbDLwMVEwrgEFgpSq9NQVYhl0SlvjOQo9pYChStQfSeJvsh8HrtOjm6BOx/3q7lPY9taHre+n+AcXsEGJd4r4695yD+rBWT0wUXAY6HE1UjaDRxy8utPDQr/k70z65HrvK42SZHd7KFYVV09cpKoyRKtwU5sJUAcx4B94SAI4Iv8o/ya/A0DMXKRWI4CKbIGDj2wxxp67ibZ5AfwiR+s7GrSlCw5cT6eC4Eiu6vOec/77mHttddmNaTfqcLDebEJCboCZW7CRFtenMbBscIK437wo7b4EJDZ4s2ucw+wkuQV9Mkp7CInhMVhkdUcFpywgiljWJovrohIghqZIqOwu/QrhEF40GRTCWMTjhNP0MpG9UDilNz2pEnkTDwDEcF13CGsFVMFMw2xvZGREUg+GxsbgBwG6HxsGehss7OUZVFDszJuDO3l119//aWXXlpeXpblnNI2FnaxKoKUenSDHqMxji2jk4keMsDNGqLhkXRJmcGeuKK3r1KPex4vJgnPg8b+d0H8ENdBcMQRmvIdBSAxTYynsgFROhPWFR/KI9BL4cg0QyKKBrJ0FAnCjNgvjB1zoqCYnyx5i0JAJISYkpEc6yIpk9vjn2zizmTesi+/awN1tqEoJ6I6vRm+XSycJhIhV9jgPue4GOQRVEn8cASRCZUzY+wacTq8c7/IBs/+7srmJ7yhJQ4lM93nCgZJ6hBnlQjBq0ypLAdzONQKBAGVHKm3ZF+sZE6mkTkt3yM7YvHyiMZAjdUaA4Fj+bkN9gnMq263e/Xq1W9YyrtM/CSudzvmXHALXlhJ4j8WHTiK82Mwx2vghcGBJUQQRVPkz95P3hPb+vDwEDrgq6++iqQOBTLkaUzC4G/Z2YTdB/bvdDq0yzASsN/vnz9//sqVKwsLC6y1SiiwFefn5+nApajND0CwgDWCtDWhCftSnXpgIVJG29xYRlpAiIFu375N2EqEd+3aNeQbT05Otra2KJZRhsPf0F8CakiWc/fJBYDKDqNoBchKUkgtD4U8liIxY0pUvV6PgheWFIIOINPDhw+BMLF6NPogMXjjxo2XXnrp888/h5BLQkmphfQaRS5sIqaT88aOT4EYeZOYThIPbBNBG3bZImaSJSyrSayRwCTkADpFVfHevXtoqjtbaXR0FOFJhLU9BbzZdHUiTNlraVKoCfMTDHoImjGaBiIaHdkgGUxkAk1sbfuU/ekOWnVtZb7v7OzwMzw46Yed6QzEI+oiXmTqDAErWwWDoFaIbZWgAs42BcukhJ13zq/jVjVqZgiqrHHPsos4NWQv4CX0mfIGLe2xzuq9GUQ68QKfIVJLUIIP4CwY99ud1m63SXjwMZZlk4+VJems51pKQyhRcQN7yVUGwbliEEjYdBLsAXHHHFsnhcuyTBl2QrJHdKu0Co+mYoDrn50EvCb+INXV7mnM9eXLl5FMIie36UrQiFfGdpVYYhOhXKZ01UW8Qr0tawUSQ7lDbl5pzNIO4oIknOm355Q/579JFXUF2EhCv1jCZJpKj+Z18DZpNEzjCZZD0YAcmF+0B8gWPUWLDw8PV1ZWcC4qOZhoiT46tsD+bkUGcMdOF0PrlMmBJGnSyYzqsu+ewB13QKEAG6WwnfChs/7dVG51O9zFm+2NAwbCRhGCU7TlczD+0n9tK5FC6guyVUUurHiT9G4CcSJp7AbLIulIpNPsRYkfziAkKHJpX71Sx2ruGow65ZmPwhC5wayqER6kcJj6xJo1qYAWuAAshUjEMuAB2uLDbC1sOK8YaJmn2NvbW1lZ+c53voP3+SZDRgnXbjK6VaCASMUFxSVeVI8Aa6J6Fu9Gc2zgJe+Hb6RpDpPX7/fx67wbRYM5A9euXXvttddGR0f7/T5Mr42NDfoN4RyMjo62n1zYYqoPYI1jY2NECRD+oOa89dZb7XabArRvi6zr4OAAFAfHvLq6CpZGdYZAVu6LjWPUtgjUZmZmoIaQxFy8ePH1118nLYA3yXY8ODiYnp5ut9uvvPLK1atXR0dH159csm0o0jHP980339zZ2fniiy8cNATImv2bnN7p6Wloi6Ojo0K/nHllcvFS/X5/dXWVRFZuGQZienoavUlagmC0sPWV71lfX6dwSYyoO6T2jSXiFAE40QUM5CyrBhMAFEqKDDvEFkjkFfX6OkLVNPQKKhXDLiAIY1t++eWXmA+FZHlSoKP19XWKtvPz8zBrBYT4ipRTJlVIzXnDPvYSv8vn83T21ilyq5Gy1Sx7Y/WCrVaLGyOeAMpFWR0CHDOEwPtbrRbMlRzAJbtDVI8on0fgFJvfM0P2zp07CJtx0aRMdseXkkJQqYSvYyggCQGvbwMmN4BhJUWmSkhhHcoHqQtECD4WdR5eq6Av4rcnJyecmqOjIwbwy3zHhWe474G1CelrDs0AACAASURBVIYYEbXhs2fPzs7OYnNUPMbWcaIJWJVkA4kkiM+5/EAO0N3wcADzziBhofgBoAhbsImi+F8yE2WKsb32VnPKsMA4HuQs+K8ikRgEpXysj8uYtNjt6BdH2SoOcnh4yAQjtEVU3uW/yeh3ILtulTsUjLBhjruCRERtnRof6y+/0AYIu1Dts+Sd2r5tD69twnhWopAsVYlgGRrKX2JihQp5FnYVydIhptq2bdTC9hh5mNCSCpTiooqFBvjS0hI0JPhChB1O8DKhwhGouMnQAb4UBgXLy6yKZrO5sLCAhaSgl6EnX+1yYaVh16mJ61A0BA0cjet+syHSDjP/CXORn68wIZhLKiUR69hEqLgYERXBnzo4fJqqcMagHAS5gPwNidOZM2cYRcEbSaUq1oQPVMqbjNQJWBBJVX/rPLnEjx2/iZ3hQHEugJmhwPFSpqamCFeoBnAoWHDibANEdqzeAYabAv4s49zcHI1oVA6hnDkxn/1gII7v6Ha7H3/88c9//vOv1PvyFXQZLaWp88w5kVzMgiJnzcNjpCAF8mDQ9dhDBIhkZlh2Uzpp7zs7O4y+YH4OGQa/SOBI9OYQFBBaIkViHfpOFhYWwDwkyhDCgiGhnuWwWmVvRYxktyj7xJfeu3ePyt3BwcHU1NTe3h7RGDkxERX3f+XKFbgpUnGJ/ODU9/v9Tz/9dHl5ma1MHe3GjRuIiuMngC0BOzGgVBk4zPCINzc3t7e3ySA5opxP/PrExMTly5epj5cmHvujrUvyCMIAjtfEwBEi0IohgWx8fPz27duHh4d37tzBYEHeV+5VpgvtAlg60nEKH7gx7IJtpxxaOqy3t7e3traySugsUadBcKqNvZRR5eRICgahhIMi7QHEjpwMj7i3tzczMwNAS1HGlMAcPVPnU7N2Iozsp9PGeZSKSnlOlrOOJkRHvCV4BjzPlsvxBo7qMi9S98GKIcEc/ASoqyyUSkB4cYLO/f39drs9Pz9v9Yd9wsB0lg5MjuiN5kQnK7INlFR0Vo0gEJYEVXAOuC2uSm0LpFF7peDAV6OfcOPGjUajsba2RnMb7zHtjBVhG3K5vXa7ffXq1cnJyV6vpx6K0Q9PIcKhuKkSg9Yo6Tkll3Z4oPwwFYYR97Yd2Km+uEDnXhh2EEazOBSbOOnZ/04oQ0pGY5yBV0qNpERcSofKP05RbgtEVDPYG/QI+oCp/WE/AdvbUQsCEKKn1ouF2AWcTJOche14G6e2GgLmg8gkTh3yrCxLhtFyQlSFUWPftG28VFFI5kF35AXJn0tlIotyhH1Khzrc2WzQDZ8leGV6UvZFSB6vQXFMqXBgl6mpKYhPJycn0NQ4lXRsXL16FddsIqoAsNVwd7JNRTyCBE1J58JghWkgXUrQWuxNiX46QlST4ButOlJCwa3j0G0YHxaC0YZYJddySqKTpSrx6cKFCwD8dmhYWVayTalzyACM11L5lW9XEYI7J0omRcwx4r41R/IAOVMrIDsikhG4AQ3JRj1ZuRT6CN/JAaiJmTXJxgGtw69hc4ineXf82NraGqy/b1hkR+K2oqBS1529qOYZ2DKlz5QFkjWMQ7WslmOsgBMIuUgWmVzOzEB+0XmXbDWkc+hTUTlcvWiMLCSqXq9HUsXLUDGfdpx2u80dgpTY8GUWK36gy6edGcUQuIn2zZBgEVHxOICLx8fHd+/evXXrVrfbZZ6m+cfOzg6OH3yL87+7u7u+vs42AmhE68Q8DGEdwE4asVHMdoY6i3x0dLS5uTk/P8/gPthmLJ3KMoBGmEWl9omM1dBmeVdXVzc2NsCYrfSR+a2vrxOuwS7VVTjOlX5h11C57ISLkiCvgmCj0cAokKG6ZwRpbHEggteXJ7FJRpQgPztEYbBicSQPYDjo21DtXFFcSTx2pzqOXPpX0l9kI4FeyyzMOhpbVPdpOGLKyEfBTODNgid1Oh0MLqPGCYhTCQusa25uTmkPGHtkn0pj9Pt98zQ7KggfscXy2Q8PDzc3N/lzSiOJwRB4WZySCpmEORU3iSfM8jl3eDtSKdZWnAZ08MKFC+CO09PTs7OzrBjSnisrK/wuRskmJ60Bhh4whvqGWR/bNSE0Gzgkg9oOyO5VNcwkViTDcKSoXqcoIBuJRXb2Ay+dnWlXH/Y2J0GzpFmtFvDm4DsBgUd2Br3JCY6QDSDEwrkDiW82m06DtHHVb8lRmfqwfC7+C9jP/le73nYNO13c9jmdxWK60C+u3XKeg4YN49jhSTZ1XJn2jf8C/zg4APovrs25TeThOUMrx0Oz+Yl02Wy+L6pklGVw3o4GZYcro2asoz5D8pibzebly5evXbuG54IuT3vfxYsXVZyAH5IC/myqjLBJOHOWqY1fKX3ADuTp5Fb6+KkdmGOHyF3NrFSlVdsO38piagccRqVEpZJPotcafKNtkHJeK++LswMhTYFSB6uITZIAsF2dL1rmA1mnwnCxB5ipoRDe9vY2PY5iCgQexJHqmrHnyVTPnj3bbrdhwXFv9NfimoGNAdFcFq0BvUGkT+K7OCml1/1G3qAnRQ4DIh7dbpcWyW+s/SWnP4ErYGph40lMZCdpFKDfdbtdZRfUuZCeQoxF3C0LAWkY+b+EjHT+OqwWZA7YDPonuCZ5gJg5g5jZ6xzUTNxR/SVIR0ZEPiy4Iw+CDyOQ54n4sePj4zt37ty9exdAAu1u+suA0IFIsTg8/meffXZwcEChlsoaS/Hyyy83Go35+Xm69Okd2dnZWVxc3NraWllZ4QMZt83t7ezsNJtNEs1er3f37t319XWMI3UrjSCeEjnAzc1NXSb1a/bio0ePpqamms0mka48FUJSYsRHjx41Gg1iiOXlZXoFcpORzNGvQyLhzDqBGdIdGAiXL19mhiFZDhkzaBDnnL/Uq21ubnLbZAKHh4e2aZsX2rZpXVVPY53LeRVIqeGGKTqTqBC1Y/gwXjBiQbKJXIVDSIFYagqjEsKkobAyqtObrJvWl3q0flFkRZEFrYB6AleuXLl+/ToMWszi1NTU7OysisQ0sMNYJZZtNptgRUdHRwDbZ8+eRRbE8OLRo0egdPS1+FBkJnfu3BGwzz4ko2R7+mwylcmHqTJudq1YE4o+xmSEF+DrqfaHq2N3YZSV0rh///7m5ubIyAjTqycmJjY2NkQveBxPugIFVGqYG0TLPDlq9rXwUBxbXha71FleRtIqq9loAuAqQ19kRWUQO0nRKvI08YzqfFmgcAGVxTYy4Fdardb09PRgMLh3796jR49oUXKQPYuQDDAmjB8dHWGFBoPB+vo6RSHdJOon9jCJ7mRzjBs4lfOzMyyHW/6XB4qZ12qJZ+eEMTHu3IKdcpKp7q4ukhlLYenJJBPB4s+E0Xb4Jq8RciFLAXBrh0dKEVlzKCNzmNwDxYiKlg038iAVtVVsQZeEkbE9gHIZGAQdNrxxHpmhrIo+oi1w//79lZWVmZmZTqeDvtWD313KQmHfut0uIiHOknCQAS+IbayKp1V+S8DkSw7cx1cmi0a1LEI3MDxKRqAMHigo7DnbVsK6/fX5CvgDNBuKHsBsBvQ5pJtw4tKlS9wGZTcheSKE3GzOAVfpE9CRKds2m5LxIt168eLF1dVViP7S8DhBWNqFhYVOp9Pr9SCCn5ycbG5u0kXAoSAoMtMG1EfSAXvLulH6g7ZIlJWyRL5N8S8HYeDc5+bmnO72TYaMErH5emNqkhvxQlIojAu7XNEppJuFDYq4OTD4xMQEoQO4ArUwUxky+xzvIU8FzlN2JMhppY6JpwRCoMNXWoAVcBCC4+Pjbrdr3Sp1UDHZe3t73W53eXmZ/kdIctKSeGSncwJ54rntAj4+Pl57cqHOSK8xtcXBYLC2tgZEROCIXVAAbGlpiQUkrt3Z2VlZWZFMycBuxg/Sck/xl32P/YLroP4whxnBPIJCkGr6wc+cObO2tkaIBt2QNj3ssogsH0UJ5vj4eGNjw5DIuY6QLMFiab/FNGCIKVikCqsjCqgNkTjiX3l84GeENunsEwXUgqeEh13SCrBhmrFcts4RQ2AuOaKcQ2Qp+XlnNLP/2Uum2jmiF/dvwcJahn1qOcHMEyfmIeUIvytLVXYmAn6YV1q+OAhU2Tg40EzVfueEbm9vb2xsbG5uYk8BGpVbZ8FVCXGsHOgFL8gCokOHJWUqtEuMWwJokw2rsdJ/lcGz2CR4qbytaJYYnmn6/v7+vXv3Xnvttffee+/q1au3bt3iHCU4alxiuEB8xhnB+ADkg+UDWnPDuHZHwohvia6pZOFsLvY8sL1RCCtgj52tl0grbG1tpU3D4oHc42udLSbEZbxopx3hIL2i9AUCQoim4/kQnaApkIh2fHycLgRH8OGqOaTqPGf7uXmU+imOPQTwUEfaerEiKYJM/AB7yVphjvWzVghDY25urtlsbm5uLi0tecwNHw3Hje2k39j5a30AV0VGYRjEWzNitg3ZYd8EKFlhsJqhjrqggwP9hDxsjM0J3SrCeMbt9LfY1e/319fXiTPYpRh2sx3MpiNASOoQC/QMkpI5MZyHFRXylTlNx+ZrDZF5rxRh35qFVMFj0ydwPvmOSFVgwBW+AEG3zG0FObk9Gs9sgco+fdM5hfnYk4SGjmMBC3M0K++aJVL2HDicE8Rh5HUQnqKCZ5ssNWjI8VtbW85/gtEhbYyXS8kU4TnoQ6T9Sn8TyQwGA1eARUvtcduR5ZB4GLUzhEyErWqtQF85tej/h4aMOaScVSZ+p1pB3MYPSxGlPwsXq3AdWCs/4/wcjo0UCtlyxNScCmuF/CSWiCqS7ZbmoxS2KNXjbhErct4JCsAOD3RYtt0P1HQkxOhptFm0d7AVgDo4JFNTU6IsDoRttVrz8/N01ezs7IyMjCATzVcjRzc7O4soj9qQbAX0TnXYfPW1a9cgrDDGmoCADl+yWEo2yDSS6BC8Ein2er1+v0/ZgpSIAwMzhoB7/HcX9SxHIz569IixBI7PcUl5cFpeut1uovpuXMAeDJlittS72TNEHiyLyBnojhxEq0VGb86+ywG4OQAgnbqkE8sZDvSDAATtLydBW1OwaJ7zVd3GVJeMRDkpqQtj4xu/ntq2OlT7YFJ8WFvAEqH6Sx/9YDCQM4R4tfOvrUYR67Mm1CiRilVAm5WEG8pdDZ5cksclaIrtkdTp9dMHOKg6KVDKTzhZRM9hd4L2Hc9ExIMogSdOrRYgT/VvsU5yKmieW1xcpGDNbtZhG+a62tZDJc7zZmFnEo5bMBXnSHRNIM2xNJLDjBQlqEm5s+PVaT1QC5gVKZWQ1hwCHRsIVCo2qmbdCBDZ8woDmTNIWNT10mRGuZlzCuhuG7K23YqQmAduXg6cUQJraB8DWZMvV2TUlbHAbZ+pIzeMVAwLeOlAaCDcYhmJOQ3LjMuHYUGAjgA1WBMMgjY8ZxJqLoiqGfih5zK2tkRgqYfEfm1tTbgIE2e+zQcSPeQBIWJQkZe3gLg0szo5yIAC3W6XI2njFHYDrQNwEzJ/OEU5SscZWmweeagsi4xDA8RMfhzMqAf3ZZnfEluTn8zMzFBP7/V6VFed1mFoXogcooMGr55EB1r6iy6pXkbvSbUHq4VhBIQzk7Fv3YmRoGMUMNmlYuHyHzgR2BnIUXoKAiRlEKiY2/6vCAAYkCxGxQRdRuYGKx8mno1pohdZfq2SQ9o3qwqsNscWPwIg9fzx4nNxGZ1uye7EP+kPiMdJg3D/GFn7/G2KdMQnD0zCJP1LQWkUrcBITFthEZlK0uwsLQ/wifuR6ANSQqsyXyekoZymk8TQbiS6533bDsnJURGD8686cXJmR0ZGECZEMQuBfvYr3UwyqTktmEgAQsAMqs+UFRTwk2YkpwoipvxFWIkYEfYQsCK3AaWSoaWU41leAi8pFHzR7Owsf8MoMCuh6u3RLOk7TTkA2ix2d3dXV1dppcxBXmarjq8ArCU3oIjvODUp8xgF206p/qMpg0105D+Sy8P6VbpSkXLNqKfIfMN4lMfhqR2PazpuFoTF4WXxZgUtSDk4n/jvRCAknuvJrNrYySHVz84JgSVMLUQOEjY2v9MyuQGeglhWTiRw/szMDFmmvdh2//BoHEZrC47vAzInVUBvMpN+AacMUCwdShhVY888uOibOPiu1WotLCzMzMxsb2+vra2xMYgLnRflPBhWHubuJ5988vjx43//938H5u90OpgLZfnsQ9Q5sexENgZVwDCiHQaLGe2VKc/JdvVhhTSyZsqzAwAQ/52cnHQ6nbm5uV6vR9c2up7UYR2PRDQJYGN7rz0l2BOcGdk1T8E/mZbwrsldOVkmY5LFBUdlKPJShFRzrHO2y+DXse3G4o4YSfwppaptGnAbZIVaSJWvpuAjiVYfL1iOtXSKty5f6EFeLKY+yWoya4XQDBQcgZjcSjl2cnllDWIxer2e0ok5XpLbIC+ibJKrlPiQnRZgn3NzcwxiQVXUijOOiYwLRwa7nblWWhtVbMRf2Z/W8Xmh5Bv2puTAwKT7G6tJluBXVGiynEU+A9NM5gDxXAq/a8Oxuhagzb3VS1J8XiZPPoX6G/bv4qzVkvQ4E5o7+MqAweZ3Gi0UpXeaFB5N1hMtBBJeAc5ypon2Xzcqi12dMmeSYdhZbbcZq+ro4ySBZPOZTe5UcVMwGNNki/o3HDKqxerUDU9RslA1+rglChmWCVjBBw8eoGZpAQukmmojjlxsnJAFElg2wFIwXVhYoICiOpqsaoemYDRx9rwtkPn79++T5aCkjftk/rW0APoNsSPcW84edTyo+mpU1a9cuTIyMoJijs3LBMH0qSwtLSEDiaoiw0DhIPb7fWiCZOS9Xg+yv6aTM3Z0dLSysmIxnXoungA0HrTg0aNHlB1VV+FX8Doyn8ADsMhTU1PcP4CfGtpsMjJFRw7wWtXrZyewblgKt426gFKUHj58OBgMNjY21tbWJMLKfE99OMEkNdU4G1YKkEjFNbpXdQmawuyYllmY8voUH3WWmBv5f8S4VO4E/LE4lAhZyX6/L7sfqMlmOoMkk9QMKzMvLKRGGWApnIQYhCQkAhGskmOg8Rw5zcLCGegIA12Oj49Rnmeri9k7GsTSKr0v3KG9EfaHZhGT3zWKyl4i20TUnpQ1zxJhuHHMOmMydZiOOQPDIj7VN0ckn5ycMNsTUJ8sHyPr9DmjFvaq24zFkbpgkUuT7XBzs19DlizNs0vl8jvJRsTI7WqLAPHB+fPnp6enQQd5+xcvXtzc3CwiYjlvRgNIGcs2JqyffpRXTGuwUIp9GxyHxJaocvjUXBQQ2RVi0m5v8UIdm3g595ZJQsrdp2KIwj3pR1lAWzcwYvQOZpsmdfazZ8+Se/NGCA1xQ+KmRnvSSISarLnb3pQIJVFFhkG+cQfQi2/Jezb2UorSowS1xgDO4pVNZvw6b0fVnoWFhampqfX1dQJNO+s1XMa+mXPSQ4acKs6uKKRKCGEDG7wW2E/uoIc6YzUyEDaqi6NKpYQTlXTMMKHqaqwMcSQ4JjzvrjMTY/XUuElbxPbW4JNykAbbQ6mKO3cowYwShy5M3R8MxejoKGCBn2zubdsT5UE5CXw4GheEGUCzqezLb9H+waWII7vUiJkDrqp5Dj9MzJWQjLm+qGCSVHzV67lQRtYRkNwQWOoJKZo0VfJ+XwkBrxNUnV/i+Cx6h4Ui6CY5f/48M8GIJ1hBUXSb/ra2tlAy4+UpojEYDLT1hAgEkQQ9lKHxMbgoeGOch62trcXFRUfTNhoNXp7KouxveJlEouZPU1NTQCkbTy7mLkAaQ3RmMBhsbW3t7++z1fDZ6LRtbm5COccV0Y2BEKiwClnj4uIisJyCJux7umSguQD+c6opYqo7T8EI928xGjQCbT+NPiCoTTwq8eJRQP5UUSH4AEK3W1CGqxwUywT0r6RmNXaT3Ej1Mm0Qrx5IiQzPzkc7KFVStXwpKdsOPqWzeApz3NTQzjQJvEETKbvOcyGDp8zi09oShmpzDQS5B/wxr8O2cdk52RAjKx9tPPhtuHYeXLQb3JRqLCCKSDAHbWFh4ZVXXgFV5RiqlmLCrdi+ShOQE5wAy48Z4rss4uL2+doWrelPNWwrJo5FZpNQkVGJF8F8TrTqmCwgOoVsZqykJQJIRZKQdK4SoYRFeU1sM7sQJK2yz1kcIX93mtqcwiRyPOCwc1p1n4ZBin2Yv4EvOvwDtYd79+5RUrA1kP/iuuiRJAW1cYd3Dd7PPdPxptAxxtYoBJtgaEiaJG3L9INHo1UuKZUeHIeB2Syc8ZCtD9x8imyrrmA3sS10dsJx5EViTAuNAikr8QMYKNdcDl8ineS37kxfvfvTmF7sjaDcyn6qMbhEecwBn+hRw7KR4Yuwkl76WvGYNvMRwaeQJGMjaO5EJ4XXzXuUmqVsHJ/DbFs0FlgiYTOxYTenSKTiqUY5xMSCfDimxFZzVqGxGksHBsTxNETzS52koNFOMaaUVfL1aX5lkLvs9t5ZQBcGxpNq8bC0mEHvWY4T4QTDLJwvyicw3owV5vbgG4AH6Uk5BYBBWVYi85cGw9/w6yn0KCPTnBlnoagI6AmHFwPowDZJk5TLCU7YrnRzKsHxjaGMOaXeXI0GCNA4j65KAaCD4HkwJ8bGxqampsB1kq/NopBjybt3PCWsONhaCiDzK+i8WE0jmyQVA0F0CjjfBQqFXo9SllDUz58/v7Kysrm5Sc0FpNNKUKPR4MFnZmZGRkZ6vR79H48ePaJtBVMubWVnZ2d9ff3TTz+9e/cudFoK2Z9//vnjx487nc7ly5fPnDkDNPjw4UMUs7mAHrUyyZFKg8iF1YZp2+v1nJyGZ6IY6lhkoFnGQ8PKb7Va6NEgbcrhYbuzsQgy1tfXV1ZW+DNvnEXDz0FztGthZ2eHL/VnVEs24XYSoFIXUGfocQMVJgEaDAbw2IiNePscGOIGuT6ibvbK8EVsS5JpDRmsTXIyOXYZOpiWoUKXjlOnKL3GDB6/CPvKPkc55qJlyeDOaQSmW9kRQhxp+7AdGLYCKDamEAwyAgaLRhXOPcK9Uan84osviEigcBF5TE1NCS1MT08jnETsKJcUD6FiCy9UZRbCvhzCZr0Md+hwCOE9yzpq9SMefubMmXa7/fjxY07ZyckJABJ0C2IjOyj15Tw1B5ytfu7cOcp2jtrDPujaMUqcaylxkJv1TyIoBmTiRuYbIsE+mgpKGit3Qvo81XP29/f/7d/+bXl5mZSMvacOg4V1QES+UYidFw1PGhElTO709DQVAGJWGG867CzpKImvhH5yS/izTs7pww5lUbU7pRNtg5BqwsZWMYN7xsyKPwkOOTBXDM8sRaKh59eRP2qzC+taUvSTObZWLciyOOmUL0xvFGTwkHJLKV4tRVJlb9W/7WiGU+gxJzsiwUbD2Qdni5resGJi/K1W6/Lly5OTkywme4w7JN5SxJSAhv3TaDQUvwMLEIj1BRE8OdWd3lDWhDsEakmJMZ/aQay4NsvrOe9Oc4ouKb6YI+80PwccaAAJTAWYHYXnbBGV0SxkJ3OJsMQJ4BBy0KBAzI7DJfvckUUMAeHXz58/jyXBGgP0gvhwMC0Bs/jM95fED7xtz6isRF4NB0F7rkuSSmF30blz52jMEHQXlJFCgxuVS80mIe2ng839bH71DYeMGmW9VIoeczBIHRyCxC5kUSzk8cqdO4KPUe6OZ4bixiJubm6urKz0+31jMp4T02Z1CZEnpSLZKK1WC4kZRwWAtQwGAykLJNnQ/LvdrgNs9vf3x8fHFxYWyDAc9MSZEQSC1wWEyZ33er3FJ9eXX365tbWV8lcwkDqdzsLCwuTk5NraGlP1Hj161G63CZdhJetaLJp4km0mRT2h0+kgdYTuY6/XI0zPm+ShMPEjIyNgS7YHIejo1nS4GXkVSkDsdZMeUY1WqzU3N4drx0bYYuacUx2nL0sJa5CPRqMBJxVFflZSfSyLVgS7ZEtsBgmLNlhgEfhG+SvITBLJ4SnJYTLBNbS1DoILFMgEILcMqkqU8Z8VLjyl0hIYJqBiIJmM/IQtU16EjwKGSWpgxjfqFZfgGCcEZZaDxju1LVeGq7LATqtzNAsGDusJvErdRBE+bonFkYtN6iJRFTkbgSg2GCXaJPLrqEp5l4fyvOMw0J/jwZGlUKxHlIiN5zBGwekktqrTy04z7jefMYDLOY0pBUepyOk4wDDJBxL6wvsSrPAuzGpSj4bfsv+DDkq2kJgHUakgvZJS/iW2VIoCNUeCJ8wLnk/f45hs/Cuhm2Ny+DRHR8hJTWzDeetWA5RM4ow7tYwtCmgqWslSO/xXKpt6KIIxqSvun0tDt6whiqGaDrFhs2VcjFVvVrIMoTYkSrgRk2Jngwsu2Fk2gCpIZiAgvsbWdsWyJvyWXW5Gq/JBU8+VA05YjDSb853tUFZBmgNOTEywSGFN6Toeyq8uE+pA1tnzUMkxdAnsWQYZpuoKIZuPZQ+ZpVhXD3SDVnEjDSdMqsee5jeT8NJSbQd0jteyjY9jUqyfsieIL4KM0B0ISqpGh9VRNcP5IskbqnfZM85LTyUED6w9W8l6Z521b8z050VIHpXx4hRNRzg6GptlBE1jiehOmZ6e/uZRRv/sUlpGIU4CYbKx2pYFgFzcGBNHwAsJGSX3sKAYepi8NLtQdyYzTnVQKsWOGCaCabfbJBBOW6aM5YhVBPb4cKIiIg8CAmEwYLPZ2dmXX375zJkzm5ubgGds4kajAQ2IsrK1MKCa3d3d5eXle/fugRd6JPCduN5Wq0WrBEZhdHQUAuXW1pbiumwpRUmcyEJSoiIMXCVpQ1QrVM/REUqTevz4cbPZpKebpQBI4ASOjY01m03025B7ZGVsQ5M9hr1AGcEOMmtzNijomYzMNGrStpzT7Yg2c018mEO6PUsEMTw+JxAnYQO+tgPnCvZOqw0Znt2Rjm9P5fac+wf1xLiHFEIQTvTXS11iec2gfYRKNmPK7FYXFFl6/QAAIABJREFUzeJXSbEshZsq6IeMORLK0k4Z5BmpJ4/QuQv4UaI9ZmAAWmjByWTU71T0h0A8byM1z3KajpGxUKubwcij0LrdtIJGYDapwSE/D2wDCqCj7TAg4CvOtDQQTDk31zzDaEfU6OD9r2SGtNemK3IYHJenqBtOJdvefXa9oOPF2POqN/N1kros1eWwCrMLB9wbra6urlLvlg9gccDOfdyqTSr8GHYPIymfzxct3078Q8ahel5OafOlMApVHiRmxE55u2INKez0T5eUEt8lXmGr2MSdvXSSPWDapCBoGgEjQgNB3q/EO96yQbxQELfHzUswNWSBDZVkO7nFBugceav2OXjMPi2AG4wYhsXoXCPmJrx48SI4vd1+ov4sAokfdQaVHIyMy+BQo0OJiZJM1ILOhkjZQXbNwps3TMysST35DDTdDH51hkeZUWg3MvnMMTy2FYoKc9JV8k8gmX/VsfogOWYiC/pmR/CqCRn39/fRrxCforgnEx0PC+SfQ3QyK7PqBc7CQaPAy3ZS5dRIlM1JLIFfkGXEzzvEHxFfAfJvJmT0g/SONBzAtRcqc3YwhkxEGniDoZnABsgu4obtjVfkBXomMopkTjkdlTLTwsLC2NgYs+McTs0cPEIijhDJEDQmKrMcS2BwjgocI26bg0EXyNWrVxk/jdwdJXI6dcS36D6+e/curDvK5TDuOcZllPhgMNjZ2ZmdnYXlgNVm/Nru7u7W1hYGmhn2SBQBjxms4wK3t7dBPSnmgswB7czOzjJYb3V1FQFViuNYE6AaPASRol2TjKt+7bXXLl++rIi82oScRkCd2dlZJBVhVtEiLcFFyjaYAe8de2TDP9ou29vbt2/ftoGXzUMR2U40agpMlHH4mOY4p79jenLMt5aFCMb3qGwNhsC2VlZYIA06AbVyogfsNdRmGAvINFiYoC0u4SKWGnARyAeDkqofJmN6KQtnehehIAt/TmCysKsR5GSpEEYhmM0geRxnY5zB5D03KnYHKhgYM+/IKirMGNv5gTqwaGTYExMTLlpiqE7jTKGKtIxZmgdm4HuJ1xUXlMpjrdadzE8a1CZby6Jbai+7nRyYRCser1642pIWST8xsYZL1pTBhKbZhCrLmtmKxFXaLwjInCmcDWGaYswIDg9TxufgIDc3N8+dO0cCub6+btdkIds52cuzbPN1BkPemzCnpVucU7Z2ASiK2RsWAJDMzc1NTk7Sf5aS+NbjMijU+GcLhe8u4wNzRYlcaS7wUAjNGFWLM6kf5Esx0MxNW5SAc01S08ciW741Jb2M6rIXOyWf7ImxKYqPUpKM+hsHH4gREIHSnPCV44mxq9DJqDLz83DaINo6CdBpimxdODxmrVbwBZ69PXtZLPXkDrdfMKNwxwXzBu1B9nuTRy7Shnm3vT03nvrNHGSLXdlZKOat6WD9xQ6027TQPXz4sNForK6uQmkDeEJzGseHsXUMuuUIzakKDEzumZ6eRnUEFWTriiDfLIg6jnRVk8y3Wi3IM1tbWyJrhhkObQKZctIYgcTk5KTTB+yRYujd1NSUMyS/mZAxNTNFOPCXvV6Pcj7Qi10RDNefm5ujTI7WNPd05coV53CoSMmf4VWIPLH6rILa5Z4ujrpFEKobxNEUYakC7O7uclrsOBYl5he5YRyeY21nZ2dhitBShOgxgSDzNubm5ra3txkVaL8eLHWMiOI73LPcFLCQdrtNRyRnWCNIwm1llqnnqRcv+MTj87B4RKKZvb09yBnp0a3cHR4erq2t7e7uMuBhfn4eJ0HQDJcCfa8soHiQWO1ms8lANrn5TmpS2EzAwDYIGfe0FS8uLhKSEhPTMUPIjlWimDs2NpbDQBUEFWbPbgORD+cyW9+URFEEq7w9S0XD4yvY/HpN55rYqgI6bpFLHwYRAgBbUMee0DRzw+K0efrk+TlgTRAaJEDOrkaBk+hYcDyQh8i3I/CJR+QpiIpICPlXFlzxEc84Vt4Z6JQXeEGkZ+J5xOi6ExdT55F4m1m16k5GgSD0FNxTXa9otil+TnwpQpA+jEBZg5arrU6NUJDT7Qx2nVzKYypOLmmBR7C7wtHYRhhCmyJkyYpLXoT/ZLXULwICke1gWYMwDnebwnX6VCN4HlzZZFuARez88IIYyeK1oC8lRjzMUjWhP/xgxvMQuBTlGkOTRIkSSsxmc7+9EBtS/t1mUkXTTEdzpHtifho9v8s1Tw2s7MvJDMSjncRWC6/OQssfMBL1iIH1Jm+S468qCm+BDgYFoSS8ygWiEOes+ZTCye4xhy/bsOhN2hHvCCjL4h5t593ZuKbLs+KfagPaH7dr4jUGx7wm/9IswrahHBpkRmFhTSSClczRL7wgExLiLWHdVGI2zsNPUY9WXc6WFIs25jZ7e3u0GcE6IzovdXzQbkwZgY3z6FXtcdQFCTmnEnARfy1Tn+nzTjnx+JA8M4ufipwDbLN49c1Leetj+LOy1bOzswpyastUOqU4dXR0tLS0dP/+/Uaj0el0bFOwRRwAxqEL8n6GNQ74NPpSrZDiIZwvR9s89h1d6+wfxHVp2rhtJyUAkLRaLTQIaE1SyQz3MzU1NTc3R4+zXoqwQDpzJtz+K6fLtlDCXLAfU2TcpE2OV65cOXv27MbGxurqajZaegit9uInut3u/v4+StrqgxhsUZzCbtJthwq0PEVC9o2NDSQD7BqWGaOUVzaalLYM6U1ZwsjxYtgyAEsE86RqIUhENYTqlfM6VcHF65APYBqyM1FaOu8LPgAlZsvrUjPt60p2XeIrQrAZ6uWcD1XTMaPiVcNOTpZJ0SzMo1smLYkjakcS/hEukizF5k9iNe83pVWtbVHSIuuAaCEgAaebpnsgNzv4snHbZkYdqiO5c44ovTgKI8Ml5Yd5ocbZTusm3lKbifUBDlGBgvvx1wHkZJh4QIBMnKxjekDVpui9p8XTiVpYJ/5Q5cc0jNDKRmbhYVu5kxFuDmAqkh368mhz9kYONHIAGnsPC+b0thTRzFDMBTFWYPF1nwam9jGkaqC5QeJqOukcl5LIWVYGL126ROvAgwcPsFHEqcQrcvZTkSc72fM1JRxSQsbsg8mjlzPlU+jUkrSZm321KaJk/dGwQ02THDaTkbRYmmfTHpEyOLso0SrsbLyVTyQyp848vzI5Oclm08E5LAMb6H9ZZ1fMcFlTI+iV8XQGOhml+YCqNLjOuicxGk+cwFiGkjoOQzcsAMln/mSOAjJEyx6RxAXUHbRLxo3E5zt921PDWeAzAXEp3apXYKzpNGrqOWBVCmeOj49fvXo1iQd7e3tra2sEfJS8eB1+DoiA5QVL/7QEOcKN2IAfVi7DkMP4Ve4jNVj2ldmjdoxf+SZDxuQdJ1uFykin05E85AwuB/OD3BILkvji6cmNlP6W++XRJXowyqbyqL+UwU3U5bBFVTE9ut4Ym4AVlG1dYB5JGAwqVFFdyLff77fbbXqBAcNsVWFmAzxZGYe6AQaxoBPOhGjmapAoqLe8t7dHqM2e5jOZgs+pU96ZOpRVYyNaBgCQxCfcBRzCkhKf2QfKI8AiBXtHGtNWAF89/ctUu6TQ6hXUUs6BvOxLSb6cduc4w56kesizHBwcMKpRaQkiDLsFbRTlVZ4/f56hzxybHBWFhATbT2KHhCd7O5KLqfn2J1MWUSF+sz2oOZbUbecsEg/mEm6zbCPQsOYpMxrTxmkEDWgEAzTKikbx3mEXODeMPcYv0p7C11nlsWRfVCpyuk/S/LPWA8xmvwX/5fhPTk6aHcHNSHaB+GVS2mVccXv25GI3VGkA5GAbkJ2mfGmyVNOO+VoVas47yc5cfZhG35mtpLicDkUi1QhLOLCY0ETOfHcJbuXwYqlsQjIEsqTZyt8oYiwKbrechd0iJ+QREOAUhTUCtqNFsEd0xCjTACLjDy6DV3sHGUmqqhf7nxNE3oIHVQEn+xV8WaynHs5zmtWGZLal1Ku6V5ahMyG0mOgrE5h3bzgVxvgySRfOgjL5NGRM+XfzhOzdMVr14OubZKcZm/rs1nYcHcRkWrpbcrAKTR6G5lJcUgJWCe5sVZFSWbxq0jlI3qjIpdCpExFt4yWBZJsZBYLaAOAJbOvKC/Rr4mTXRJILE/TlwQ0Zs63Q6SF00cn8FqBlH7bb7U6nQxsGKhM5lEvODAVre6VlfGH5OaeE7FDvHGCIl4figu1FuCBVkHlHFOu1yTaD+13ZfGOHnAEo4LqJaI5Lff5I8SuEjB4PIS5OF4UGGUXYiP39fcE/as3w50jZ+/0+K0hQZRCT+pyay4SLDZmV47FgxD5WbA9WKWVi+QSaSzEGKqoaffN1y9O4B4ZoM6qLtLj75Do4OBgfH5f52263Z2ZmpqenGcqERg+VKVCoTqcDF+HOnTuS97UaBEmwE4hyOADseCXjvf8UxyYgQ/7g3r179nwZYqaaGkcFupttv5iAbrfLlgWQM0jiHZX4wHHJstnKiBdLhBaRzXuMrfl8dU0RXFSykXXjMDMZMgWiCRYh1dmVJn0nZb05SFglm67s7HN7W9IyrMyiWJbhJBvxTyR8ZvmGgGnsTIKLAL7oUanB8UVZeUnvCPidFUDQdy0aMYc94zkWxbjKepbaikSZW1tbHBAgZ/BaPatwGjVTdfUkIemJEeNgk9BA4+AyzKvqIdiKBC1sMLRhJce1KT4sqc4xD5aAObzGvlnVUiYta748lPs2QxMr1xllZo9nwu2WcVk3PyTPWuJY7uciuJMxWRnxj5NToU2liCwWiydlicYUpcw3N7S1Zi2F37OWA9BTDZF3l1B67pZUcedEo8PgN1LXw8zm+GndvwkA57qwC6xs+hSGZSU69y3Y9FbStkQQszJuacJQ3nwSAyXI6ji0LGr7xs1U7bEQgpEtkIVg7YntdLZGKV9vb6UPhQEX8bUcQXJrpSWnNmMzGSkuuizpMKFlY1lLATJVkq2re3LD88NUSBGoV0FWdA0QpIxFNcfOz1fkkhxSnR0x5uT9J6HLDIGtiyoIjpIs1CCVjQdUpACZrda5LYkTpEBQWoHe40AHUHYnMLHUSdgge0dBjOZU4gFwJef7q++d86u4srFSBQD/TKxFSYR7gCLJemK3U1T1GwsZrVx4CMEqLAzRl6pUGIXzra0tKhHGxVLCHcsz7G7ZSeqew+whRGBxAd5IGqBhoZOJpcuJ42RXNtuy+pDWhdMNEVhHtYR4DTwjnRx8oNg+BBTy+MnJyZmZmfHxcfwiew63eubMGZKV/f39zc1NhCop/yFd6YbAyzLfD+rh0dHRvXv3CCItRuA2iLkViEZKjdnzTJHSwbOMTJb0HHLnpKQMUVhdXbW4YMELy2idl/2qSJ5j7lJMR5VXdovOQ5zc4afgxw8fPkQwjIoVkCEcTfe9s6c0yrx3GoDU1wCI4sAoVFRGuikjb9FNelN6rGSvG5ZlhU46rHMLEqDKGQPJ4fN1lJ5QKuyZoXm36dhSf052ZubWQgK+a9n0juEmrwP8I6/lth3Y71CQHJSC5wYickYq34Uz8Nmz1gz0aCiGWqQN1EmbU4dC2NKGFdPibDNnoSTFyww26DR2cVVzVKPYm6iJs1uS7mYInh02sosMzgRCylBpq405CjI9XIYLGm7OtZi3uTGmz6TOyIC42cZqfl3Gs7pXgsfWE+WkytmXBsCcfUyi/RzG3OyuzM1c5GwvNWkEaFH832oV9tZ+r9zwBRlNkW2DbF+iteb8pwSP87iZYJTzbgKfyR77zeqhABUbMnV5JPmZXLmFOHfYW+pyGcuapmYTjHcrIdssS2UJCyxkTZhW0BO6SH1HcqkzW2Cv0iIp6132grwgXb+ySuxVVWachWMoXwRowdKYNYohlV2dFkOk3HBNkEJ+ghP88sD60m1ig9KdtIpM6qQl2LbCOUJfFia3gn3ZMm+Ihs2hBYJEDp9Fmo00D+gMb9aIMwfziGhaekrBSw6gXUcWLgzu1ZukQEfhN5NMlhSBEbpKQNOwMCq85gCL57met/3FLZWtZLOzs6+++qqukehV5X3GGGxsbJh+Ye8UCXOkhykagQ5vCK0Ex6VT0PRX2HbEc5L2HKpIvxWErZyZJiEMWFvqGy/SBgsHlhN88F0ad9Ish68AUDcaDSawcfIJ8thhrVZrfn7eJmuCGx7ENB11a76Uezs5OVlbW0OWkvVxtp4Du3BdCuoqNUxzidRaYxSiauq/8NCVzUvilA+bDV9CvNpupSJNx4tjcFSMphOAhDdL9R96A8EKrF66kXxB4isS9QBiaZqxKgfJla/r9/tWu+yb0+vkEcXIGnObxHP2hBJTzc4NILjIL6rSnBiSqgfKc3gzLjjYAMX0VILQHGh/ZcjRQi4Fvszck0uq3EnWgKTVFijF7iXPZtHAs0XRaYG8L2phsh3k7ztcBPdGMm0kKhMxgUM12/gBvkVU2EqcdCLsO/kMP6yyseCNAYEAW0JBRtuKmdm8gg0ROhX3yo4ZI0IdfPpjwS0WWUF443tZjP6vmKvPLtXV+Wy+mix94lZT6cxoOyEWq8ylkYUIwPoDM/ExZSSKCfywCOrJccScWuEj0769sLDQaDT6/b6nwGVPRf2E/+UXgmdj3JzjYjFXGX9lRLIinFkfO9Z2h3xTOeE34UkrsNoHNT6JcQ3+rLFivSULZa4lPVe81kxG5FITpL5SaRVXyD3PJngzNjNlCkpwjPsQRPArrKrRSFHGI/FE8qASFHzw4EGr1QInUlOaURrckjVreDvigoJ2djezl6QPsaRSCHgQXwRLNBgMHjx40O/3kz7ODic2pREYboy3l+QBHtyTOzk5yZpAGYTrwnwN3I3ajdSaFR5ChwR2vty5kZGRdrvNcF2EBa0JMBgPR3zp0iUSKnt2Bc6MYtkzioGnyJrbSclbSo5qSKuLgk4ZqaaGy1KGVJBvJmTMqFH0Xpzj0qVL77333uTk5Pr6+tramrLShES0o3MeuHulW3SxKb9s+63nx3SHliWQJ8JHvBQuls/02DvInN0ALEwgayulyZ9wrjiQg4yTcWKqweYmQEnSD7oz6B3yOZw9+r7BEY2r2D1ZonLAq1NHe70e2k7kNILJOtr/en9Ptr6foNikVWmNqfUXEFlumNnZKYNMSEc8ROxobETMKlRDgChhhemuojgG9x4k9iiq6S+99BKj5ziWCVpIIFO4hD9jdCCbgleR1kOPy+NEgcBGZsngwiomuAZw2ajEZC1yTRnuWsD8EKucGS9ma4tdGm5yuWIyZhRfVTzMKqpVNoN1bSh7SbVF36+6tUb/svdkxxN08urNAewsUZKw2BFLXYZ0dpag7GDNGuxcGpzFfT/E4ey2flve8gxmz77KyVai7cLmJKYWkpQDFsoKkV2rhY1HBGAwZBxmzZEbICtOR2vikaVSQytniBmvZ23XQqdyMKWvM5GwHIIsQbBonTr9RTTRZEPWvA4m59PYeGH91zKCYW4KA7l6MkASqRV1s0PROlKCkaXymGG9P6Y+gMzIAsYMS3znf4f10tmNtpUkspjJntLWcgwK1VheKaUMnF3CbNmUlpsk+aAG8UVEKaVAkw0ivC0IguHNtm6HXkobEI+0GSBHNKHDKjdaAkwy7Xzv6pGNj49DsqcMJRgk5UAyGG9fQ+Fc8jTF1g1M89yQYk8sLOE+dsDoqtFoeHwUV0lc1oKDpYOM0U2h+WSHIduMvL6+jspyKvJ4uLLUm8ESuxrZFqkXZFDU5Y3esHvOriR5trvOUT10hfp2ivUgx/PO1YF3Mh+OO9X41Zk6ODigReH5o8bnLUx7pUjE+Pj47Ozszs4OkpXgOvS96sOw8qmVn9IPXM7S8cBkiz5LQ+4CQIiqHGKHAtTZLsBfchtEbH6mXRSObTAL58jhzMh4HGiRWg/OKk19UerCMMDst4fmRZSmehMGHeMleEB6Z98liZSkfinJqdPh2bMtVOTPE5L+Qyv88OFDdH2T6mEkbUbLk8oW5eZz/JfEWyJgMjOUlbSkWljAc1TfJVZbms9xWNZboQmajAqUnpycMGaQMFqVH9B7IVjokikl7R6wXCVyI86RcjDWsvX0SW00NFRNRueUcZVldFsj0y/qJDgXNoRp1+xN5tO4VQxE4aIRfYq25hwgvR2lW/HLbONlY5gSZNnR0l4mkMI8Do5TE4fTnaGYJCpl/HPgTeaNesHsz8hSr4G7pRmwZINFv8vwjjmW+TqyC9UzoteRUytu5FbPKcx6PiOYDGLSaeViJomtTKq0Od2UKZVZvGcOmsBDunwD0ExgUl/as2CiK61CEW9KZrLEUhY7J8UrYO7ZsbCbt23DkEBLepNkPSZeSAmP0E0bq3CpmXzpJ8tyc1Ibk9fo8c9GLv8gtJldJuzYbFTCZwuiO/gq5Q7SRGetUBNaatDZIWfJK5uFT/XF/oAidDnZH66OWb2D5pBLA6TH5Qnu0J4iKdymFlh3qDLPzs5it8nWDLt166nqkBVhnb53bqidZQFF16FgWjcHk2KhcBnNZhPIExzHnjnUhQq9JycjZEZtK4kZOHEkcp7qTmCEOSauuapembor7p2Sc3ypZoFUqtQAPSYYZFUaaOJ0PVNTXX06HyebvpXHNwxVToFv397enp6eLqfy2ddXCxmTMqJDIlpSPUeJBDIhCI6WKtSTTKKroWS+3fKvloQ0c5BJc1sUMopcqIODA3tClRrhjebGsqRl762UZGdC2Grk/bOzIQKSc+i2JUorvuqcJX0he2tvb297e5sqAJvY7zUNBYxx4GHehjhB+huhQXYeBQU2tylIppW6QONja1hCGo4/d4q8R1FRTIMztemzVMTrMFaWEGb2JnYCjshhxuvz60S3RPyUHhyBT5gomUHpJZlAuaNss0jFMjBaFoEkUn5txmd6xAKN6L2M8rNDwpTauJNUJ4nVCZfmKGo/EFtjs0Lpo3Roqf5Mw6FAkoXO7KoRZ9JbFIW8Ig7C/wpfKTAu5y9jcbl3fJf6zw6U96yVYC71jbMkp0SDmhrpFawJUHHD4CikbL04dU+EnZJyKnhptGrzew4pYdcl3zFZktmTYWnMBrXsw0gePSlTthHkJBLBPF66g0xyDX1TqYRVJFp8vzkP0yzRNUlwHdOKJRGfM3zMZmf2J9USJpUZ7utNMhQ2prGhJNmEWZz1DDowIwVoTDbSQ6WkvEFkDp2zMG0OU8aZZEhqIaUcamcKZJydQ5uMPv2cpH/k9i5YaTaF+BKLX04Ilq+GV2AirROhkAIRhQNIU51Cy9Dl7ZJBEXpqaopYjbZOilTSyilJ2T+eGE3i05lzepmc685kRmFhTKpTq5+CMmMI6KxSJ9UOp2xCV6lUWpHqAdw51t4GF8ELbGm2jlkuJ1wj3/aI0emFNE/21Gv6IJ42Gg1VNrVdMklKnJ2yG9ofaZGp7VAGSzq6QiaJE4nR/Xn55ZfBWb/5kLFAl47TgXJrsT+rFbpPDY0t97p5p+NntwHleSkyOVWMaMyZOSnCrP+w2C+eATPJWQKmVtIdcuR55uvKK9gsrJaYTnpvb291dRVYhZAx6zjK+Z4/f/7SpUu6UvY39E0HB2HNIaakCoYpQlYiirkx3krTY30NgiDHJgsxnCv/Mnt4QfLK3AWrRd4Sr3t/fx9yiSoJOfvB0nl6I/+pDAux11LgKm8PgwVgifQA/5tKNJ7kBMlSRMOOqwR+TBBVR7c33+qk95xQQbrVnAqtYygjyFK1LuuS2S7qW7DsZdaEaKK+yrHIht0irMltIoJXI9p4NzOHjHg06CnuWFCfpLEb+ksqN4xWI1C0wO1dSt7ubdOMslU8OMM8P+9Z5Q5U6y3ausJlInmaNbmqVmAVM3Pr2ullTd/kRzA+pwPLHpNKlZ88jBUlVmfoibVMYmIWdo2ocAyJeedPig46Ky87Uo1RxI/zjBtm2fglmcGUQ6KeHnRvbw86eLIGXXnJee4Nz3hq92rfSu0vNQIN99MFuCx+mkuUjS+5SskKKHXzpIRKYlYo21WirlWMdhqKpHglhu0Kp/pSZnf5aSnILOlTBDRFoUk/HByP9jAxhKVVjAZkuyIr9tJLL7VarZmZmUajwWBbGMOsKndut6jVFZ2ymrIpHJEHXFqhe0n4WUqrchnmKlh4/lchCHH9bNUFOzAI43dbrVa73WYFrCh6cnH0EJodWJVcHYkHbvtCXgfMQiwC34SyrKqTRCNilkmT0BjiiRyekl2AhBny4A3HXRlcp5Bz2gSwUjiaa2trx8fHMPee8/o6hWnPJ4qDjUYDLqp+3bgBWu65c+dU+0vIKo1gthCaBj1+/LjX61lQc1vodewr1MJmRJL1e417lhJS7yqDvER60rEpMOlszWR+pHi9Qhs2Z3HI6XKgxZsP3NzcJBd0/yW7yIJCJhC0CtnEkGC1WJSYnHCOqAnl+DJxhNWwTcwb1qMnwb+MSDIOYJ4vd2KnoSOVs4fD4InPtCcu1b+dMZC8ImeUwR9gtS3HZOufahpyZ+2xcNcZt5lI8O1izDncOduHU88vQbhs+dToJz3AV8Y9qMyceGQ61AwmJAum5i1HjLlBGAJMJGwQyZHcg31m5u4YEbNno4qMObKBxpxKf2+HQarmSuRy56SbTL5BstpTbc5iawYr2TpQJszqoZ3EQ1e4virZHUXaRkBXcNRGPZN+g/uScph/pvA4Z1PikeOJU4E/aS0epSIfmCzbIj6SoXwqB4E9DHdwpw52clITj0kxyMRgEj705GpetIQa0lSPKqGev17yK+2/K8OzCJNndpdqQQVwld2Vxs1LOp3M2qIp7dE2c/N1Z2+TxdYkGubbKXRPUxFNdJo1z2mSd3Mmh3VeDq8mRW1OYCTbDXEZ4+Pj7XZ7ZGRE5pz0YmldOzs7GD2pkJbUHSM+MTExNzfX6XS44cPDQ5D7sbEx4MlkwuXqKUaRFedcK4e6ZW5p1GUuYU2AL/JE58g3jp4yHTmcmnXDS1LOfvz48dTU1MzMDGVT6kqPAAAgAElEQVRuC27Ji8sJC4WEVlQRPPhlixoJ4KzRe6HO7rAJU26Yi3a0AIpxDxcvXux0Osj0QOvK7rqUtyuDQDO7zqlR4+PjfDLhB6T/bzFkLHkea3H27FkwahrTeJGAapOTk0dHR0hY24hgzJFH0adFUqfZbFIldEoPy8QqGMd4yG0c1uTlWiDNLW6RvZO+/hRQKDU4wwUnoTlsOkuEGTco6JW2zFAGYp+dYmID6R44MJzPonyeQ5MShNO/ii9quxXxGe5v0PKy8kC5qsakabY302F6Ob7CjhNJCMzFdymkrQzPaUB5WEBOjCdrMSq+Eh7xCrLFWDDJZKvgNL4Ca4XFDedQkKSpJYiYV8ZYGSnyRanRkxK+hoyMY7bmUtohC7Wf4APTYxJlMzuOMEcj2FmsIJyDdpzxWAS6k7CV4zSKH02RPFXQHKKtnLiCRymKhj6XekDURNBd9zEtc+ckFaMiEe4ElZMb7mxo4zmca3I0dXWGRCL09KFLbM89kBNyTRWw+xlepOhMRo2i6ZmKpKfklWHT/eF0q25LNdUySiv8vOzJ8BJsy82ccGlChhnHJCadJ1Qr51HyqbMbJkmHw+l94TXKuLVanZszA74UpMxTM8xZLEoFKTeWdQN7jLIjJz2x439UKBQDsymkGBwtmGWiFGXMYTO+69TZ5g9Eb0ZyFNlySLromvqICK51u90yLpUxrWhWSMOAH6XTZMcSYyHFDxMs5xQAK8i2kvJhrEN8JsiSHLMUKk/l9lQGSJxeGWrbIlXHtD1RS2tl2TSGF2RHzvj4OIuJ+U2SVTbF2uQgizrzTwFmbkOc0sycEJAaNM2sD+OSApT0WTslFL7F5qsKLilZ4ECUJLumbBpRGM4uTHrY+Vejsue/vk7ImFaJyP3atWvr6+sMm+d0uQsHg0GWreV0Y5FlVllEUw1HwWrb1nJKUvHTRaRUqbmMqNKylEfIknSBAcQV/DTBUR1zztDLnJWfMRhCkR8Mzy4QATatORVhdokcSrt/UgU6ESl5M1YB9KzKFtqBZBetn+D4YP5gT0OOw7J6kkZ/uNKUjn9sbGxqagqQj6jCioZMUG10QgISetJXsZI2HWeFzo7XkppnJ4R2X+9o+luQGzdPjjtyHTIxKDhKqgeXiS+lUZSvs8MxQ4ciWZz03NHfXZLzsP7Ggsm7zyI1Zt3ZS7zrIh6emGuJJ8p6ug5GZmIqhghWJ4vGjUXhVAw1ayqE0XNxGTVm65/dKpZZjezNeSyX+yD5aImU+04Ft7RmRpmlSzftj6FtMZXil6Q6pUKde0Y/ZO07Iw9pjslzLXvMv9FzZPYrPFZmfqjK7iyAJOdkbukn5JxDoc0cjjJc/E1EKucLl5krtvc5vcaeAAuvw4+cHNbSDZOTVzKxN27Or8YICweUMyheoKaHT03jKs3s2b1uQmLFWSDZ2lTSVVPC3ZiY0gGzr9yNVt4gkdvKyU7Lm0kBEBqcmbkl5CnRXF0O+f3SCrEerD8wPA1hisXkiNoUK82XxR7G+KQyNr7JVw8FM1+cWijZIW41DLK7O7yIqDvWNWVVgAaViMaIEZY5L9tXn3NW3FdJPU9cKTN8StLcniorZTwmL9eUxshYNjMZLATT/C1OogMRsr+WbxkZGbl06RIVJ7VEUrErGTvPeX39kFHMqdls/tmf/dmZM2du3bq1tLT06NEjwh1G2PX7/YsXLzKaudFoDAaDbrcLtcKyS1pVq7q8XWHzHOTgJbs8TYB/w760ETXnETs5MMsKWWTktBgdpiqs3k6lOuFf1XSFrMiWHDNjg8vR0RFaStkzxeNMTEy02+2f/vSnN2/evH///ueff/6b3/zm9u3bfKZTs4sj1zGIUpizsjPYNBqjLMFgjh15TpVT3EvYKXezJZJ0CeJq6uqBw2OYtF/yBPhh4z9nbWdKkMGlR923mdrvpc5YqlcFHTdXy7KsHICkYAsAp1BRsuYLEWq486C4SblxJjPulpTzSOzTBbFX1+dCEkXtUkweouisKoeRUlS+vpxqnW47A+VEsDwI/tnnNeDLgWx2IEqi1+sbNrElMpnB8LEbnYso6JItpVkiGB6Sy7czdTrfVxIDDFN88MTJZIgWJKmUlf0Qz1eytwWunBuGv7Qql2xpW4yTyZeprzixZa8srWa6VeDDVCbPDkJlmZPTScCR+mLDSJsBSrImOJLSaTJyzUprcnz9Q5athXYyYfBoK+9vMTHZYP58ESXwD6Vinklg9j+V7u8EywmX04hJGiM3wx3gxbOwLqRkH5W2LhvPs5tHJWfiRXv/DQQxsyk9aLm20WjI6Ze5yFNwhzYmZ4d+qm6BLFLEoHnAUVs0FFNORSWDGjfKCaolyBNAL0aXbcu5qZEl2oKOpwyIrWZymrMBK7kruU+sbZJRK6sMfgGeZQeeMn+llmK9wkwyDaOsAA+m41WIAfgWRVFKguoGODg4UAOSrJ4PZIReMtexIVhOCzsZG3DzOAUqrmBVPKmUhhxA9a2HjIbSo6Ojr7/++tTU1D//8z//9re/Bcem2ISY0Pj4+Ouvv37lyhXbY8lX1PVNEAKjjLhjjgQQwU4CVkLcKY+e/bCWD9gxDhSHwS38y/YFOs4IMgdvKBOorhtltZTLSeESjaAM7tRrODo6IvAiqOWW5ufnf/KTn/ziF794++23G43GycnJhx9+eHJygkDUcDErKzXJ9dS+Ox8iq4Q5mL+IxsmIt0LkURTIzLmF0s8dYKWRPXfu3P7+/p07d0DFXMn8LTeSUZS4RSZ5qS4pIdVAU+OSETAHwyghZdK8E+xXBm1ZjNMoy9NysxXnN1zGMu80JUiQJhchdTeS2qv5hi7dbDZ9fYysdGNbgre3VGNnRG72lZQ1fswGKSPaxGUzXsx5xPzB+CZvuIx4FjBQmtg+JxkF8pz0KGZQEjYEGDiqNNAoJpJd6t5nltE1EcaCnhElCMzuhOFVaVZzOEPP0hshgiWMmmmwgESJtNy6Lk524mfVyfqmFbGyu7JjIMkwKSubOYxeLdnkyaq0KleICimWnj7Pn0+0MkWFXFvscJIBkvzgfmPzCOG4SXDMmQTyl5b5sosx8W9MrrzzHJeciaVMyhTuVYSFTzDvcn6xYpy5K4qz9wD6jqQYyr8H0XDDq8th+w4FOleMEJBU0O9CnKXT6aAFmDEcLi974xCsEakSex4bGyP0xFEeHh42Gg2ijcnJyUajwTynJBrmihlWOh2ebJYCmpOfxN6gYs/MzDBwWLVXFLChbjPRg5k3WjA7eJRqRnPDSYm2gxAEI1zf7/cJ4/hXYrV0Vb6j3Gm8EUUGNCksHREho3czsiTG4D5h5sihR32ZbJC3bAMTobnntNSpNNH0AefgUFMs6hJM1oVuLjprk/EfKWTU/HGQ5ubmfvSjH916cpnBMH/5rbfeeu211+7fv7+4uHjnzp2VlRVQcYM8GQxZwtAlCAvr6qgIO9QuV7O0r3IY7PCi5jsxMXH16tWbN29+73vfe/fdd0dGRnZ2dtbX12/dunXnzp2lpaV79+4xQT/VjNgugMC8SCVv7LRiP1kpUxjcUE/BF/VrYKgQWH//+9//27/927/+679+9dVXbQD/8Y9/PDIysru7+8tf/lK6WKoYZDVHGdWULeDHaJLwxhJmM6dJECXJfBmTycajZacMOUh6O4WA3SdXxp1Zwc+KsNTJfKeCRv6NDlIdoiSPepYKbiT5I5lDw7tFYlZRDUww1XUr6GaBwL1/nahHJukBRZ4tPSsTmTudzuzsbKvVghOMQn6O0k8eWFa3Bcv5YfJRd07GlxzYJO8nQJXdo/nnEm17J+kvkxiaU4LYoiVc8BMy8cugpPAsDZIsrxTyJX+ZBLvMGfJ1iC5gxM2pXC6XSJJZdpBkwpA4XFIMCwWzaA64i/TiLmNWYAtdKROMYYpe8uFSwjDJGzLweHDDYmOsolFvsbXcVZ6jnF+S/iIzcPEwkzdxUEcNZdxfatCFmZpT3VShIjayc87u2ocPHzabTfpVHbvqiQaJAQXUc6dieaE+Z8kVx++j5cAnixg5srzIKfgz+CyrEIRESazKQrb3k4qMxB8HBwfMJMMCK+8q9E7EduHChcnJyXa7TSg5Pj6uGj8kPEIN1K2ZMci4UdJy1GRoJaHxThjYQFBc0C1ExF8IVIyJWlhYODo62tragjrZarXIEhV84K2xmBhDmVTOz8wmd40/dzI6OkrPbvbjZw5vZcBKdB4cd3hq1EspKclz1j897En+ySksWcwR4kkn4gbQhBJIJDVWFMnME8uW3clsFWKhPyrKmApqBCXnz5+HWUWvPmeVJGNpaenLL79cW1tjVkQZCZqNTo49dWMlzqFvow6SahGGFxJmZXs8fvy43W6/9tprf/7nf/7ee+9dv3796tWrc3Nzly5dkgvyN3/zNycnJ91u986dO8vLy3fu3FlbW2M2EQlHs9lkUCbBkKaBuTK8NiJ30giauTiZvV5vbW1tY2Pj4OBgbGzslVdemZubg/6CFNb4+Phbb7313nvvtVotJRtZyQ8++ODMmTNvvPHGr371q48++ggFR0XOhoVwEw/Q7BaDVdiQWerCcxAcC8YkzybZ4pghI3JdlE08ttoYkw3/ZJ6xUkM0Ui/0wVz/jNJSNCdPeNadoZDmT6bWmko6uQNVtc0lTXyI1+F+9g+mkuXg/Nfx+13zuIUwwziK761Wa2FhodVqQRtgUmJRiDWVylCpRHglRs8qWJHUyTsskVDhzqbE0vCDlyc1Z8gG/7zPDOP83UIbFcAQwCuylNl8VqyTP5NbOvV9CutU1MSioTBzSuVlUCuY6oeXQC1b9UtFIrGukn7kXaX2pyfaBhGRpOyfSMbhqYi4wnUyBzJBSl5dRpnGhcnfyjNrcTDfS668kGc+pg4vxShSmqCkJflSMFmSdNNJAQo6DJbgUmJoiUd5olTCK9Yynyhh7BSF8Oly6dIC5+BsV4MIgKiLjSqekmyQEqAnHdYlUi7D+Fv9BCNpxz8y0w8B47m5OWcdNZtNOg5dQxAQQOLUo7AV7+LFizmHJrG6hIQkHujBce7j4+NoLppRZBKSap08qXrAKfx84cIFAj4L3NkfCR/8we+uxBG5UjXMb0+xWGn9hcOTAhc+bLb1ZD+T8034SQrfUmtSpaiUT/PkQjrS+0iHcCSemZuZIXA4d5Kq9c95ff2Q0Rg5ZW/39/dXV1eJhA4ODhDY/O1vf7u4uHjv3r319XU4s6lrk3Y2J4b5JGp58GcGtxDA5RCIHLoKJ3fiydVoNCYmJiYnJ2/cuPHmk+vy5csglDSfkhsZYk5NTb3yyiuwCrjI8IhQ6bQSijBh8sRmw5SdxQDplOMlLDIE3f5/bpvh2mwCqt7UE3/wgx/cuHHjhz/84a9+9SupNg6BdVTDcAuhBt0ULdmN7mzO7fHxcb/fX1lZ6Xa78ApKH2I6POlrFA4mJycvX77c6XQIqY2rDg4Oer3e+vo6ckI5bMMqv/SOdO3pvIvecu7AlKdJ6+kBK00ewxhhRt4GN5r4lE8T5cqRFakq4kflScni16kxcVr//BXhlu3t7fX1dTREFZzX7iQYk2XHAkJnMprtYsUNZ+CeWpgZxCQYWR4qvzqj9oxmkn+WcVsi0OkXi6suMXHpdTB1LGI66eYlzhYiYymham0zHU3+RiJtGisZusmjdeckFJqrWvDUp5ncwl1OtcvcydmwVT7Zp/BDjFeytJ3Hs2hI5SkTkimt/UZOki6UD/MpctvnIqT+edENSe0CEdD01qXBMZ9dwwhkhdkEesk9nyoTfnWalNTQLsFuZsIFd898wH8qikIOz7TUW45A2rGUfTaqsMGF56JtQi8JWFjgYe8HBzQ2NgbcSN8qLxHskOonYG2j0ZCURUGJbSPdXMktU5c0j6mO5Pzboi5nWTbnHKYtdRiYmkopmu3wekyfE+AM3IsGsJF9YvnsFu1JdusrY5f0sASki3aVQED+JfwEsrWcla9xSFBDq5uhZHYc2l5c9qGxU1qD3LpPMzinXn8olzEl8gFFTk5OBoMBRASGSvd6PaiN9sCWCpfLkSJbxtrWoCk6vPrqq51Op9VqXb9+HcYD1C5nEhBNTk9Pt9vtyclJIjPEpWZmZmhNIsayOT9nTBPvTk5OMhYpr+z4Y8XzdRZM5dlL59Plz5MciKTmQLbmk+vKlSvvvPNObk10FosiaJ7P9EyOhEllbKcY812DweDzzz+/devW4uIiCKsvi7jZoatwbiYmJprN5tTU1PT09Msvv9zpdKhf6HKOjo56vd6tW7c+/fRTkOaUh8hK9HDBi8v+uxQ+KIw909BS4S2S1CmxkUFkupnsC8kiNfcmXyR/uJjg9IVlgm02uAyjBUW5HaS52+0eHh6ura1RmknYuFRaCyQzfGPDDjv/pkQzBus5+6v06Rf0sUT8Wj3BpIQAfYm2s+QTDZc7kwVofFOkMbPAV/imeUhL2bo4cnlmKeCVSUviCgVb9ebte0gd0PyBZN8Og2flznMPD4e55V9Tuypxd1OvdJClgSbLcxIBE/9Omdti/XLNMwHzUBQloOFoz8aXFO4xICjkk2GgIQ3a8G5390q/kZto9Ka7tdqQ/O+kRZYHTxDR0KSozGqRSsOTUCI+TiZMyUlS/Cidpnsp5yzwY/v7+86qddBwegTHK9CQS5TGStJqs729TWjoiXAoc05qUZ/Okl06dKAQ1jN3rwGu/SWsoQPo4X2BZSgQ4YeT6tAbZNPPsJAFdU4iP6ixWYFMlnDCoibYslGzCzYJ0HAThatykFVJbDKi5ccARI0lnHaWljm/tyhyZCKqbCfvRfgwOQAppJpqjme+yvUHcRl1KsfHx8SLH3zwwfLy8i9/+ct79+45qw3SGwSRctgK3pALwfCGdrvNUMt2u03X2He/+92FhYVms3n16lUwOXq1+BVeNnFMNtVnqwT9BNbBc05U/oohCG9UmkLK54qrl0aZBFA1zc6ONNAx7TBDnZycTOIdD4UcOiD2jRs3bBHQFg8jc8POMlPngjoUV/SjH/1oa2trfX19Z2cHwTwPEsLRAsMgtci5I2cvMyyFJNDBX15eXlxc/PWvf722toYkGMno7u4uJfjS/O6wppGRkampqYmJCcWZ2XKpEVDOmIcqM1oibAQmNjY2ZMcq9K0oDLdh/69+ImES39Ewdz7piZmwpntL3lvGKz4Ldg2Qm4d1x/qBGfKWguMw2OkRUJGBvjk3RokIZSJa0ciZMQmUlnE4RaE3LXgByRKgzZpdrkNSL3Lacob1mTGX+LsUzfOklHJ8rmehdboHnlYuL9HGqRvShSrKfJnslW8/1fCm30068rDmg5s5B0cNp7W5ziWELXuy9I3xT7mFytEwdczmax8/k7oCfniHpW8s22OzCUlDmglhzl7DGWWMay98pgHY5xQrTXwxq40lQcpdYQtd6vX6LcNIQe7kMmGo8C5KgSIl5BJ2MjRncp1U3TwLPj4ftbOzIxMRZ0qddHt7m2KxC6LOi7vLYrG9WRblUGccGxuD73gqaTsBYHplmJ5CJyUHipux5xd7SCFOBWwXDeM5MTHBu5DKkuwdamiZCvLJjFTJ9p2s3Vn8ZZhtlv7dqFK8krqTZDD17IhDYEnxBsGz8GuZZzpWI9+4bV7FjBhpIMnCWtnZSciYLMk/XmE6d7D9KO+///7o6Gi3211eXlb2M2koKflWBjYIHb/00kvNZvP69esffPDBG2+8MT8/f/Pmzfn5eRxGq9Xy5D98+LDVal25csVabU78tIGGDCPvXIC60CxKBJbujfSrNCmne07yaS5RYqVJHzGFtUHPUqM6Doknj4yM7O3tJf+gBCLOdNYu5CMnRSz/3s3E09GOMzk5ef36dZmIWmTy4KftB6gtiHW5PljqRqNx8+bNt99+++c///n29jYhI6ntYDDY3t5O7ra+k3c3MjJy48YNhqISMiaHJgdy+KQptpeEtoODAzRsP/zwQ6wSifj29jYjU+/fv9/v9631Z4NCVous6JWgIRc5a6xJf866Q4pBFgDMMhnls9RDVsMiX+KpBzPr3bbBItiGZi8NgyIT6a0tdRnPpXfP4ohRiyr6zr8vdf9CjnQ9c45RlrGSSJAsz5xn8AyTV9DEkvKVkR7+Sqq7DTcw5ZI+/u+Xt52FoVNL/8PKMhn0Dyd7T3vLKSFeki53qeBHnpS0UcPl+KRnFKkdv7qMUE9UL4OwjG4N6/OtmZnkvsr/Jj812/MzoMyYu0xk9mZIL43dy5A3ZYPVdzNRNAgeVtIoq20PhGOokgaQmmX5sOlTCmNheEtnPlx0qkvjBdYbnQ2JLn6d+vP8/dHR0WAwAPTqdrs4dKl15qsIIKRutm4047/UDCk7v0yUzqGRdK7QfENko/QPpTbCLBwHlEpwBD4KO4nX0E2IqCXce3R0tL6+rmiOL5HAWg6r8Ecii5hfQkbw1GKgUnMx94YMHMtlyvwZ4pvDqFuZox/EJkn1xZXdKjaGlwQmgW1hXfDsZ9vPU68/iMvIu+Tr+fPY2Nj777//s5/97O7du//6r/8KepSdKx4VY2SbDMbGxhYWFqhvvv3229///vfffffdsbEx1MLNJJJ3bB5ZlGnLefP82NjBFiyzF+2VSTqgV3Yo57FPPY60U7lKpX82IYEcCWgjRVY3JDJznOypzDwvNYaKjpp/M8zeS5k9BW5KiUrsJ+l6WaMv1UMq16nEpu6uzS5oCZXez5K1p31M3+AP0GA0TF3yjRdgSUOMcfnhD3/oKU2hh8Fg8E//9E8ff/zxF1980ev1WAF5J9ishKUTWyr3nxGh8mPZP6HUyzDZn+2qkmjKWKaXSr+bRcYSBHiTHDQHpqXETFlew02bmku0VCLRgjtmCFhWJhNi0IiMLLNXt1SQ07u7pe2AKRSXQrcveyP7bDLu8bCovpTimtnqkZCYt60fLWXoHDaT31I6/UsWOkxjKi99mLZvGOFOMJ/MOn4JqrLWnyFLTkkuY1QKeTSjf5tM3R6FiJx7bFj6sRDshuv1/mWqIA1TMoZvUtubj1wUHIVjy49lwOeqWtF2V8jnG6YM8q9pM1NKTHfDL1qfKa87t0QuYxZnMhB0fJpawkpIAiVmplcSGD5cJTV4+cjEJAKSygAKM6X2hXVSh5ckI0XIk3YZZz6puqUz4n7senHcOYEHze9KmhivF8OoJI0lRNHNdHC8BUrzPG/pzkwCYgGhzS5y6nrWKs1JVFMRmCREsdSeNFCDE1yVYKrRggV37kH1QCVm83QnIvPHCxllQniXvp6f/vSnd+/evX37tvN8yFomJibYE+h/2vxxfHzc6/V+8IMf/OIXv7h+/frc3BxQtrKFJDfuYMcZ5dEqPjJ797zV9Aep8ym67k4SWE7Gax5XrZIRG/90am9sKduJUelc3QHGiElY5BgYoyfxq4SnaUeGfckw85J1KK08Wl4w8wzuPatlxmW5kxxQm9NBOGZlCh8rn1NVUppVuTVPYNL4sp5e4piMVHKMkCfW/cPveuC/853vfPLJJ//yL//y4YcffvbZZ7dv3z45OZmbm2OMjWrMbFEW0OKIq61LYAwX7F6z0tLBmn7Ld2HUwhvBiLAUqUyRab24SO5GcW71sFL2QqeeN5+MBe8zw+LimIcX/9F/v3Kr+IEpU5dcNNljSfMfTsa8B1s3CspV7NVwBphVSzM3wQD9Vn5C6h3mFLthrCujrvKNRZHKlKAkYPlGhinqpVaTLF6DFe1JAn4lafRda8Y9y/4lVRq/cbjxpWjlpvyNih5JDi5V+2QZlmAip0367fkePWjDK5wwf6kvZ8CKUUqGvW22rskwb7X8q1TprDsl29IfTsppSdJyt5enHu7t87ey/SVFrHRwdmSaKkA18YcdBJBHMueCJAqjSU+03teX02Ux3YB/UMgU+U8z6LiX1JfV1ycGadidY+S4VWhOaupRUCLayyT2woULKhbRwYNjgp0p0KtsIffvHLg8tnJhnY+a2GomY0mETZwCmNNeJcMDp7kkVdHhNAg38jmGjCA158+fHwwGhOZ2oGefRmZQ2IevETKeDtL84dfOzs6nn3760UcfrayszMzMvPnmm1euXOEW8a94XB+GYYjU8n2q5Oh81Qd7cX0jlwaxRGYZJT/jKkBRaj6fshf/e8hbOieKw/O3nvaB0v9PRf6MLcoNlLaSo6MjiubwaClqYAGhPOuQktKaXp9f2d/f39raunv37scff7y2tkY5mLrwYDDY2dnRNToyhz/Q5wgbXXEHgkJYpPx90rkyEHEYl9qB+QbTDQyXMmmxf/XVV2dmZlqtlsZ0e3v71q1bm5ubKWMxDA8nJK/FVMzMFD/5bY5q1O7LFpKhdWojcwH4yy4qfyj4TcGTdJDDqi6Z9SWBr4TLqbCT3IYy0dsYIj+5fE4WlfKjMsLzlgr1Prs0EhXLWkSGIOnVvJPMTDLY8mAmzpFqRPnsmRiUls9C8zIJL8N+/DQbF7LyoFwizDbjThW/ZSgWOqBpSaoQSESxzKKWbVokVWwzN3Z5h7sKkstOkJETNWElJVsO6jAVWMlIZLwceaQQ+UWlhVgfp53BMqfuLEEIkl+/39/e3la+XlFuBX3Mqy2zkhWjT1LoFqZ5WQlRqYeUg3l3jx8/1nDZwoIlGR8fb7fbVHIgTdIEA8Xw4sWLk5OT3KTS2cRPvMfd3d2HDx92Op35+fmXXnoJMTKL2rxWRoSMjIxMT083Gg3FWC5cuLCzs7O0tAT42mg02u22k7WzZwMdokajceHCBZ5IriRDFM+ePTs2Nua0RhbEDiRARFRfkvlgg69zCnLPS+JUGca3rKBykl+xnGxCC9BZETo+Ph4fH7958+Y//uM/vvPOO1QvnzNe+IO4jE+7Hj161Gg0PnhylWOTCTcnk5MGwTZ/uETrL67/kStZHXy/DW7PczuZLqdGz9OuzL8LZlPIecn9esanDd/PMCbqVZSFF5oAACAASURBVBoXVF/y3DLP3sGmp27RYX2ZycnJS5cuLSwsvPvuu3/3d39nCvjgwYOtra2dnZ3d3V0dBvHl3t7eZ599hjoV2jqwLS9cuNBqtaanp+fm5m7cuPHWW281m80cTqp2EiZmZ2en++Qi8C0PK7jCoGqGWJLRoRhw48aNf/iHf5ifn5+bm7t48SJzm5aXl3/9619/+umnv/nNb7a2tshrhYSzVWgYvHQUSsKi3om7K4dVGF4oj5wKvWJpuf7ukJRTzrYM/F+i2rm9xTtLDiNx01qeoqRSugvtye3qSD1HtGXcUyglxl4ppC/KW9DNcv9FI9AzksFQPp11Me8kSyhZtczmniJX5BI5I4ctkWONsvAqqGZsKtvS123/wakd0BleGwtay8t5zXn2C7es9BKlySoC+1n0SIZ6ZiAJMhWZ/eE+Oa/C+CxK9eXG8mc0rRm95WsSzUIKww5Rdn5i/xnjEkAnSKa5I42kzTE1AfhYupJLaShZqmlXiZs9oUo4O7c2MwHF9drtNoNPz5w5Y0wmcukjZHWivHGfEaARk25ljx/IlvDkCWRCqOKPtUfTKlsnaW3xxTmVV/F/oVkVTK3RO9krUXbHPyr6jWShBiHlHZS4TgifOjhPff78+eknV5Gt/b3XtxIy5pTVlPDNqkTBA5590y8Cx//B69TA6NmRn9dw8eUZrzJRkxIRphcsf/m069l75tSIM0NSPXpK/EsJesYKFO6R0/R1qEod0QCOYUpZbEzGT3/6016vRzv55ubmRx991O12EQq4cuXKzMwMMgJGEnxj0ZjAee/t7SEIWuBPyysgnffv32ceALKm8/PzMzMzKA/Ikmk2m7Ozs6+99hrdQnfv3r137x5tQ71eb2NjY2dnByBhe3u73+/T8W3kp3MqenvZQ809pyBIVvnTNRpWFoeqcyI+I5j264xFynvPX8x/zZJxvqxUbvNmcmh4zl/ROwKu2NLEUlhbzwGAQnSGjwWpLWlVaYh2PDp/phbJXfGBphA5TysZljK/k3pf/gkxGrUUIM857yp7p3LYdxEKyG3g46f/y4J7/kqGa9ZDsxyfkeWwnNZw0SPzVVG9rIFaKi3Ba6YHmTSWQbL5cmUzJ3skRaYSBj6V4lm4kkVTzAlq586dA49k7xUUyiCVJy2E/sT1ixpdWTSJnsYrggs5hAyUtARhxgygqgzNz84PbpgiMkgeJRfKNbnIRpw7OztlFkvKKhFAZ3FDefO8pdT2KhzZZAbnZeN29kc7ndyacvJo+UZ/JcVAwCySfeg8axdNV1W6p4t1VVXQWfyvvPIK5aOvVGr+VkLG5HEPN0+VvoTs8HrOQOTF9T94PU/4XvLm57zZEmz94anC701Chn+gQBGZI2a/ZF6lMFrC4lRTS6QBryYuglti6TDclD8wEycnJ3/xF3+xv7/PX1oKyQOFJaLEkLeUmh3eUhbfS9OfAmOadXyPQRhIJL/++uuvq1hGbMpcgfHx8b29PQBU3IACPRLks2rJPgE2WFtbW1paWllZAb+kQ3B1dZU6XWrp5cvKPk3X3/narm3+73NemcbkbA/tbzaiJmdaeMmBooeHh8IJQom5CMldk7mVBVNRf1dA0CiF3Iu8uam7ob+YaFFwLMxUwHU/JJkGgqxEA4BM8obT3ZYBPIWklUSXZEsnRJQhY75lN3CZLekg8tRgSm+aknvDx9nINavSgugGGVlbL/31RekpP7moNeXLkpydgpqyGjICKDNUTXtEi5UPY+lIHhLrVVNM3XUodLYws0OssZhrGRZnqAoqVhgIWYzSxasZZxIoOgjAxhl3/fkQbuzw8JA99vDhw8Fg4AiZlPzE/lAHp5+GnKfI7zsIx74CCTb82UJ/UQ3LBffV+HbcbApucC4ye7SWIgZpsJjMcmsdaumrb2VWpoUvZ6pkPknTMh+YmJi4efMmBNavZA+/rcJ0GnG7txQEGm7pfXH9n7nKZv2Tu06VqvJwpkiv5r70SZQrY7XyT2obDQ/qEIWiZLOwsJD5KCZPktbTlF8y1tH3F7giU16BBz7z6OjIRhzNd/aMw9rB+o+NjU1NTaXeipzrk99d2UGfNEevc+fOwfuEaMW3HB8fo2eOUChxpKAv1K6MY3TVu7u7t2/fXlxc3NjY4FmYFUbkdKr9ybpeGjEy/unp6cPDw16vd/v27a2tLWIjUZaCd/Ln0dHR2ScXt7qwsNDpdKh8cQNgOYPBYHV1dXl5eWlpCaLCyMiIkyFLi5J12ORCOYctecap4eKtZkezXnOYHsoPF9WnRAEyYMKHyXsTZMVnp7yRH5vPkqyVrEuobJW96ukaBbSSF+u357wA/W7KmpazkD9T3O1wa0upeqcQY6okpsUQTk6afupUFOQ4z2b2e5XmuaS3ZqhBpme3CmtVyKZlU7kBUojD3ZXCDsZSmhFjWfXaiv2EpkmS43ikYSkig3VlxVTKE1OkycO0wZET1ChSliE1K/IsmMRKpDHHg6HoIU0dHDuOU7nGXZoZQiEi0+ZsjOuhFk23M0mzkBvSbcxrTVkG8XLvMGd2a42dfPv48ePp6envfe97N2/ehCUpP/B5rm8lZMwtkozpYqOLmte3dCcvrj/yVcCDP9FrOJQpIV1u9d/7iIWfpNvIBoXS7KW+T+HO2+yfByoNVor+DJcvy+MM+6f06KW/J4uD2eGuvIAjExwplOWbZy+RtTlq4jLW+Ve+RcAyC38a2TKxDVTv7t27y8vL3W4XdSeYWEm/G74TV6+UPkZGRi5dugQD9eOPP7579263293c3FxcXLTO5eTPmZmZ6enpVqvV6XReeeWV69ev4ynb7fbU1BQlQj4Wz4q8/OLi4q1btwaDwdraGuOXHAcltUsYmGCaCVulvSnntuc866IolOy3EnnortKA+yFluxqdDLd/5esrvL3MuE5Vtk+upKFeKRQmtdTIMtHNZOmdGvvm/ky0WKyugCClfFk2sLyxnOOS3MpUXRme95g3VkAjv6WocOdtGK8bPqbstofasq8hWnIQs3enwNWmagmIKtfiKNrUqMq4Tc6ATyFXTROnKmEi8QmHZ5E618cHz4FVMgHgeVO94VukbEr/cIXFL3MyWRZkJHGaZCajWiIjJRFuTw2dvOcEPjXs3J5mLSEAkz0bpDILcoChpjg13Rirw3d1Op2/+qu/unbtGnJLGdz/3uvbQhkLjJFMiFInehEv/t+7nvZCvxLN9n/qeobWY9GX4Xr2E4mrlc8pqsUJNOJCbA6VFq0SE1aVBFFMpQhhpFvye7NUlF6B0pV2yioGPZKZ73IDqUzO6Xb+gR2XpdxWmGcJ4eT9ZG2xSFnB3M8FT3G+U8kGk5OT7Xb7u9/9bg5z+0O2lQWTH/7whzA119bWvvzyS/hVhgtIzM7Pz3c6nUuXLjUajampKVXlsnTImhvCQuR68ODB8vLyJ598wlR6UgWgZfcMAWi/319dXd3Y2LAHn0snpIfb3d3t9/s2ClA+ll9YGjuSt+AOEUVjEZz+6ifwW+kjM3zEXVln150r1FJYqlJBijp3BlgJd+WWyx9wKU4NZwvaV4pjOeSm3G2prasaLVYkYw92WnIJMiEpbEhr4lJgjRKyoackrsW8ZCSd4VTuZHad/Ar1uqHQGXOXDnrRTfdDltp9d/JcS2s/psPaseF4hmIiXll/NzAyqDVXcaGSkpGRnIArD5jSm0oxFMjZEY6JuGc2JbBd0hhTC4mhRYcyxx8YxbrBCskh58fazISsz/Bkwjz13oAaFI5WpzAyPT39zjvvOI/xK9nAbyVkTN5xgWeSgeQ7y6P7bdzPi+t/yfWnEjKemtxnkFc28++9CrLij6dun18hbzolW5H4sdtOL55tm8nKLzBPCoadCpCkV05DOazyqMhljo7UWyMnwRgJsJbixjIdH77D7A30NtLdplXFVw2XVBIn8/7LsgyrZD+N41jcIXafvvX86jJ3MdX1DJ7y5x3szv9aNWs2m2fPnp2bm/vBD37wtCPjXz548KDb7QJGpqx3NlXAaVtaWvrkk08Ya8TMTLvd9UaKU+KbwXRLWC9TkIMguz/Xh/hjf3+/dOdkHRZ3zvZQ/TupwzYSZfFdKBHmWREAT589LGqYK3/qAckafbaa5kZKol5KLNm874nIlois42clMQ+CFx8IXdiCZnY2JHmxPEgKW/rVRRpQqCmhO+q5ToWRAmhN3yI7kbFpsPtQBh4i2GNjYzaxyVyk7OBonNylKTKQV4mHCohYpFIzpc+N5HbKl5ixYFE2dah04XznSpYiT5oIsrKs6RvjWiniK8whC3aeTVRyCVj8RIIZfiZVOgVHTUSFFYQDLly48PLLL1+5cgWkIFPW57m+lZARQ8CjJqWjCBHleXsBN/7/cP1JtDcNO5jUXi6BxdMoccMOqVAy0gDxT+XcQvqGT+NR0j3nVyefUipb0UVKoGW4UdRz6q8DYomy5ERNTYwsn0QF4Col+uK35Dy0YZGm7AnIqR4a5YJHPqPYnWtyqtBS6TB4duNd+mbcD6N46fg5Pj5GRTK5hjmKyQqyMWJWFUubIL+SNbtTRxW4kufOnZuenu50OsZkRZXC2864kAEYGxsbm5ub+/v7eDgk64ggEV3qP7mQiHOnMXH44sWLzWZzenp6YmKi0Wg8evQISj46APfv379161a32wX7pJuej7IUK80Rz6escZaqXXYniEhKI2RMCE3IVqwuW3eH+3tyLz3tvZe25fxDvprER7iBZM5J5xUJG05EUw1bUsr58+cJ48oNl9KBQq1JOszY1/UkLuROoBKK2sorIDzNkjoRXjkmThBVrJFI1B55mbgG90lpELC0I5A8hCOfA36TiqfuQTndYudJKBfFtLnEYkgx45lGuv6JOFrBz5nA5qIpNSB6yigaaiNpft0/pU3KdMvI0lCvALGphODPpOKPZpm/542bR0GLf++996DH7O/voxL6tFMwfH0rIaP1teFZouVn/Kdv4zZeXC+ur3ElF7PwMpN6+OwPfnb+k+jXqR9YwsfEUU7ts8m4c5hL+vx3q1CZJfVnfGlJtcsTcZWjnW0Zp35gfkJ2BnwNjuypr2C4eP08n2m0IUrB3yfZRm9h0Srj+2Rx5aKduhQ5N3Z41IcDgUq4aXfn8P2TACQr8dy5c2+88Uap8OY3GmecOnjG4tcwwcAgVW2pbrf72WefffnllxsbG6Ojo61Wa3JyEvrm8ZNrMBgsLy/3er2Cuomv8IA0HvX7fdhXKQEj2Jl3SJSAzwY0tQuEm0+Cmld2mUB3c25nQaqIgD0p4qYpiGgAZ9iRoUkRndXfHx8f7+zs0ApGJETzckbSwnJCrVkn9e9z9ixJjhy+8sZtjslOOFUOMnbPkfogXpR9BVNPTk4Q3kpiSRnbU5T8ecsyT6zJ+lr5WAB7x6HxWmmFyUJ8KeKTS5gVG9tZrDBGL13G4qBFstTuHI0kN2ZYzPpDZ7Qpygq1GyNj+gz1Mu43vszCBZvZoBOwEPqKgb4/bBx/dHQ0NTX1s5/97O///u87nc7R0dHXiL6+rfaXP/XuhxfXi+t/z/X8R+nrHbrhst3zf9q3esz/t9mQZ5vXouKW3RX5Cc8jg2/Qk059OMr8SuZ+WKDHyLW0Y5fb4M9fSebCIjIx4rVr13784x9LeMU3y6I7OjpinjuhZApAEkyMjY2dnJzcuXPnP/7jP/7zP/9zZWXFuanqSI+PjxMFMhTEmUn85cbGBjErwiuG9QJdctqAyRNXU2acOqATZaWIZN05R7EJaD2tYyZR/yR3IixlGwQfpRysFIIydN76tbjX015iERtPLWvry3yj6tzKbCl+YnRiv0vO1zXEMfvlJ1k6c1HLyjkcNXdRIXxn5dfIeLj4kxSRDPVEfA3uDfUSilbOJoUdspskpfj5BKM3Ed8cjZgC++63BK1LslSOZ0K8BWvLcFx2hwGxIlkg+uPj42+++eZf/uVfzs/PszKcrJwU9XuvbzFkfHG9uF5cL67/M9fvDZWKyDZX6aZ6TgaOwENqzmef+LB66FfNK54nNxhWTzwVVhy+cm4NSkM2iefcCyuSExMTpW3LdVA8aHJy8uWXX/7JT35iHwMrQFwojkto4pg4xJCRnd/Y2KDOTtTY7/eXl5dXV1dh3zYaDSiqrVYLsoGSe/RPdLvd27dvf/HFFzTL21NlAGdBE/VB+plKTJDvN0fvKAlkEK9Iguy6jCeSBehVRlDyXYR30gBy8KYhhRCj7XfOZSl6NFZRwf+U1PHTUq2ptBYZ1ijPXrRLS+BSBJWM7CVE5uYXX3T/SARPgXH5MwkzJ9VnWEM6i0K+AoHM8+fPZ7yYz+W6CQNnv7lvNp+30BWGLUlqwGXEmZMes04lwnp4ePjmm2/++Mc/fv/991HAZdRNmQr2e68XIeOL68X14npxPdf1PPVrr2G7/7Sy+Kkf9YxCfLIFvgYLfDiIeRrGkJMk/MvfCzdalUsvSLFMNZbsnDD+sEug3APxxKVLl5rNZrKHAaVk1hb/atRCVPTGG29YKjV0YC5wjtW5+OQSaJTcRhh6dHS0tLR068m1trbm5JsHDx4wvY1fQe4emad+v7+3t/f/2juX1qb6NYrH1M1Ok2C1icVqqQiCWkQHUnUkFMfiSBwJfhA/lFP9AE4V1IG8XijVttGmbWqSJlHbF1znrLPOs3Pp5RXO0fUbSMxl7//e2WlWnst69AxT6n3+/Pnly5cMZfFwWHhHTRkML7WFi+FYSodQBKylyRQZdPijlOEgTW6W4/g0/a0e1IyhciRBqA1QjcuYKHsbNFeLV2nJMqNlPDTaQDIeqRItXOEaHaSAC2PWuRhEHHE2svNHGJ7Xmg0+xNgwi4J0FqtKbR44fynp1vRDkf1ksYE9O6BSX4JdJ0lSLpfTNN3a2sK1BG+yS5cu3bp1a2pqqtfrUSz+T1h5G2PMH86BqzCVISozhOL2UrHa9/bIV4Verr3vS9tR6S0cuq90+33z7GpTEMajsUAw61xDmYIYGwfz6PzosbExmB/RCTVUmmq7BjXHzMzMlStXMLod6eNyuYyhfNo9BpXW7XYpJTU7jJOwsrLy7NmzWq2GJ6D+D1OL0I2kklFzrIVCYWZmplAoNBoN9DChy0EtS7WrhpIrNPZq5V9wwscidQwBz79G07WaVj2u+Vay9QSyktcANB+1u66ZKwxNIdqTFAJy4bUamNdeY1q+oyGaWpBWrGoArisJPjB9UwfqLKHRdB6gFs6yI0rTBeGzpteMTijQaLSWRrAugrUBLKJtt9vnz5+/efPm3NwcLss0TfEjTYX+XrBkNMaYw9JXt+1RzB2ArIwbzvA1DG8cHvJNNuQlIZ8O0aANFmpfjBfyS7evQg0hmb5VXyH3rYlUZAmRP6X8Yulhdp5TGGPLr3mEcEql0rlz57JDOLInZ4izWKfTuXbt2urqKlKKrVaLE5BrtVqj0WCkVhu3f/z4USwWZ2dn8/k8utq3t7fr9fqnT58+fvyIgfLtdrv3b4J7UXaYJHt7tYJTy3A1gqUKPrj8MLTGIkiWVDJvq2l33XIQ+qEWkzOsVTVqzlcbX/QtY7+8uqnrrKbgXRBGUgWzdB3lHCYkad0qqw70h5NqdHWCHHIZByWn12EwYdXrHLUBGIHDEQDHjh27ffv2zZs3JyYm6OFKlT/yE61YMhpjzKEIigo3sindf5BspeO+2KPXTCgrzCZ/B+1TvwV3/5tgd0d9oPpS/9Wtqcsmc6naiqvFZ/ySxh5RTMnMoFp2h6nW2QQ3069JkqAZHFWSDOdojRpFGO1agvKgzkiS5Ny5c6dOnWLtI/ZIOyQVSVk9ARcb1Fxubm6+/QlEJFrL6/X62tpavV7n6BH2+dLLHQ9xYdrBzTsp5akptWIyO6iGmffw7ugcAe0U4RuBKlV1a85+uNiUzeyzeuOrtThva6Ye6EQGjlIMxYKcJB7ieVS9/ICjPkGVnPog8irK/nEYNGiKepdZ9VDmG0LIqpvZYY2Ee6vVKpVKCwsLd+/ePXv2LC4YxBfx8wknbe/tLwf5c2OMMUb/vmc9IH9diFF3ut/el74RykGZKdV6WmqW7QTvu33tJNBeDdzJL3LWqOmgS2o7VZBslaUlMpfHr3B1KGR7rJoCogNGG5wZ/cqGVPX0orFmfHxcx+oEccDUIWWQxvPCWcqeSaah2T8UTEyx/p2dHdrpoQ2ZZjTUH+12e3l5+c2bNy9evKjX681mE+HJUqmUJAl8fNbW1qAvv3z50mw2v3//XigUij/BgTSbzVwuh7pMlHLSZ5FZ7HDCwwBGLJsuM2qQiQw++zYQFGV9ocY4s8MGtZ0Zd8IUiT8t9OTrRaVlhWo+zxt8u4PVJS5RDPUJrS28nvUDharQMNQ72ClwnL2WJ4b8PqOSOhBLw438UYRrgBvEAtI0vXHjxsOHDxcWFpIkQRUjFsaBtNlZ/0OwZDTGmMMyfExL9v5BJvD7Yl+qNKsUNWs86CVDNjg8yqhlVdmvwNCLrSV3IUgZApwhfpldbVgVm3NZ2qUnX/dLbz+13szK4hDmCQE2bIoHSDefsDBmcmGAAgnCr/xQjMhiTZ5MnmF09lA56TJwyM1mE35DavbOfhcUQW5sbDx//vzVq1eNRqNSqVy4cGF6ejpJEjwE8dFqtZaWlt69e7e4uAi/d435hd8GfFupzzAgHgFa5meTJIHwRZlpiFxyC+qbDZmOZiPakuv9OJ86EF9T6nyIa9Dx1uwvYeUlu60Ri2UDPgzq6UOu2WdeNpzCoM9kSaK+EeGFOgZTTb/1VwEvM7YQIQTOVmhenHfu3Hnw4MHVq1er1arGQVnjWCwW99UBY8lojDF/KL80FKqKedDtX82gvvWwyCGp+exB9S3CC/sK2nfQ+QnZ/0G7yz46SB/r87Ph0vAqqkxmrmlQr6FT6I9er4cGcMg1Kh49G7iNXhMOC4U62djY2Nzc/Ouvv5aWlr5+/bq9vb27u5umaalUqlarJ06cmJ2dPXnyJAfiQdbAngl66Pv3741Go91u5/P5xcXFt2/fdjqdZrOJBnY4R9JzkWqb3t3YFJQ0latWMmhpQWjfpuEl7D9hIY6At3rOh/EwDH6z8lJ/FXASN8s6g0EBzzDbw3nC+XZrbprG3ejvSZLk+vXrjx49un79emgq12rj/f5wtWQ0xhhjfgcoE1maiYPK+vwpIdaFGJtGXtnLQoPDkbOJIVPQm3z06NFut9tqtRDJ29raQg4agTE6sbMniRoLK2GUDrq2UCj0er12uz02NraxsfH06dPHjx+/efMGIUZELmGfhLE0SOVjRxB86A6hdMNetAyAB6txR2TtETSlrzs1t1rBQ8vmcrlisahBa070hpJO0zTYJzEez1YtbfCnqGV4kmoVK0zTFE36ExMT8/Pz9+/fv3fvXpqmm5ubsC/lW3PgqXuWjMYYY8xvgpafhkyxqkadA5SNR7KPJzjO4Al7j54y54uKRiRbOQGFEVkO4+aTQ0WsNp3wCdjaysrKhw8f1tfX2+32t2/fINq+ffuGuObm5ub6+joEHNLKuVzu9evXtVqNpbHsCsIiUReIUeytVqvX6yHMCTS8p1UNTBbjJED8wRCA0UcdIEmHduaddZi19v5rUlutTOmvieKBQqFw5swZDH+fm5ubn5+/fPny7Oysjh/k+3vgqhhLRmOMMeb3QTWHHtSgJPighDibS3hnX+EY+vfpi65d7YyWaf+4mhmpfNT4qAbDGFGjZzW9jdgWwynt3W630+lsb29jmvmRI0fQ5H7kyJEPHz7U63XMp+awIgpcNIg0m81arba0tLS2toasdy6Xa7VajUYDiXVIPcwuwsDxfD6PgddYGDautk0oP4Vy5WxGZuF5xnAe4LVOec2azsnJyYmJiSRJ0jRlkWuapuVy+fz583NzcxcuXJiZmTl+/Hg+ny8UCupIQLV9sBCjJaMxxhjzu3FI286Q0eadWgPHJ/SVjHTzCRvPik71rwnOShwSqCqHZX/M+eo2GYpT/x2Np9J5B4JMG7PUfLHT6WxtbdXr9UajwdrHrz9B29D29jZikFwnh483m83Xr18vLy8nSTI9PV0sFiF20zSdnJycmpoqFouYRRQMpJgKR2s8/DWRocacIYQSK5UKpCdTzJi0XqlUTp8+feLECZ7t0O+lnk0Hu+AtGY0xxhjzH4JlTN8zM6RzSBVeNoudtWHKPkSC6UxIrzNyydZyPAd94nBiUgdvNKfDKyesKvgi9bURUIvHbrfb+Emr1UJjDZ+zsrLy5MmT9+/fl0qlixcvVqtVLLhYLFar1enp6XK5zPJH2hVp2pqjg9CpjZz4+Ph4qVQqFotoCWLWWzPdsIJHgj5NU7WyUiuoA1/qlozGGGPMn05of9YUdogL7j2KqaY/IS2e3UJWVobF6JQdxOTYRgOpp43ecLehINOSTfQga92kxhdhQskyR+1KYf8yLW/6BmJ3dnZWV1cbjUaSJJVKpVQq0XQTEUF1fWKMM4QD8Xyt3YRPkEZnNbNPWYzSRhjusJ6SI7APiSWjMcYY80ejsmyItmAjtrqyB4LzpT5Irxl9SKODg3bK8dkQcEjUarq53W7v7u7ShJwakT3FrBrc3d0tl8tQmUH/MIIYppmrwza7m7PrRMdMp9NBLHBnZweDwhEUpJ+Ojj6ixlWL0OBzyfVj71CxfSOyeF8oZ/FfOA2pxj0MlozGGGPM/z2qIfauD0J7deirzQb5yJCO6ey0zL56SyN/QySjOgcFRYv2GhoWcvxJaKMJXeGscQy71jna3DVdDxm049YoTNliolugqOVQH07fxtN0Sg3dc3TaNQ9HDzxETMMEF43O6lxBRxmNMcYY8y8G+X6PpK8MGOkcPoRBBY7ZTu0hNuZ72X62OC9rKjTcDCjsPajSkEmnpA73B5v0IL416ZwVo6EHqO8hDDo/2UPYuyn9wbBkNMYYY4wxI/gHctvGGGOMMeb3xpLRGGOMNBFVbAAAAFRJREFUMcaMwJLRGGOMMcaMwJLRGGOMMcaMwJLRGGOMMcaMwJLRGGOMMcaMwJLRGGOMMcaMwJLRGGOMMcaMwJLRGGOMMcaMwJLRGGOMMcYMI5fL/Q3uwW0NElXRLgAAAABJRU5ErkJggg==;" vertex="1" parent="1">
          <mxGeometry x="134" y="132" width="531.06" height="96" as="geometry" />
        </mxCell>
        <mxCell id="uO-M7k10kkAM9L_WxSzS-5" value="11" style="text;strokeColor=none;align=center;fillColor=none;html=1;verticalAlign=middle;whiteSpace=wrap;rounded=0;" vertex="1" parent="1">
          <mxGeometry x="200" y="90" width="60" height="30" as="geometry" />
        </mxCell>
        <mxCell id="uO-M7k10kkAM9L_WxSzS-6" value="21" style="text;strokeColor=none;align=center;fillColor=none;html=1;verticalAlign=middle;whiteSpace=wrap;rounded=0;" vertex="1" parent="1">
          <mxGeometry x="310" y="90" width="60" height="30" as="geometry" />
        </mxCell>
        <mxCell id="uO-M7k10kkAM9L_WxSzS-7" value="19" style="text;strokeColor=none;align=center;fillColor=none;html=1;verticalAlign=middle;whiteSpace=wrap;rounded=0;" vertex="1" parent="1">
          <mxGeometry x="450" y="90" width="60" height="30" as="geometry" />
        </mxCell>
        <mxCell id="uO-M7k10kkAM9L_WxSzS-8" value="9" style="text;strokeColor=none;align=center;fillColor=none;html=1;verticalAlign=middle;whiteSpace=wrap;rounded=0;" vertex="1" parent="1">
          <mxGeometry x="570" y="95" width="60" height="30" as="geometry" />
        </mxCell>
        <mxCell id="uO-M7k10kkAM9L_WxSzS-9" value="11" style="text;strokeColor=none;align=center;fillColor=none;html=1;verticalAlign=middle;whiteSpace=wrap;rounded=0;" vertex="1" parent="1">
          <mxGeometry x="210" width="60" height="30" as="geometry" />
        </mxCell>
        <mxCell id="uO-M7k10kkAM9L_WxSzS-10" value="13" style="text;strokeColor=none;align=center;fillColor=none;html=1;verticalAlign=middle;whiteSpace=wrap;rounded=0;" vertex="1" parent="1">
          <mxGeometry x="310" width="60" height="30" as="geometry" />
        </mxCell>
        <mxCell id="uO-M7k10kkAM9L_WxSzS-11" value="17" style="text;strokeColor=none;align=center;fillColor=none;html=1;verticalAlign=middle;whiteSpace=wrap;rounded=0;" vertex="1" parent="1">
          <mxGeometry x="390" width="60" height="30" as="geometry" />
        </mxCell>
        <mxCell id="uO-M7k10kkAM9L_WxSzS-12" value="19" style="text;strokeColor=none;align=center;fillColor=none;html=1;verticalAlign=middle;whiteSpace=wrap;rounded=0;" vertex="1" parent="1">
          <mxGeometry x="540" width="60" height="30" as="geometry" />
        </mxCell>
      </root>
    </mxGraphModel>
  </diagram>
</mxfile>
